<?xml version="1.0" encoding="utf-8"?>
<!-- Generator: Adobe Illustrator 18.1.0, SVG Export Plug-In . SVG Version: 6.00 Build 0)  -->
<svg version="1.1" id="Layer_1" xmlns="http://www.w3.org/2000/svg" xmlns:xlink="http://www.w3.org/1999/xlink" x="0px" y="0px"
	 viewBox="389.6 0 570.4 560" enable-background="new 389.6 0 570.4 560" xml:space="preserve">
<g>
	<path fill="#7F7F7F" d="M829.6,207.7c1.6-1.4,3.3-2.7,4.9-4.2c16-15.7,31.8-31.6,47.6-47.4c5.2-5.2,11.9-5.9,16.9-2.1
		c6.2,4.8,6.4,12.8,0.3,18.9c-9.7,9.9-19.6,19.6-29.4,29.4c-1.4,1.4-2.6,2.7-5,5.4c11.1-0.9,20.5,2.7,29.2-7
		c14-15.7,29.6-30,44.6-44.8c4.7-4.6,10.1-5.6,15-2.8c4.8,2.7,7.2,7.1,6,12.3c-0.7,3-2.6,5.9-4.8,8.1c-9.6,9.8-19.4,19.4-29,29.1
		c-1.3,1.3-2.5,2.7-4.8,5.1c8,0,14.7-0.1,21.4,0c8.1,0.1,13.1,4.7,13.2,11.7c0.1,7.3-5.1,12.1-13.3,12.2c-6.5,0.1-12.9,0.1-19.4,0.2
		c-0.1,0-0.3,0.1-1.3,0.7c1.9,1.9,3.6,3.8,5.5,5.6c9.2,9.2,18.6,18.5,27.8,27.7c5.9,5.9,6.4,13,1.5,18.1c-5,5.2-12.4,4.9-18.6-1.1
		c-15.5-15.4-31.1-30.7-46.4-46.3c-3.4-3.4-6.8-5.5-11.9-4.9c-4.4,0.5-8.9,0.1-13.5,0.1c-0.3,0.6-0.7,1.1-0.9,1.6
		c4.4,4.1,8.9,8.1,13.2,12.2c7,6.7,13.8,13.6,20.6,20.5c5.9,5.9,6.3,13,1,18.1c-5,5-12.3,4.6-18.2-1.1
		c-15.7-15.6-31.6-31.2-47.2-47.1c-3.1-3.1-6.2-4.3-10.5-4.3c-67.6,0.1-135.3,0-202.9,0.1c-5.8,0-10.6-1.5-13.2-7.1
		c-3.6-7.8,1.6-16.4,10.1-17c2.7-0.2,5.5,0,8.7,0c-4.3-8.3-14.7-11.6-25.2-8.7c-9.9,2.7-15.2,11.5-14,23.1
		c1.1,11.1,7.5,17.8,17.9,18.8c2.6,0.2,5.4,0.3,7.9,1.1c5,1.7,8.2,6.8,7.8,12c-0.5,5.5-4.6,10.4-10,10.7c-4.2,0.2-8.8-0.1-12.9-1.3
		c-20.7-5.7-36.5-27-34.8-46.6c1.9-21.8,20.9-40.7,42.9-42.9c17-1.7,36.5,10.5,44.3,28.3c1.8,4.2,3.9,5.5,8.3,5.5
		c17.3-0.2,34.5-0.1,51.9-0.1c1.8,0,3.8,0,7.3,0c-3.1-10.9-5.1-21.2-8.9-30.7c-17.6-44-62.6-70.3-110.4-65.4
		c-51.2,5.4-88,38.4-96.7,88.9c-12.2,71.9,42.1,132.7,115,127.3c41.7-3.1,71.2-24.6,89.7-61.7c3.3-6.6,7.6-9.6,13.1-9
		c8.9,1,13.2,9.7,9.1,18.5c-9.3,19.8-22.8,36.4-40.4,49.4c-88.7,66.1-199.1,3.8-211.2-89c-8.8-67.6,40.2-134.7,107.6-146.6
		c74.5-13.2,145,38.5,155.7,114.2c0.1,1.1,0.3,2.3,0.6,3.8c20.6,0,41.3,0,63.5,0c-2.5-13.7-3.9-27.1-7.6-39.9
		C773.6,88.3,721,40.2,640.1,26.8C538.8,10,445.5,71.9,420.5,168.8c-27.1,105.3,32.3,213,139.7,239.7
		c105.1,26.1,208.6-32.8,237.1-137.9c0.6-2.2,1.1-4.4,2.1-6.5c2.3-5.4,8-8.3,13.5-7.1c5.8,1.4,9.6,5.9,9.3,12
		c-0.1,2.8-0.8,5.6-1.6,8.3C797.3,362.5,720.4,429,632.5,437.1c-86.5,8-156-25.2-204.6-96.4C336.2,206.1,419.4,32.3,569.7,4.2
		c84.8-15.8,155.2,13.5,210.2,79.2c29,34.5,44.6,75.1,48,120.1c0.1,0.9,0.2,1.8,0.5,2.7C828.4,206.7,828.9,206.9,829.6,207.7z"/>
	<path fill="#7F7F7F" d="M710.7,559.9c-6.7,0.1-10.9-3.6-12.4-11.6c-3.6-18.6-7.1-37.3-10.6-55.9c-1.4-7.3-2.8-14.5-4.2-21.8
		s2.4-13.3,9-14.8c7.1-1.6,13.1,2.3,14.6,9.9c5.2,26.6,10.3,53.2,15.3,79.9C723.8,553.4,718.2,559.9,710.7,559.9z"/>
	<path fill="#7F7F7F" d="M496.1,546.2c2.3-12.1,4.8-25.3,7.3-38.5c2.5-13.5,5.1-26.8,7.6-40.2c1.6-8.5,7.1-13,14.5-11.6
		c7.1,1.3,10.8,7.1,9.3,15.5c-4.9,26.3-9.9,52.5-14.9,78.8c-1.4,7-7,10.7-13.8,9.7C499.9,559,496,554,496.1,546.2z"/>
</g>
</svg>
