<?xml version="1.0" encoding="utf-8"?>
<!-- Generator: Adobe Illustrator 18.1.0, SVG Export Plug-In . SVG Version: 6.00 Build 0)  -->
<svg version="1.1" id="globe_1_" xmlns="http://www.w3.org/2000/svg" xmlns:xlink="http://www.w3.org/1999/xlink" x="0px" y="0px"
	 viewBox="252.4 -0.2 455.2 560.2" enable-background="new 252.4 -0.2 455.2 560.2" xml:space="preserve">
<g id="globe">
	<g>
		<path fill="#7F7F7F" d="M631,365.9c46.7-37.8,76.8-95.4,76.8-160.1c0-113.6-92.4-206-206-206c-40.8,0-78.9,12.1-111.1,32.7
			L376.4,6.5c-1.6-3.3-4.9-5.6-8.4-6.3s-7.2,0-10.3,2.1C245.5,81.7,218.7,237.5,298,349.8c38.7,54.8,95.7,89.1,157,100.8
			c0,10.3,0,28.9,0,30.3c0,5.1-3.5,7.5-23.3,14.9l-9.3,3.7c-8.6,3.5-17.5,6.8-25.9,11.4c-1.6,0.9-3.3,1.9-5.1,2.8l-3.5,2.1
			c-6.8,4.9-8.2,10.3-8.2,14c0,14.7,21,20.5,28,22.4c9.1,2.6,20.8,4.4,33.4,5.8c10,0.9,20.8,1.6,31.7,1.9h6.1h6.1
			c11-0.2,21.7-0.7,31.7-1.9c13.1-1.4,24.3-3.3,33.6-5.8c7-1.9,27.8-7.5,27.8-22.4c0-3.7-1.4-9.1-7-12.8c-0.5-0.5-1.2-0.9-1.9-1.4
			l-7.9-4.7c-8.4-4.7-17.5-8.2-26.1-11.4c-3-1.2-5.8-2.3-8.9-3.3c-14.5-5.4-23.8-9.1-23.8-14.9v-0.7c0-1.6,0-15.2,0-25.4
			c49.5-0.2,99.4-14.9,142.8-45.7c5.8-4,7.2-11.9,3-17.7L631,365.9z M495.4,13.1c1.9,7.2,3.7,14.2,3,16.8c-1.6,5.6-6.3,7.2-10.7,10
			c-5.4,3.3-8.9,8.4-9.6,14.7c-0.7,4.9-3.5,11.2-2.6,15.9c3.5,0,6.1-1.9,9.1,0c3.3,2.1,7.2,9.8,8.4,13.3c0.9,3,0.2,8.4,4.2,8.4
			c2.1,0,4.4-3,5.4-4.7c0.9-1.9,0.5-4,1.6-6.1c0.7-1.2,2.3-2.1,3.3-3.3c3.5-4.4,2.1-7.5,3-11.9c1.4-7,1.6-27.1,13.3-23.6
			c11,3.3,7.2,14.5,10.7,22.2c3.3-5.1,2.8-13.1,12.1-10c0.2,3.5-0.7,6.5,0.2,10c0.2,1.2,1.6,1.9,1.9,3.3c0.5,1.4-0.5,3.3,0,4.9
			c1.2,4,4.4,3.3,6.3,6.1c1.6,2.6,0.5,6.3,0.2,8.9c3.7-0.2,11.2,2.1,7,7.7c-2.1,2.8-3.5,0.2-6.1,0.5c-3.3,0.5-3,0.7-5.8,2.1
			c-5.6,2.8-7,2.3-13.1,1.2c-4-0.7-10.5-0.9-11.2,4.7c2.3,0.2,8.6-2.8,10.5-0.5c2.1,2.6-2.6,6.5-2.6,8.9c0.5,0,2.8,0,3,0.2
			c3.3,4,4.7,8.6-2.1,8.9c-5.8,0.5-7-4.7-12.4,0c-3.7,3.3-6.1,7.2-10,10c-3,2.1-10.3,3.3-12.4,5.8c-2.6,2.8-1.4,8.4-2.3,11.9
			c-1.9,6.1-4.4,8.4-9.8,11.4c-3,1.6-8.2,3.3-9.8,6.8c-2.1,4.7,2.3,7.7,4.7,11.2c2.3,3.5,4.7,10.5-1.6,7.2c-3.3-1.6-5.8-7.5-8.2-10
			c-6.1-6.1-17.3-6.5-25-2.6c-6.5,3.3-16.1,13.8-17,21.5c-1.6,12.4,9.1,11.7,16.6,6.8c3.7-2.3,6.8-5.6,10.7-2.1
			c5.4,4.4,0.2,4.9-1.6,8.2c-2.8,5.1,1.9,7,5.8,8.4c5.1,1.9,7,1.9,7,7.9c0,4.7-2.3,8.9,3.7,10.7c3.5,1.2,8.2-0.7,11.4-2.1
			c7.9-4,14.2-9.8,23.3-7c17,5.1,37.8,6.3,49.2,22.2c5.4,7.5,8.2,14,17.3,18c8.6,3.7,19.8,2.6,26.4,10c6.1,7,1.6,18.7-2.8,25.4
			c-4.9,7.7-3,17-8.4,24.3c-4.9,6.8-13.1,10-19.4,14.9c-9.1,7-11.4,17-17,26.6c-6.5,11.7-18.2,18.9-23.6,29.6
			c-9.1,1.4-18.4,2.3-27.8,2.3c0.5-12.4,2.8-26.4,2.8-36.2c0-13.5,4.9-28.9,2.1-42.5c-1.2-5.6-4.4-4.9-7.9-9.1
			c-3-3.5-3-8.4-4.9-12.4c-4.4-9.1-15.9-17-16.3-27.8c-0.5-8.4,7.5-13.1,10-20.8c1.6-4.7,2.1-9.6-3.3-10.7c-4-0.9-8.9,1.6-12.8,0
			c-4-1.4-5.1-4.9-7-8.6c-0.9-1.9-1.6-4.4-3-6.1c-2.3-3-1.6-1.9-4.9-3.3c-7.5-2.8-14.9-5.1-22.4-7c-5.8-1.4-19.4-3.3-23.3-8.6
			c-2.3-3.3-0.2-7.2-1.9-11c-1.6-3.5-4.4-6.3-6.3-9.6c-4-7-7.9-14.9-10.7-22.4c-0.2,0-1.2,0-1.4,0c-0.7,4.4,0.5,11,1.4,15.4
			c1.2,4.9,5.8,8.9,5.4,14.5c-7.7-3-10.7-17-13.1-23.6c-1.6-4.4-2.1-8.6-4.9-12.4c-2.6-3.3-5.4-5.8-7.2-10
			c-7.5-15.9,1.4-33.4,4-49.7c0.5-2.6,1.6-4,1.2-7c-0.5-2.1-1.9-3.5-2.1-5.8c-0.5-2.3-1.6-12.4-2.8-22.2
			C405.1,32.9,448,14.5,495.4,13.1z M319,335.1c-68.4-96.8-49-229.8,42-303.3l8.9,15.9c-45.3,38-74.2,94.7-74.2,158.2
			c0,113.6,92.4,206,206,206c39.7,0,76.8-11.4,108.3-31l10.3,14.9C520.6,458,387.8,432.4,319,335.1z"/>
	</g>
</g>
</svg>
