<?xml version="1.0" encoding="utf-8"?>
<!-- Generator: Adobe Illustrator 18.1.0, SVG Export Plug-In . SVG Version: 6.00 Build 0)  -->
<svg version="1.1" id="Layer_1" xmlns="http://www.w3.org/2000/svg" xmlns:xlink="http://www.w3.org/1999/xlink" x="0px" y="0px"
	 viewBox="2.6 207.9 960 144.3" enable-background="new 2.6 207.9 960 144.3" xml:space="preserve">
<g>
	<path fill="#FFFFFF" d="M57.7,337.5c-1.8-0.7-2.4,0.9-2.4,1.8c0,0.7,1.4,1.2,2.2,1.8c-2.4-0.4-2.9,1.1-2.6,3.3
		c0,0.4-0.4,0.9-0.5,1.4c-0.2-0.5-0.5-1.1-0.5-1.6c0-3.6,0-7.2-0.2-10.7c-0.4-7.2-0.9-14.6-1.4-21.7c-0.2-2.9,0-5.7,0-8.6
		c0-0.7-0.2-1.6-0.7-1.9c-0.5-0.4-1.4-0.2-2.2,0.2c-3.3,1.9-6.3,4-9.5,6.1c-0.7,0.5-1.6,1.4-1.8,2.4c-0.7,6.3,0,12.6,1.8,18.9
		c0-0.5,0.2-1.1,0.2-1.4c0-0.5,0.2-1.1,0-1.6c-1.1-3.3,1.2-5.4,2.2-8.1c0-0.2,0.4-0.4,0.5-0.4c0.2,0.2,0.4,0.5,0.4,0.7
		c-0.2,2.2-0.2,4.3-0.4,6.5c0,0.4,0,1.1-0.2,1.2c-2.2,2.4-0.7,5-0.5,7.6c0,1.8,0.2,3.4,0.4,5.2c0.2,1.8,0.5,3.6,0.7,5.4
		c0,0.5-0.4,1.2-0.5,1.8c-0.4-0.4-0.7-0.9-0.9-0.9c-0.7,0.2-1.2,0.5-1.9,0.9c0-0.7-0.2-1.6-0.2-2.6c-0.2-1.9-0.4-3.8-2.6-4.7
		c-0.4-0.2-0.7-1.6-0.4-1.9c2.9-3.4,2.4-6.5-0.9-9.3c-0.2-0.2-0.2-0.9-0.2-1.2c1.2-2.7,1.8-5.4,1.2-8.4c-0.4-1.9,0-4.1,0-6.3
		c0-1.2-0.4-1.8-1.6-1.2c-2.4,0.9-4.7,1.8-6.9,2.9c-0.7,0.4-1.4,1.2-1.4,1.9c-0.5,4-1.2,7.9,0.5,11.7c0.2,0.4,0.4,0.9,0.2,1.1
		c-1.4,3.3-0.2,6.3,0.5,9.5c0.2,0.5,0.2,1.1,0.2,1.4c-0.4,2.4-0.9,4.5-1.2,6.9c-0.2,1.2-0.5,1.2-1.8,1.1c-1.2-0.4-2.7-0.2-4.3-0.4
		c0.7-1.8,1.6-4.1,2.4-6.3c0.2-0.4-0.2-0.7-0.2-1.1c-0.4,0.2-0.9,0.2-0.9,0.5c-0.5,1.1-0.9,2.2-1.4,3.3c-0.4,0.9-0.5,1.8-0.7,2.7
		c-0.2,0.5-0.5,1.1-0.7,1.4c-0.7-0.5-1.4-0.9-1.8-1.6c-0.2-0.4,0-1.1,0.4-1.4c0.9-0.9,0.5-1.2,0.2-2.4c-0.5-1.2,0-3.1,0.2-4.5
		c0.2-1.1,0.9-2.2-0.9-2.7c-0.4,0-0.5-0.9-0.5-1.2c0.4-1.4,1.1-2.9,1.2-4.3c0.2-0.7-0.7-1.4-0.7-2.2c0-0.9,0.5-1.8,0.5-2.6
		c-0.5-4-0.7-7.7,1.1-11.4c0.9-1.6,0.2-1.8-1.2-1.8c-0.2,0-0.5,0-0.7,0c-4.7,0.2-4.7,0-4.1,4.8c0.7,5.7,1.2,11.7,1.9,17.4
		c-0.2,0-0.4,0-0.5,0.2c-0.4-1.4-0.9-3.1-1.1-4.5c-0.2-1.1-0.2-1.2-0.5,0c-0.4-0.2-0.7-0.4-0.9-0.7c-2.2-4.7-1.6-9.5-2.2-14.3
		c-0.2-1.6-0.2-3.3-0.4-5c-0.4,0-0.7,0-0.9,0c-0.4,3.3-0.5,6.5-0.9,9.7c-0.7-6.3,1.4-12.9-1.8-19.1c0,1.6,0,3.1,0,4.7
		c-0.2,0-0.4,0-0.5,0c-0.2-0.9-0.5-1.9-0.5-2.9c-0.4-5,0-10.5-1.4-15.1c-1.1-3.8,0.4-5.2,2.4-7.6c2.4-2.9,1.1-6.3,0.2-9.5
		c-0.4-1.1-0.5-2.7,0-3.3c2.4-2.2,1.9-5.2,3.4-7.7c0.2-0.4,0.2-1.2,0-1.8c-0.5-1.8,0.2-3.1,1.8-3.6c1.6-0.5,1.8-1.4,1.8-2.9
		c0-4.3,2.6-6.9,6.9-6.9c2.2,0,3.6-0.2,5.2-2.4c1.9-2.7,5.2-4.5,9-2.7c1.1,0.5,2.6,0.9,3.8,1.1c0.9,0.2,1.9,0.5,2.6,0
		c3.3-2.6,6.5-0.9,9.5,0.2c3.1,1.1,5.7,2.7,8.8,3.8c3.4,1.1,5.4,4,7.9,5.9c1.9,1.6,4.7,2.4,7,3.3c2.9,1.2,6.1,1.8,8.8,3.4
		c1.4,0.9,3.3,2.2,3.4,4.5c0,0.7,1.1,1.2,1.6,1.9c1.2,1.2,1.6-0.4,2.6-0.7c0.7-0.4,1.6-0.7,2.4-1.1c0.4-0.2,0.5-0.5,0.7-0.9
		c-0.4-0.2-0.7-0.4-1.1-0.4c-0.2,0-0.5,0-0.7,0c-0.7,0.2-1.4,0.2-2.2,0.4c0.4-0.9,0.7-2.2,1.4-2.6c1.4-0.7,3.3-1.1,4.8-1.6
		c0.5-0.2,1.1-0.4,1.4-0.7c-0.5-0.2-1.1-0.7-1.6-0.7c-1.4,0.2-3.1,0.5-4.5,0.7c-0.5,0-1.1,0-1.8,0c0.4-0.7,0.5-1.4,0.9-2.2
		c0-0.2,0.4-0.2,0.9-0.4c-1.1-0.2-1.8-0.2-2.6-0.4c0-0.2,0-0.5,0-0.7c2.7,0,5.5,0,8.3-0.2c0.5,0,1.2,0.4,1.8,0
		c0.5-0.4,0.9-0.9,1.2-1.4c-0.5-0.4-0.9-0.7-1.4-1.1c-0.7-0.4-1.6-0.5-2.6-0.7c-0.4,0-1.8-0.5-0.7,0.9c0,0-0.2,0.5-0.4,0.5
		c-1.6-0.2-3.3-0.4-5-0.5c0.7-0.9,2.7-0.9,1.2-2.4c0.5-0.2,1.1-0.5,1.6-0.5s1.1,0,1.8,0.2c-0.5-0.4-1.1-0.7-1.4-1.1
		c-0.2-0.2-0.4-0.2-0.5-0.4c0.2-0.2,0.2-0.4,0.4-0.7c1.2,0.5,2.4,1.2,3.6,1.6c0.7,0.4,1.4,0.4,2.4,0.5c-0.5-0.7-1.1-1.4-1.6-1.8
		c-0.7-0.5-1.6-0.9-2.6-1.4c-0.4-0.2-0.4-0.7-0.5-1.1c0.5,0,1.1-0.2,1.4,0c0.7,0.4,1.2,0.9,1.9,1.4c-0.2-0.9-0.5-1.8-0.7-2.7
		c0-0.4,0-0.7,0-0.9c0.4,0.2,0.7,0.2,0.9,0.4c0.9,0.9,1.8,1.9,2.9,2.9c-0.2-3.3-2.4-4.5-4.8-5.7c-6.1-3.3-12.2-6.7-18.1-10
		c-1.6-0.9-2.7-2.6-1.8-4.1c0.7-1.1,2.4-1.9,3.8-2.2c1.9-0.2,4.1,0,5.7,0.7c4.7,1.9,9.3,4.3,14,6.5c1.6,0.7,3.3,1.4,5,2.4
		c0-3.3-2.4-5-3.8-7.2c-2.4-3.8-4.7-7.4-4.7-12.1c0-0.7,0.5-2.2,1.1-2.4c0.7-0.4,2.2-0.2,2.7,0.4c4,3.1,7.4,6.7,9.3,11.4
		c0,0.2,0.2,0.4,0.2,0.4c5.2,1.8,5.5,7.2,8.3,10.8c0.5,0.7,0.5,3.3,1.8,0.4l0.7,0.2c0.2,2.2,1.8,0.9,2.7,1.1c0.9,0.2,2.2,0,3.1,0
		c0.2,0,0.4,0.7,0.4,1.1c0,1.1-0.2,2.4,0.2,3.6c0.7-1.4,1.4-2.9,2.2-4.5c1.8,3.6-0.7,5.9-1.2,8.8c1.1-1.4,2.2-3.1,3.4-4.3
		c0.7-0.7,1.4-1.4,2.4-1.9c0.2-0.2,0.7,0,1.1,0c-0.2,0.4-0.4,0.7-0.5,0.9c-0.5,0.4-1.2,0.7-1.6,1.2c-0.5,0.9-0.7,1.8-1.1,2.7
		c0.7-0.4,1.2-0.9,1.9-1.2c0.4-0.2,0.9-0.5,1.2-0.7c0.5-0.4,1.2-0.5,1.9-0.7c-0.5,0.5-1.1,1.1-1.6,1.4c-0.7,0.7-1.6,1.2-2.7,2.4
		c0.9,0.2,1.1,0.2,1.4,0.2c0.9-0.2,1.8-0.4,2.7-0.5c-0.7,0.5-1.2,1.2-1.9,1.8c-0.4,0.4-0.7,0.7-0.9,1.1c0.5,0,0.9,0.2,1.4,0.2
		c0.4,0,0.5-0.2,0.9-0.2c0,0.2,0.2,0.4,0.2,0.5c-0.4,0.2-0.9,0.4-1.2,0.5c-0.7,0.4-2.6,0.2-1.1,1.9c-0.2,0.2-0.5,0.5-0.7,0.5
		c-1.6-0.2-5.4,2.4-5.5,4c0,0.5,0.5,1.2,1.1,1.8c2.4,1.9,4.5,4.3,4.7,7.4c0.2,1.9-0.2,4-0.2,5.9c0,3.3,0.4,6.3,0.4,9.5
		c0,1.6-0.2,3.6-0.7,5c-1.6,4-0.7,7.9,0.7,11.4c0.7,1.8,1.8,4.1,3.3,5.7c0.4,0.4,0.9,0.4,1.4,0.5c0-0.5,0.4-1.2,0.2-1.4
		c-1.4-1.6-1.1-3.4-1.1-5.2c0-0.9-0.2-1.6-0.4-2.6c-0.2-1.4-0.9-3.3-0.5-4.5c1.4-5.4,0.2-10.8,0.9-16.2c0.4-2.7,1.6-4.8,4.5-5.7
		c2.9-0.9,5.7-1.9,8.6-2.7c3.4-0.7,6.7,0.5,9.9,1.4c4,1.1,7.2,2.9,9.9,5.9c0.7,0.9,1.6,1.8,1.9,2.9c1.6,4,3.4,7.7,4.3,11.9
		c0.7,3.1,0.4,6.5-0.5,9.3c-1.1,3.4,0,6.3,0.2,9.3c0,0.5,0.7,1.2,1.2,1.4c6.1,2.9,9.5,8.1,11.5,14.2c1.6,5,2.6,10.2,2.4,15.5
		c-0.2,4.3-0.9,8.8-1.4,13.1c0,0.5-0.5,0.9-0.7,1.2c-0.4-0.5-1.1-1.1-0.9-1.6c0.2-4,0.4-7.7,0.7-11.7c0.5-4.7,0.9-9.3-0.9-13.8
		c-0.9-2.4-2.4-4.8-4.3-6.7c-1.4-1.2-4-1.1-5.9-1.8c-3.1-0.9-5.2,0.4-6.7,2.6c-0.9,1.2-1.2,3.3-1.4,4.8c-0.2,1.2,0,2.7-0.2,4.1
		c-0.2,1.2-0.7,1.2-1.6,0.5c-0.2-0.2-0.7,0-0.9,0.2c-0.2,1.1-0.5,2.2-0.5,3.3c0,5.2,0,10.5,0,15.7c0,0.7-0.5,1.4-0.7,2.2
		c-0.4-0.7-0.7-1.6-0.7-2.4c-0.2-4.7-0.5-9.5-0.4-14.2c0.2-2.7,1.1-5.5,1.8-8.3c0.5-1.8,1.2-3.6,2.2-5.2c2.9-4.8,6.5-6.1,11.7-4.5
		c1.1,0.4,2.4,0.2,3.6,0.2c-0.9-0.7-1.6-1.8-2.6-2.4c-1.1-0.5-2.4-0.7-3.6-1.1c-0.2,0-0.4-0.4-0.5-0.4c0.2-0.2,0.4-0.4,0.7-0.5
		c0.3-0.1,0.7-0.4,0.9-0.5c-0.2-0.2-0.5-0.5-0.7-0.5c-1.4-0.9-2.9-0.9-4.5,0.2c-8.6,5.5-11.4,14-12.2,23.6
		c-0.4,4.7-0.7,9.5-1.1,14.2c0,0.4-0.5,0.7-0.7,1.1c-0.2-0.4-0.5-0.7-0.7-1.1c0-0.4,0.4-0.7,0.2-0.9c-0.2-0.4-0.4-0.9-0.7-1.2
		c-0.2,0.4-0.5,0.7-0.7,1.1c-0.4,0.7-0.7,1.6-0.9,2.4c-0.2-0.9-0.5-1.8-0.5-2.7c0.5-6.7,0.2-13.5,1.8-19.8
		c1.6-6.9,3.3-14.2,10.5-18.1c0.7-0.4,1.1-1.1,1.6-1.8c-0.7-0.2-1.4-0.5-2.2-0.7c-3.3-0.9-3.4-0.9-4.5,1.9c-2.4,6.1-6.5,11-11,15.8
		c-1.6,1.8-1.6,3.8-1.4,6.1c0.4,3.6,0,4.3-3.4,5.9c-0.4,0.2-0.9,1.1-0.9,1.4c0,2.9,0.2,5.7,0.4,8.4c0.2,1.6,0.4,3.3-1.6,4.7
		c-0.2-1.1-0.4-2.2-0.4-3.1c0-7.7,0.2-15.5,0.2-23.2c0-5.5-0.4-11-5-15c-0.7-0.7-1.9-1.1-2.9-1.2c-0.7-0.2-2.7-0.4-0.9,1.4
		c0,0-0.4,0.7-0.4,0.5c-1.9-0.9-1.2,0.5-1.4,1.4c-0.5,2.4-1.4,4.7-2.2,6.9c-0.2,0.4-0.2,0.9-0.2,1.2c1.1,3.4-0.4,7-0.2,10.5
		c0,0.2,0,0.7-0.2,0.7c-2.4,0.9-1.8,3.3-2.6,5c-0.4-1.9-0.7-4-1.1-5.9c-0.2-1.1-0.4-2.2-0.5-3.3c0-0.4-0.4-0.7-0.5-1.1
		c-0.4,0.4-0.7,0.5-0.9,1.1c-0.9,2.4-1.2,5-2.9,6.7c-0.9,0.9-1.4,3.6-4,2.7c-0.2,0-1.1,0.7-1.2,1.4c-0.4,1.2-0.4,1.2-1.9,1.4
		c-0.4,0-0.7,0.4-0.9,0.5c-0.5,1.8-1.8,1.4-3.1,1.2c-0.5,0-1.9,0.4-0.7-1.1c0,0-0.2-0.5-0.4-0.5c-0.5,0.2-1.1,0.2-1.4,0.5
		c-0.9,0.9-1.6,1.8-2.4-0.2c0,0-1.1,0.2-1.4,0.4c-0.7,0.4-0.7,2.4-2.2,0.9c-0.2,0.7-0.5,1.4-0.7,2.2c-0.2,0.5-0.4,1.1-0.5,1.6
		c-0.2-0.5,0-1.1-0.4-1.4c-0.5-0.5-1.1-1.1-1.8-1.2c-0.2,0-1.1,0.9-1.1,1.2c-0.2,1.4-0.2,3.1-0.2,4.5c0,1.2-0.2,2.7-1.6,2.7
		c-0.5,0-1.2-1.6-1.2-2.6c0-1.9,0.2-4,0.4-5.9c0.4-5.5,0.5-11,1.1-16.5c0.4-3.4-1.6-5.4-3.3-7.7c-0.2-0.2-0.7-0.4-0.9-0.2
		c-0.2,0.2-0.4,0.5-0.4,0.9c0.2,8.6,0.5,17.4,0.9,26c0,1.6,0,3.4-0.2,5c0,0.4-0.4,0.7-0.5,0.7c-0.2,0.2-0.5-0.2-0.9-0.2
		c1.2-1.8-3.1-1.4-1.4-3.3c1.1-1.1,0.4-1.1-0.4-1.2c-0.9-0.2-1.8,0-2.6-0.2c-0.4,0-0.7-0.2-1.1-0.4c0.4-0.2,0.7-0.5,1.2-0.5
		c1.1,0,1.9,0.2,3.1,0.2c0.2,0,0.4-0.2,0.5-0.4c-0.2-0.2-0.2-0.5-0.4-0.5c-1.9-0.2-4-0.5-5.9-0.7c-0.4,0-0.9,0.5-1.4,0.7
		c0.5,0.4,1.1,0.7,1.6,1.1c-1.4,0.7-1.4,0.7-2.6,5.7c-0.4-0.5-0.7-0.9-0.7-1.2c0.2-4.8,0.5-9.9,0.9-14.8c0.2-2.9,0.4-5.7-0.7-8.4
		c-0.2,0-0.5,0-0.7,0c0,2.4,0,4.7,0,7c0,1.4,0.9,3.3-1.4,4c-0.5,0.2-0.9,1.4-1.6,2.7c-0.2-4.3-0.5-8.3-0.7-12.2
		c0-1.8-0.4-3.3-1.9-4.1c-0.5-0.4-0.9-0.7-1.4-1.2c-0.7-0.5-1.2-1.2-1.9-1.8c-0.2,0.9-0.4,1.8-0.4,2.7c0.2,4.8,0.5,9.7,0.5,14.3
		c0,3.1-0.4,6.1-0.7,9.2c-0.2,1.4-0.4,2.9-0.4,4.3c-0.2,0-0.4,0-0.5,0.2c-0.2-1.4-0.5-2.7-0.5-4.1c0.2-2.9,0.4-5.7,0.5-8.4
		c0-0.5-0.4-1.2-0.5-1.8c0-0.2-0.4-0.5-0.2-0.5c2.9-1.9,0.4-4.7,0.7-7.2c0.4-2.4,0-5-0.2-7.6c0-0.5-0.2-1.1-0.2-1.6
		c-0.2-1.2,0.2-3.3-0.5-4c-1.4-1.2-3.4-1.9-5.2-2.7c-1.8-0.7-1.4,0.9-1.4,1.8c0.4,3.8,1.8,7,4.5,9.5c1.2,1.2,1.2,1.8,0,3.3
		c-1.4,1.6-2.4,3.8-3.1,5c-1.2-1.4-2.7-3.1-4.3-4.5c-0.9-0.9-0.9-1.2-0.2-2.4c1.1-1.8,3.3-3.6,1.4-6.3c-0.2-0.2-0.2-0.4-0.2-0.4
		c-1.9-1.9-2.6-2.7-3.4-6.3c-0.7-3.3-0.9-6.7-1.2-10c-0.2,0-0.5,0.2-0.5,0.4c-0.4,4-0.9,7.9-1.2,11.9c0,1.1,0.7,2.4,1.1,3.6
		c0.2,0.5,0.5,1.1,0.4,1.6c-1.1,3.4,1.1,6.5,1.4,9.7c0.2,1.4,0,2.7-0.2,4c-0.2,1.8-0.5,3.6-0.9,5.4c0,0.4,0.2,0.9,0.4,1.4
		c0.4-0.2,0.7-0.4,1.1-0.7c0.7-0.5,1.2-1.1,1.9-1.6c0.9-0.9,1.6-0.9,2.4,0c1.2,1.4,2.4,1.6,3.4-0.2c0.4-0.5,1.6-0.9,1.9-0.7
		c0.9,0.9,1.4,1.9,1.9,2.9c-0.2,0.2-0.5,0.4-0.7,0.4c-1.6,0-3.4-0.4-5-0.4C60.9,336.2,58.6,335.1,57.7,337.5L57.7,337.5z
		 M93.3,272.4c-0.5,0.5-0.9,1.2-1.2,1.8c-0.2,0.2,0.2,0.5,0.4,0.9c0,0.2,0.5,0,0.7,0C93.4,274.1,94.8,273.4,93.3,272.4
		c0.2-0.5,0.7-1.1,0.9-1.6c0-0.4-0.4-0.9-0.7-1.2c-0.5,0.9-1.2,1.6-1.8,2.6C92.2,272.2,92.7,272.2,93.3,272.4z M27.4,295.4
		c1.9-0.7,4.1-1.4,6.1-2.2c0.4-0.2,0.5-0.5,0.9-0.7c-0.4-0.2-0.7-0.7-1.2-0.7c-2.9-0.7-5,0.7-7.4,2.2c0,0,0,0.7,0.2,0.9
		C26.5,295.2,27.1,295.4,27.4,295.4c-0.9,0-1.8,0-2.7,0.2c-1.2,0.2-2.6,0.4-3.6,0.7c-0.9,0.4-1.1,1.1-0.2,1.6
		C22.6,299.4,26.9,297.6,27.4,295.4z M101.2,289.6c0.5-0.4,0.9-0.7,1.4-1.2c-0.7-0.5-1.4-1.2-2.4-1.8c-0.2-0.2-0.5,0.2-0.9,0.4
		c0.4,0.5,0.9,0.9,1.2,1.4c0.2,0.2,0,0.5,0.2,0.7c-1.4,0-1.8,0.7-1.2,1.9c0.4,0.9,0.7,1.9,0.7,2.9c-0.2,2.6-0.9,5.2-0.9,7.7
		c0,3.4,0.4,6.9,0.5,10c0,0.4,0.5,0.9,0.7,0.9c0.4,0,0.9-0.4,1.1-0.5c0.2-0.4,0.2-1.1,0.2-1.4c0-4.1,0-8.3-0.2-12.2
		C101.5,295.5,101.4,292.7,101.2,289.6z M40.2,288.4c-1.6,0.5-3.3,0.9-4.8,1.4c-0.4,0.2-0.7,0.5-1.2,0.7c0.5,0.4,0.9,1.1,1.4,0.9
		c1.4-0.4,2.9-0.9,4.3-1.2c0.5-0.2,1.1-0.5,1.6-0.7C41.2,289.3,40.7,288.8,40.2,288.4c-0.2-0.2-0.2-0.2-0.4-0.4v-0.2
		c0.7,0.2,1.6,0.5,2.4,0.7c0.5,0.2,1.6,0.4,1.6,0.2c0.5-1.2,0.7-2.7,1.1-4.1c-0.9-0.2-1.8-0.7-2.6-0.5c-5.9,1.8-12.1,3.6-18,5.5
		c-1.6,0.5-3.1,1.2-4.3,2.2c-0.5,0.4-0.7,1.1-1.1,1.6c0.5,0.2,1.2,0.5,1.8,0.4c1.8-0.7,3.6-1.4,5.2-2.4c1.1-0.5,1.9-1.2,3.1-1.9
		c0.2-0.2,0.7-0.4,0.9-0.2c1.2,0.9,1.4,0.9,2.2,0.7C34.8,289.1,37.4,287.4,40.2,288.4z M47.9,258.4c0.2,0.5,0.4,0.9,0.5,1.4
		c0.4-0.2,0.5-0.5,0.9-0.7C48.8,258.9,48.3,258.7,47.9,258.4c0-0.2,0.2-0.4,0.4-0.4c0.7-0.4,1.4-0.7,2.2-1.1
		c-0.7-0.5-1.4-1.2-2.2-1.4c-1.2-0.2-2.7-0.2-4-0.2c-1.2,0-2.4,0-3.6,0c0-0.2,0-0.2,0-0.4c0.5-0.4,1.2-0.5,2.4-1.1
		c-1.6-0.4-2.9-0.4-3.8-0.7c-2.4-0.9-4.5-1.9-6.9-2.7c-1.6-0.5-2.7,0.7-3.4,1.9c-0.5,1.1-0.4,1.8,0.7,1.9c1.6,0.4,3.3,0.5,5,0.7
		c0.9,0,1.8,0,2.7,0c-0.7,0.7-1.2,1.1-1.8,1.6c0.5,0,1.2-0.2,1.8,0c0.7,0.2,1.2,0.5,1.9,0.7C42,258,44.7,259.7,47.9,258.4z
		 M167.4,279.4c-2.9,0-3.1-2.9-4.3-4.7c1.2,0.4,2.2,1.1,3.4,1.6c0.9,0.4,1.9,0.5,2.9,0.9c-0.7-0.9-1.4-1.9-2.4-2.9
		c-0.4-0.4-1.2-0.5-1.9-0.7c-1.2-0.5-2.4-0.9-3.6-1.4c-0.9-0.4-0.7-0.5,0-1.2c0-0.2,0.2-0.4,0-0.5c-1.6-0.7-2.2-2.7-4-3.6
		c-3.6-1.6-7.2-1.8-11.2-1.8c-1.8,0-3.6-0.7-5.4-0.9c-0.9,0-2.2,0.2-2.6,0.7c-0.7,1.1-0.9,2.6-1.2,3.8c0.7,0.2,1.6,0.4,2.4,0.4
		c0.5,0,0.9,0,1.4,0c-0.4,0.5-0.7,0.7-1.2,0.9c-0.5,0.2-1.2,0.2-1.8,0.4c-0.4,0.2-0.7,0.7-0.7,0.9c0.2,0.7,4.1,1.2,4.7,0.5
		c1.6-2.7,3.3-1.2,5-0.5c1.4,0.7,2.7,1.4,4.1,2.2c4.3,2.4,8.8,4.7,13.1,6.9c0.7,0.4,1.6,0.4,2.6,0.4
		C168.8,281,167.5,279.9,167.4,279.4c0.9-0.2,1.2-0.5,0.5-1.2c-0.7-0.5-1.6-0.7-2.9-1.4C166.1,278,166.8,278.6,167.4,279.4z
		 M112.5,282.2c-0.2-0.2-0.5-0.4-0.7-0.5c1.2-1.8,2.6-3.8,4-5.4c0.7-0.9,1.4-0.5,1.8,0.7c0.5,2.2,2.6,2.6,4.3,2.4
		c1.8,0,1.9-1.2,1.4-2.9c-0.7-2.6-1.6-5.2-1.8-7.9c-0.2-3.6,2.4-5,5.5-3.3c0.2,0.2,0.4,0.4,0.4,0.5c-0.2,0.2-0.5,0.4-0.7,0.4
		c-0.4,0-0.9-0.4-1.2-0.4c-0.9,0.2-1.8,0.4-2.6,0.9c-0.4,0.2-0.2,1.1-0.2,1.6c0.7,0,1.4-0.2,2.4-0.2c1.2-0.2,2.9,0.2,3.6-0.4
		c0.5-0.5,0-2.4,0-3.6c0.4-4.1-1.1-6.7-4.8-7.7c-2.7-0.9-5.2-1.1-8.1-0.2c-1.8,0.7-3.8,0.9-5.7,1.1c-3.4,0.4-4.7,1.4-5.2,4.8
		c-0.5,3.6-1.2,7.2-1.9,11c-0.5-0.9-0.9-1.9-1.6-2.7c-0.7-0.5-1.8-0.9-2.7-1.1c-0.2,0-0.7,0.7-0.9,1.1c0,0.2,0.2,0.5,0.5,0.7
		c3.3,1.8,4,3.1,3.3,6.7c-0.4-0.7-0.5-1.6-0.7-2.4c-0.4-0.9-0.5-1.9-1.1-2.7c-0.4-0.4-1.4-0.4-1.9-0.5c0,0.5,0,1.1,0.2,1.6
		c0.7,1.8,1.4,3.6,2.4,5.4c0.2,0.4,0.9,0.7,1.2,0.7c1.4-0.4,1.4,0.4,1.8,1.4c1.1,2.9,1.8,5.9,5,7.2c3.6,1.4,7.4,2.6,11.2,3.6
		c3.4,0.9,4.7,0,5.7-3.3c0.9-2.7,3.6-4.8,2.4-8.3c0-0.2,0.2-0.5,0.4-0.7c3.3-2.4,1.9-5.5,1.8-8.6c0-2.2-1.2-2.7-4-1.9
		c-1.8,0.4-2.9,1.2-2.2,3.3c0.5,1.4,1.2,2.9,1.6,4.3c0.4,1.1,0.5,2.2,0.7,3.3c0,0-0.4,0.4-0.5,0.4c-0.7-0.2-1.4-0.4-2.2-0.4
		c-1.9-0.2-4.5,0.2-5.7-0.9c-1.8-1.6-2.2-0.2-2.9,0.5C113.6,280.8,113.1,281.5,112.5,282.2z M152.2,296.3c0.4-0.9,0.5-1.8,0.9-2.6
		c0.2-0.4,0.9-0.5,0.9-0.5c-0.5-3.6,2.4-4.5,4.7-5.5c2.7-1.1,2.6-3.6,3.1-5.5c0.4-1.6-0.9-2.9-2.6-3.4c-3.6-1.6-7.2-3.1-10.7-4.5
		c-2.7-1.2-5.5-0.9-8.3-0.2c-3.1,0.9-3.8,2.4-3.3,5.5c0.2,0.7,0.2,1.6-0.2,2.4c-2.2,4.7,1.1,9,0.7,13.5c0,0.4,0.4,0.5,0.5,0.9
		c1.1,1.8,2.6,3.6,3.3,5.5c0.9,2.4,2.6,3.3,4.7,2.7c3.3-0.7,6.7-1.8,9.7-3.3c3.1-1.2,5.7-3.1,6.7-6.7c0.2-0.7,0.7-1.8,1.4-1.9
		c3.8-1.1,3.6-4.1,3.6-7.2c-0.4,0.5-0.9,1.2-1.2,1.8c0-1.4-0.2-3.1,1.6-3.6c0,0,0-0.7-0.2-1.1c-0.9,0.4-1.9,0.4-2.6,0.9
		c-0.7,0.7-0.9,1.9-1.2,3.1c-0.7,1.6-1.1,3.3-3.8,2.9c-1.4-0.2-3.6,1.2-4.5,2.7C154.4,292.9,155.3,295.4,152.2,296.3z M71.5,296
		c-1.2-1.4-2.2-2.6-3.1-3.4c-1.1-1.1-2.4-1.8-3.3-2.9c-1.2-1.6-2.6-1.2-2.9,0.4c-0.5,2.2-0.7,4.5-0.4,6.5c0.2,1.6,1.1,3.6,2.4,4.7
		c3.4,2.9,7.6,4.7,12.1,5.5c2.6,0.5,5.5-0.2,6.7-1.8c0.7-0.9,1.2-1.9,2.2-2.9c0.9-0.9,1.1-1.6-0.4-1.9c-1.9-0.4-4.1-0.7-6.1-1.1
		c-0.7-0.2-1.4-0.2-2.2-0.2c1.2-0.7,2.6-1.2,3.8-1.1c1.6,0,3.4,0.5,5,0.9c0.4,0,0.7,0.4,1.1,0.5c0-0.5,0.4-1.1,0.2-1.4
		c-0.4-0.7-0.9-1.4-1.4-1.6c-3.3-0.9-6.5-1.6-9.5,1.1c0.4-0.9,0.9-1.6,1.4-2.2c0.5-0.7,1.2-1.2,1.8-1.9c0.5-0.9,0.5-0.9,1.4-0.2
		c1.2,0.9,3.3,1.8,4.5,1.4c1.9-0.4,1.1-2.6,0.9-4c-0.4-2.6-0.7-4.8-0.7-7.4c0-2.7,1.2-3.6,4-2.9c0.4,0.2,1.1,0,1.2-0.2
		c0.7-1.2-0.4-4.1-1.6-4.5c-4.5-1.8-8.6-1.9-13.1,0.5c-3.6,2.2-7.2,3.4-8.8,8.3c-1.6,4.7-1.9,5.5,2.6,8.3c0.5,0.4,1.2,0.7,1.6,1.2
		C71.2,293.9,71.3,294.9,71.5,296z M114.8,314.9L114.8,314.9c0-1.2,0.2-2.7,0-4c-0.2-1.8-0.2-4-1.2-5.2c-2.4-2.7-5.4-4.7-8.1-7
		c-0.4-0.2-0.7-0.4-1.1-0.7c-0.2,0.4-0.4,0.7-0.4,1.1c-0.4,7.9-0.7,15.8-1.1,23.8c0,1.9,1.2,1.8,2.6,1.2c1.2-0.5,2.7-2.2,3.4-1.8
		c1.9,1.1,2.4-0.4,2.9-1.4c0-0.2,0.4-0.4,0.5-0.2c2.7,0.7,2.6-1.2,2.6-2.9C114.8,316.7,114.8,315.9,114.8,314.9z M101.7,334.1
		c0.4-0.2,0.7-0.4,1.1-0.5c3.1-0.9,6.3-1.4,9.3-2.7c2.7-1.1,6.1-1.2,7.6-4.5c0.5-1.2,1.2-2.6,2.4-3.8c1.6-1.9,2.4-4.5,3.4-6.9
		c0.2-0.5-0.2-1.4-0.4-2.2c-0.5,0.2-1.2,0.4-1.8,0.7c-2.4,1.8-2.9,5-6.3,6.1c-1.9,0.5-3.1,3.3-5.5,3.8c-1.9,0.5-3.8,1.6-5.7,1.8
		c-2.9,0.4-3.1,0.4-3.3,3.4c0,1.1,0.5,2.7-1.2,3.3c-0.2,0-0.2,0.5-0.2,0.7C101.2,333.6,101.4,333.9,101.7,334.1z M63.6,257.5
		c0-0.2-0.2-0.4-0.2-0.5c0.4-0.2,1.1-0.4,1.2-0.5c0.2-0.5,0.2-1.2,0.2-1.9c-0.4,0.2-0.9,0.4-1.2,0.4c-0.5,0-1.2-0.4-1.8-0.5
		c-0.7-0.4-1.1-0.9-1.8-1.2c-1.9-0.5-3.8-1.2-5.7-2.4c-4.5-2.6-9.5-4.3-14.3-6.5c-0.5-0.2-1.4,0-2.2,0.2c0.5,0.4,1.1,0.9,1.6,1.2
		c0.4,0.2,0.7,0.4,1.1,0.5c4.8,2.4,9.7,4.8,14.6,7.2c1.2,0.7,2.9,1.2,3.3,3.3c-2.2-1.2-4.1-2.4-5.9-3.4c-0.2,0.2-0.2,0.4-0.4,0.5
		c1.2,1.2,2.6,2.7,4,4.3c-1.1-0.2-1.6-0.5-2.2-0.4c-1.2,0.4-2.4,1.1-3.4,1.6c0,0,0,0.7,0.2,0.9c1.1,0,2.2,0.2,3.3,0
		c0.9-0.2,1.8-0.5,2.6-1.1c0.5-0.4,0.5-1.2,1.1-1.6c1.2-0.7,2.7-1.2,4.1-1.9c0,0,0,0.4,0,0.7c0,3.1,0.5,3.6,3.6,2.7
		c0,0,0.2,0.7,0.4,0.7c0.5,0.4,1.1,0.7,1.6,0.7c0.5,0.2,0.9-0.2,1.4-0.2c-0.4-0.4-0.7-0.9-1.1-1.2c-0.4-0.7-0.9-1.6-1.2-2.4
		c0.5,0.5,1.1,1.1,1.6,1.4c0.7,0.7,2.6,0.9,1.8,2.4c-1.4,2.9,0.5,3.8,2.4,5c0.5,0.4,1.1,0.4,1.6,0.5c-0.4-0.5-0.5-1.2-0.9-1.8
		c-0.2-0.2-0.5-0.4-0.9-0.5c-1.2-1.1-2.2-2.2-0.7-4c0.5-0.5,0.4-2.4,0-2.7c-1.2-0.9-2.9-1.4-4.5-1.8c-0.4,0-0.9,1.2-1.4,1.6
		C64.8,257.3,64.1,257.3,63.6,257.5z M90.4,302.4c0.2,1.6,0,3.3,0.5,4.3c1.4,2.6,3.3,4.7,5,7c0.4,0.4,0.7,0.5,1.2,0.9
		c0.2-0.5,0.4-0.9,0.4-1.4c0.2-5.7,0.5-11.5,0.5-17.2c0-4.5-0.5-4.7-4.3-2.6c-0.4,0.2-1.1,0.4-1.4,0.7c-0.5,0.5-1.2,1.2-1.4,1.9
		C90.5,298.2,90.5,300.4,90.4,302.4z M86.8,328c-0.7-1.2-1.1-2.2-1.8-2.9c-1.1-1.2-1.6-2.4,0-3.6c0.9-0.7,1.4-2.2,1.9-3.1
		c0.7,1.1,1.2,2.4,1.9,3.4c0.2,0.2,0.5,0.4,0.7,0.5c0.2-0.4,0.4-0.5,0.4-0.9c-0.2-3.8-0.4-7.6-0.5-11.4c0-0.4-0.5-0.7-0.9-0.9
		c-0.2,0-0.9,0.5-0.9,0.7c-0.2,1.1,0,2.4,0,3.4c0,0.5-0.4,1.1-0.5,1.6c-0.5-0.2-1.1-0.5-1.6-0.7c-0.4-0.2-0.7-0.5-1.1-0.5
		c-1.6-0.4-2.7,1.6-1.9,3.6c0.4,0.9,1.6,1.4,1.8,2.2c0.2,0.7-1.2,1.4-1.2,2.2c0,2.7,0.5,5.4,0.4,8.1c0,1.8-0.7,3.8-1.1,5.5
		c0,0.4,0.2,0.5,0.2,0.9c0.4-0.2,0.5-0.2,0.9-0.4c0.7-0.5,1.2-1.4,2.2-1.6c0.9-0.2,1.8,0,2.7,0.2c0.4,0,0.7,0.4,0.9,0.7
		c0.2,0.2,0.4,0.5,0.5,0.7c0.2-0.4,0.5-0.7,0.5-1.1c0-3.3,0-6.5,0-9.5c0-0.4-0.2-0.5-0.4-0.9c-0.4,0.2-0.5,0.4-0.9,0.7
		C88.4,325.9,87.7,326.8,86.8,328z M40.5,294.3c0.2-1.2,0.2-1.9,0.2-2.7c-0.7,0.2-1.4,0.5-1.9,0.7c-1.8,0.9-3.6,1.8-5.4,2.6
		c-2.6,0.9-4.7,1.9-3.8,5c-0.9-0.7-1.6-1.8-2.2-1.8c-1.6,0.5-3.4,1.1-4.3,2.4c-0.7,0.9-0.2,2.9-0.2,4.3c1.1-0.4,2.2-0.7,3.3-1.1
		c0.2,0,0.2-0.4,0.4-0.4c4.5-2.7,8.4-6.3,13.6-7.9c0.9-0.4,1.8-0.9,2.7-1.4c0.2-0.2,0-1.1,0-1.6c-0.5,0-1.1,0-1.4,0.4
		C41.2,293.2,41,293.5,40.5,294.3z M18.3,279c0.2-0.2,0.2-0.4,0.4-0.5c3.6-0.4,7.4-0.7,11-1.2c1.6-0.2,1.9-1.2,1.1-2.6
		c-1.4-1.9-3.8-2.4-5.9-2.4c-0.5,0-3.3-0.2-1.4,1.9c-0.4,0-0.7,0.2-1.1,0c-1.4-0.2-2.9-0.7-4.1-0.4c-1.4,0.4-4,0.5-3.6,2.7
		C14.5,277.7,16.9,278.2,18.3,279z M125.8,303.2c0-0.9,0-1.2,0-1.6c-0.2-0.7-0.4-1.4-0.5-2.2c-0.5,0.5-1.2,0.9-1.6,1.6
		c-0.7,1.2-1.1,2.9-2.2,3.6c-2.6,1.4-2.9,3.6-2.9,6.1c0,0.5,0,1.1,0,1.6c-0.4,1.6,0.4,3.8-2.6,4c-0.2,0-0.5,0.9-0.5,1.4
		c0,0.4,0.5,1.1,0.5,0.9c0.5-0.2,1.1-0.4,1.4-0.7c0.7-0.9,1.2-1.8,1.8-2.7c1.1-1.4,3.1-2.9,2.9-4.1c-0.2-1.9,0.9-3.1,1.8-3.8
		C125.7,306.1,125.8,304.6,125.8,303.2z M49.4,254.1c0-0.2,0.2-0.5,0.2-0.7c-0.7-0.5-1.6-1.1-2.4-1.6c-0.5-0.4-1.2-0.4-1.8-0.7
		c-1.6-0.9-3.1-2.2-4.7-2.9c-2.6-1.2-5.2-2.4-7.9-3.3c-0.7-0.2-1.4,0-2.2,0c0,0.7-0.2,1.8,0.2,2.4c0.4,0.7,1.2,1.2,2.2,1.6
		c1.9,0.9,4.1,1.6,6.3,2.4c0.7,0.2,1.9,1.8,1.9-0.5c0.4,0,0.9,0,0.9,0.2c1.2,2.6,4,2.4,5.9,3.4C48.3,254.4,48.8,254.1,49.4,254.1z
		 M46.4,265.1c0-0.2,0-0.5,0-0.7c-2.2-0.4-4.1-0.7-6.1-1.2c-4.8-1.2-9.5-3.1-14.2-4.1c-1.6-0.4-3.6,0.2-5.4,0.5
		c-0.2,0-0.4,0.9-0.5,1.2c0.4,0.2,0.7,0.4,1.1,0.4c1.9,0,4-0.2,5.9-0.4c0.4,0,0.7,0,0.9,0.2c1.2,2.2,1.2,2.4,3.4,2.7
		c4.5,0.7,8.8,1.2,13.3,1.8C45,265.2,45.7,265.1,46.4,265.1z M13.3,284.6v-0.2c-1.8,0.2-3.8,0.5-5.5,0.7c-1.6,0-2.4,0.7-2.4,2.4
		c0,1.1-0.2,2.2-0.2,3.1c0,0.7,0.2,1.4,0.4,2.2c0.7-0.4,1.4-0.5,1.9-0.9c2.6-1.6,5-3.1,7.6-4.7c0.9-0.5,1.6-1.4,2.4-1.9
		c-0.9-0.2-1.9-0.4-2.9-0.4C14.1,284.6,13.6,284.6,13.3,284.6z M19.7,289.3c0,0.2,0.2,0.4,0.2,0.5c3.1-0.9,6.1-1.9,9.2-2.9
		c0.4-0.2,0.5-0.4,0.7-0.7c-0.2-0.4-0.5-0.7-0.7-0.7c-2.4-1.2-4.8-2.4-7.6-0.5c-1.1,0.7-2.6,1.1-3.8,1.6c-0.7,0.4-1.2,1.2-1.8,1.8
		c0.9,0.4,1.6,0.9,2.6,1.1C18.8,289.8,19.3,289.3,19.7,289.3z M129.4,298c-0.4-2.4-0.9-5.7-1.6-9.3c0-0.4-0.4-0.7-0.5-1.2
		c-0.4,0.4-0.9,0.7-0.9,1.1c0,1.4,0.2,2.9,0.4,4.5c0.5,3.3,1.2,6.5,1.2,9.9c0,2.7-0.4,5.5-0.5,8.3c0,0.4,0.4,0.9,0.5,1.2
		c0.4-0.4,0.7-0.5,1.1-0.9c0.2-0.4,0.4-0.9,0.4-1.4C129.4,306.5,129.4,303,129.4,298z M39.5,274.9c0,0.2-0.2,0.4-0.2,0.5
		c-0.7-0.4-1.6-0.7-1.9-1.2c-1.2-1.9-4-2.9-5.9-1.4c-0.2,0.2-0.4,0.5-0.4,0.9c0.5,2.7,1.4,3.3,4.1,3.3c0.9,0,1.8-0.2,2.9-0.4
		c2.2-0.4,4.5-0.7,6.7-1.2c0.4,0,0.7-0.9,0.7-1.4c0-0.4-0.5-0.9-0.9-0.9c-1.4-0.2-2.9-0.2-4.5,0c-0.7,0-1.4,0.4-2.2,0.5
		C38.6,273.9,39,274.4,39.5,274.9z M38.8,278.9c0.7,0,1.4-0.2,1.6,0.2c0.4,0.5,0.5,1.1,0.5,1.8c0,0.4-0.2,0.7-0.4,1.1
		c-0.4-0.4-0.7-0.5-1.1-0.9c-0.2-0.2-0.5-0.4-0.7-0.5c0,0.4,0,0.7-0.2,1.1c0,1.2,0.4,1.8,1.6,1.4c1.8-0.4,3.8-0.4,3.3-3.1
		c-0.2-0.5,0.2-1.2,0.5-1.9c0.7-1.6-0.2-1.8-1.4-1.4c-4.5,1.1-9.2,2.4-13.8,1.9c-0.4,0-0.7,0-1.1,0.2c-0.4,0.4-0.9,0.7-0.9,1.1
		c0,0.4,0.5,0.9,0.9,0.9c1.1,0,2.2-0.2,3.3-0.4C33.9,279.6,36.4,279.1,38.8,278.9z M147,315.7c0.2,0.4,0.4,1.1,0.9,1.2
		c0.4,0.2,1.1-0.4,1.4-0.7c3.1-2.7,4.7-6.3,6.1-9.9c0.2-0.4,0-0.7,0-1.2c-0.4,0.2-0.9,0.2-1.2,0.5c-1.6,1.4-2.9,3.1-4.7,4.1
		C147.4,311.4,147.7,313.5,147,315.7z M22.8,253.6c-0.7,0.4-1.2,0.5-1.8,0.7c0.4,0.5,0.5,1.1,1.1,1.4c0.7,0.5,1.6,1.1,2.6,1.2
		c3.6,1.1,7,2.2,10.7,3.1c0.4,0,0.9,0,0.9,0c0.2-0.5,0.2-1.1,0-1.4c-0.7-1.9-4.1-2.9-6.1-1.8c-0.2,0.2-0.9-0.2-0.9-0.4
		C27.8,253.9,24.6,255.3,22.8,253.6z M117.2,294.1c-1.6-0.9-3.1-1.6-4.7-2.4c-1.4-0.5-3.1-1.2-4.7-1.4c-1.4-0.4-2.4,0.4-1.4,1.8
		c0.7,1.1,1.6,2.4,2.7,3.1c0.9,0.5,2.4,1.1,3.4,0.7C114.1,295.8,115.5,294.9,117.2,294.1z M24.8,271c2.4,1.2,4-1.1,5.9-2.2
		c1.1-0.5,0.5-1.1-0.4-1.2c-2.4-0.2-4.7-0.5-6.9-0.5c-0.9,0-1.9,0.5-2.9,1.1c-0.5,0.4-1.1,1.2-1.1,1.8c0,0.4,1.1,0.9,1.6,0.9
		C22.2,271,23.3,271,24.8,271z M60,288c-4.1,6.1-3.8,12.4-2.9,18.9c0,0.2,0.4,0.5,0.5,0.7c0.2,0,0.5-0.2,0.5-0.4
		c0.2-0.5,0.4-1.2,0.4-1.9c0.2-2.4,0.2-4.8,0.4-7.2C59.3,294.6,59.6,291.5,60,288z M83.4,260.5c-0.4-0.5-0.5-0.9-0.9-1.4
		c-1.8-2.9-4.8-3.8-7.9-4.7c-1.9-0.5-4-1.2-5.7-1.8c-1.1-0.4-2.2-0.7-3.3-0.9c0.7,0.7,1.4,1.8,2.6,2.4c1.2,0.7,2.7,1.6,4,1.6
		c1.9,0,3.6,0,4.5,1.9c0.2,0.4,1.1,0.9,1.4,0.7c1.1-0.4,1.8-0.4,1.6,1.1c1.2,0.2,2.2,0.7,2.9,1.8C82.7,261,83.1,260.7,83.4,260.5z
		 M94.3,233.4c1.1-0.5,1.6-0.9,2.2-1.1c-0.4-0.5-0.7-1.1-1.2-1.4c-1.2-0.5-2.6-1.1-3.8-1.6c-1.9-0.9-3.6-2.6-5.9-1.4
		c-0.4,0.2-1.2-0.4-1.8-0.5c-0.4-0.2-0.7,0-1.1-0.2c0.2,0.4,0.2,0.9,0.4,1.1c1.4,0.9,3.1,1.6,4.5,2.4
		C89.8,231.5,92.2,232.4,94.3,233.4z M55.9,275.4c-1.1,0.2-1.8,0.2-2.6,0.4c0.5,0.7,0.9,1.9,1.4,1.9c1.9,0,4-0.4,5.9-0.7
		c0,0-0.2-0.7-0.2-1.2c0-0.4,0.2-1.1,0.4-1.2c0.7-0.5,1.4-0.7,2.4-1.1c-0.7-0.5-1.4-1.2-2.4-1.6c-0.7-0.4-1.8-0.4-2.6-0.2
		c-0.5,0.2-1.2,0.5-1.6,1.1c-0.2,0.2,0.5,0.9,0.7,1.4c0.2,0.4,0.4,0.9,0.5,1.2c-0.4,0.2-0.7,0.4-1.1,0.4
		C56.6,275.5,56,275.4,55.9,275.4z M7.4,274.9c0.4,0.2,1.1,1.1,1.4,0.9c2.4-0.9,4.7-1.9,7-2.9c0.2-0.2,0.5-0.5,0.5-0.7
		c0-0.2-0.4-0.4-0.7-0.5c-1.4-0.4-3.1-0.5-4.5-1.1c-2.2-1.1-2.9,0-3.4,1.9C7.6,272.9,7.6,273.7,7.4,274.9z M81.9,315.4
		c-0.2-0.7,0-1.4-0.2-1.8c-0.7-0.9-1.4-2.4-2.4-2.7c-1.4-0.4-3.4-0.2-4.5,0.7c-1.8,1.1-0.4,2.9,0,4.5c0.2,0.4,0.7,0.5,1.1,0.9
		c0.2-0.9,0.4-1.9,0.7-2.9v-0.2c0.4-0.5,0.9-1.1,1.2-1.6c0.5,0.5,1.2,0.9,1.6,1.6c0.4,0.7,0.2,1.6,0.4,2.6c0,0.4,0.4,0.9,0.7,1.1
		c0.2,0.2,0.7-0.4,1.1-0.5C81.6,316.2,81.7,315.6,81.9,315.4z M9.1,306.1c2.2-2.6,4.1-4.7,5.9-7c0.4-0.4,0.5-0.9,0.7-1.2
		c-0.5,0-1.1,0-1.6,0c-1.4,0.2-2.9,0.2-4.3,0.7c-0.7,0.2-1.9,1.1-1.9,1.6C8.2,302.1,8.8,304.2,9.1,306.1z M35.7,280.6
		c-2.6,0.5-4.7,1.1-6.7,1.6c-1.1,0.4-1.2,0.7-0.4,1.6c2.4,2.4,4.7,1.4,7,0.5c0.7-0.4,1.2-1.1,1.9-1.6
		C37,282.1,36.2,281.1,35.7,280.6z M55.5,266.5c-0.9-1.6-1.4-2.6-1.9-3.6c-0.2,0.7-0.2,1.4-0.5,2.2c-0.2,0.4-0.7,0.7-1.1,1.1
		c-1.4,1.2-2.9,2.2-4.1,3.6c-0.5,0.5-0.2,1.8-0.2,2.7c0,0.4,0.4,0.7,0.7,1.1c0.4-0.5,0.7-0.9,1.2-1.4c0.4-0.2,0.7-0.5,1.1-0.4
		c0.5,0.2,0.9,0.5,1.4,0.7c-0.2-0.7,0-1.4-0.4-1.9c-0.9-1.6-0.4-2.7,1.4-2.9C54.1,267.3,54.6,266.9,55.5,266.5z M43.1,270.8
		c0-0.2,0-0.5,0-0.7c-0.7,0-1.2,0-1.9,0c-0.5,0-1.2,0.4-1.6,0.2c-2.9-2.7-5.7-2.9-8.4-0.2c-0.2,0.2,0,0.9,0,0.9
		C35,271.3,39.1,272.2,43.1,270.8z M106.9,227.2c0-0.4,0.2-0.5,0.2-0.7c-2.7-3.4-5.5-6.9-8.4-10.2c-0.2-0.2-0.5-0.2-0.9-0.4
		c0,0.2-0.2,0.5-0.2,0.7c0.4,1.1,0.7,2.2,1.4,2.9C101.2,222.6,103.4,225.7,106.9,227.2z M37,302c-0.5-0.2-0.9-0.5-1.2-0.5
		c-1.9-0.4-9.2,3.1-10,5c-0.2,0.4,0,1.1,0.2,1.6c0.2,0.2,0.9,0.2,1.2,0c2.9-1.6,5.9-3.4,8.8-5.2C36.2,302.5,36.4,302.1,37,302z
		 M14.5,250.3c0.4,0.2,0.9,0.7,1.2,0.7c1.6,0.2,3.4,0.2,5.2,0.2c0.4,0,0.7-0.2,1.1-0.4c-0.2-0.4-0.4-0.9-0.7-1.2
		c-0.7-0.7-1.4-1.1-2.2-1.8c-1.1-0.9-1.9-1.8-3.1-2.7c-0.5,1.4-1.1,2.9-1.4,4.3C14.7,249.7,14.7,249.8,14.5,250.3z M107.5,241.3
		c0.4-3.6-3.1-5.7-3.3-9.3c0-1.1-2.9-1.9-4.7-2.9c-0.2,0-0.9,0.7-0.9,0.7c0.5,1.1,1.1,2.6,1.9,3.1c2.2,1.1,3.3,2.7,4.1,4.7
		C105.8,238.7,106.7,240,107.5,241.3z M38.3,258.2c-0.2,0.4-0.5,0.9-0.4,1.1c0.9,0.9,1.6,1.9,2.7,2.4c1.9,0.7,4.3,1.2,6.5,1.8
		c0.5,0.2,1.1,0.2,1.6,0.4c-0.4-0.7-0.7-1.6-1.2-1.9c-2.2-0.9-4.3-1.6-6.5-2.6C40.2,258.9,39.3,258.5,38.3,258.2z M23.8,265.1
		c0-0.2,0-0.2,0-0.4c1.9,0.4,4,0.7,5.7,1.1c0.4,0,0.9,0,1.2-0.2c-0.4-0.4-0.5-1.1-0.9-1.1c-3.3-0.9-6.5-1.6-9.7-2.2
		c-0.4,0-0.9,0.5-1.4,0.9c0.4,0.5,0.5,1.2,0.9,1.4C21.2,265,22.4,265.1,23.8,265.1z M104.1,227.4c0.9,2.7,1.8,5.2,5.2,5.2
		c0.4,0,0.7,0.9,1.1,1.2c0.4,0.5,0.9,0.9,1.4,1.4c0-0.7,0-1.4-0.2-2.2C110.3,229.6,107.7,228.3,104.1,227.4z M63.1,267.3
		c-0.2-0.2-0.4-0.4-0.4-0.5c-0.9,0.7-1.8,1.4-2.7,1.9c0.5,0.7,1.1,1.6,1.8,1.9c0.9,0.4,2.2,0.7,3.1,0.5c0.9-0.2,1.8-1.1,2.7-1.8
		c-0.7-0.7-1.2-1.6-1.9-1.9C64.7,267.3,64,267.3,63.1,267.3z M18.1,283.3c0-0.2,0-0.4,0-0.5c2.6,0.5,4.5-0.4,5.9-2.4
		c0.2-0.2,0.2-0.5,0.4-0.9c-0.4,0-0.5-0.2-0.9-0.2c-1.8,0.4-3.8,0.5-5.4,1.1c-1.2,0.4-2.4,1.1-3.4,1.6
		C15.7,282.5,16.9,282.7,18.1,283.3z M87.7,291.1h-0.2c0,0.2-0.2,0.5,0,0.7c0.2,0.7,0.4,1.2,0.5,1.9c0.5-0.5,1.4-0.9,1.4-1.4
		c0.2-2.6,0-4.8-0.2-7.4c0-0.2-1.1-0.5-1.6-0.5c-0.4,0-0.7,0.9-0.7,1.4C87,287.7,87.4,289.3,87.7,291.1z M66,321.8
		c-0.4-0.4-0.5-0.7-0.9-1.1c-0.7-0.9-1.4-1.8-1.9-2.9c-0.5,0.9-1.2,1.9-1.6,2.9c-0.4,0.7-0.9,1.8-0.7,2.2c0.7,0.7,2.2,1.8,2.7,1.6
		C64.3,324.2,65,322.8,66,321.8z M141.3,305.2c1.8,2.4,3.1,4.7,2.7,7.7c0,0.9,0.2,1.8,0.5,2.7c0.2,0.4,0.7,0.7,1.1,0.9
		c0.2,0,0.7-0.5,0.7-0.9C147.6,311.8,145.5,307.1,141.3,305.2z M102.6,237.2c0.2-1.9-3.1-4.7-4.3-4.3c-0.5,0.2-1.1,0.7-1.4,1.4
		c-0.2,0.2,0.4,0.9,0.5,1.2c1.1,0.9,1.9,1.6,3.1,2.2C101.2,238,102.1,237.5,102.6,237.2z M42.9,301.7c-0.5-0.4-1.1-0.7-1.4-0.5
		c-1.8,0.9-3.8,1.8-5.5,2.7c-0.4,0.2-0.4,1.2-0.7,1.8c0.5,0.2,1.2,0.5,1.8,0.2c1.6-0.7,3.1-1.8,4.7-2.7
		C42.2,303.2,42.4,302.6,42.9,301.7z M38.3,300.7c0.7-0.2,1.1-0.2,1.4-0.2c1.4-0.7,2.7-1.4,4-2.2c0.5-0.4,0.7-0.9,1.1-1.4
		c-0.7-0.2-1.4-0.5-1.9-0.4c-1.4,0.5-2.9,1.2-4.3,1.9c-0.7,0.4-1.2,0.7-1.8,1.1C37.2,300.1,37.7,300.6,38.3,300.7z M71.3,267.5
		c-0.4-0.5-0.4-0.7-0.5-0.9c-1.8-0.9-3.4-1.9-5.2-2.7c-0.5-0.2-1.4,0.9-2.2,1.4c0.7,0.5,1.2,1.1,1.9,1.2c1.1,0.5,2.4,1.1,3.6,1.2
		C69.7,267.9,70.5,267.7,71.3,267.5z M52.9,285.1c-0.4-0.4-0.9-1.8-1.1-1.6c-1.6,0.4-3.1,1.1-4.5,1.6c-0.4,0.2-0.5,0.5-0.9,0.7
		c0.4,0.4,0.7,0.7,1.2,0.7c0.9,0.2,1.8-0.2,2.6,0.2C51.4,287.4,52.8,287,52.9,285.1z M154.8,303.5c-0.9,0-1.4-0.2-1.8,0
		c-1.8,0.5-3.4,1.4-5.2,1.8c-1.6,0.2-1.2,0.4-0.9,1.8c0.7,1.8,1.2,1.4,2.4,0.7c1.2-0.9,2.7-1.8,4-2.7
		C153.7,304.7,153.9,304.2,154.8,303.5z M111.7,229.8c0.9-2.6-0.2-5.9-2.2-7c-0.2-0.2-0.9,0-0.9,0c-0.2,0.9-0.7,2.2-0.4,3.1
		c0.2,0.9,1.6,2.6,1.8,2.6C111.8,227.2,110.9,229.2,111.7,229.8z M95.8,229.8c0.2-0.2,0.4-0.4,0.5-0.5c-0.5-0.7-0.9-1.8-1.8-2.2
		c-2.4-1.2-4.8-2.6-7.4-3.6c-0.7-0.4-1.6-0.2-2.6-0.4c0.7,0.5,1.2,1.4,1.9,1.6C90.2,225.7,93.3,227.2,95.8,229.8z M107.1,221.1
		c-0.9-2.9-2.6-4.8-4.7-6.7c-0.2-0.2-1.1,0.2-0.9,0.2c0,0.7,0,1.4,0.4,2.2c0.2,0.2,0.9,0.2,1.4,0.4c0.4,0.2,0.9,0.2,0.9,0.5
		c0.5,1.1,0.9,2.4,1.4,3.4c0.2,0.5,0.5,1.1,0.9,1.6C106.5,222.4,106.9,221.8,107.1,221.1z M95.6,261c-0.5-0.2-0.7-0.5-0.9-0.4
		c-2.4,0.9-4.5,1.6-6.9,2.7c-0.4,0.2-0.2,1.1-0.4,1.8c0.5,0,1.1,0.4,1.4,0.2c1.8-0.9,3.4-1.9,5-3.1C94.5,262,94.8,261.6,95.6,261z
		 M12.2,326.3c0.2,0,0.4,0,0.7,0c-0.4-3.3-0.5-6.5-0.9-9.5c0-0.4-0.4-0.5-0.5-0.7c-0.2,0.4-0.7,0.5-0.7,0.9
		C10.4,320.1,10.9,323.2,12.2,326.3z M48.5,275c0-0.2,0-0.4-0.2-0.4c-0.9,0.4-1.8,0.5-2.6,1.1c-0.4,0.2-0.2,1.6,0,1.6
		c0.9,0.4,2.6,0.7,2.7,0.4c0.7-1.6,2.2-1.2,3.4-1.2c0.2,0,0.5-0.7,0.4-1.1c0-0.2-0.5-0.5-0.9-0.5C50.5,274.7,49.4,274.9,48.5,275z
		 M117.2,297c-3.6-0.7-5.7,2.2-4.3,5.4c0.2,0.4,0.5,0.5,0.9,0.7c0-0.4,0-0.7,0.2-0.9C115,300.4,113.9,297.5,117.2,297z M97.2,330.4
		c0,0.5-0.4,1.2-0.2,1.8c0,0.4,0.7,1.1,1.1,1.1c0.5,0,1.4-0.4,1.6-0.7c0.2-0.5-0.2-1.1-0.4-1.8c-1.6,0.5-0.7-0.5-0.7-1.1
		c0.2-0.7,0.2-1.6,0.2-2.4c0-0.4-0.4-0.7-0.5-0.9c-0.2,0.4-0.7,0.5-0.7,0.9C97.2,328.3,97.2,329.4,97.2,330.4z M81.9,264.7
		c-1.6-1.2-2.9-2.4-4.3-3.6c-0.2,0.4-0.9,0.9-0.7,1.1c0.7,1.1,1.2,2.2,2.2,3.3c0.4,0.4,1.2,0.4,1.8,0.4
		C81,265.8,81.2,265.2,81.9,264.7z M116,311.8c0,0.2,0,0.9,0.2,1.4c0,0.4,0.5,0.5,0.9,0.7c0.2-0.4,0.4-0.5,0.5-0.9
		c0.2-1.9,0.5-4,0.5-5.7c0-0.5-0.9-0.9-1.2-1.4c-0.2,0.5-0.5,0.9-0.5,1.4C116,308.7,116,309.9,116,311.8z M112.2,231
		c0.2,1.1,0.4,1.8,0.7,2.6c0.4,0.5,0.9,0.9,1.4,1.4c0-0.5,0.2-1.2,0.2-1.8c0-0.4-0.2-0.9,0-1.2c0.9-1.6,0.2-2.6-1.1-3.4
		C112.9,229.3,112.5,230.3,112.2,231z M40.4,266.6c-0.9-0.5-1.1-0.7-1.4-0.9c-1.4-0.4-3.1-0.7-4.5-0.9c-0.5,0-1.2,0.4-1.8,0.7
		c0.5,0.4,1.1,1.1,1.8,1.2c1.2,0.4,2.7,0.4,4.1,0.4C38.8,267.2,39.3,266.9,40.4,266.6z M56.7,282.7c-1.1,1.2-1.9,1.9-2.7,2.9
		c0.5,0.4,1.4,1.2,1.6,1.2c0.9-0.7,1.8-1.6,2.6-2.6C58.1,284.2,57.4,283.5,56.7,282.7z M64.3,250.3c-0.4-1.6-5-3.8-6.1-3.1
		c-0.2,0,0,0.7,0,0.9c1.6,0.9,3.4,1.8,5,2.6C63.6,250.8,64,250.3,64.3,250.3z M55,283c0.9-0.9,1.8-1.6,2.6-2.4
		c-0.4-0.4-0.9-1.1-1.1-1.1c-1.2,0.5-3.3-0.2-3.3,2.2C53.1,282,54.1,282.2,55,283z M39.8,241.1c0,0.4-0.2,0.5-0.2,0.9
		c1.9,0.9,4.1,1.8,6.1,2.7c0.4,0.2,0.7,0,1.2,0c-0.2-0.4-0.4-1.1-0.5-1.2C44.3,242.6,42,242,39.8,241.1z M61.4,264.2
		c0.5-0.5,1.4-1.1,2.2-1.6c-1.1-0.5-2.2-1.2-3.4-1.2c-0.4,0-0.9,1.4-1.4,2.2C59.6,263.7,60.3,263.8,61.4,264.2z M80.3,270.8
		c-0.7-0.7-1.1-1.2-1.4-1.8c-0.4-0.4-0.4-0.9-0.7-1.4c-0.5,0.7-1.1,1.4-1.8,2.2c0.7,0.7,1.4,1.4,2.4,1.8
		C79.1,271.7,79.6,271,80.3,270.8z M122.6,233.4c-0.4,0.5-0.9,0.9-0.9,1.2c-0.4,1.4-0.7,3.1-0.7,4.5c0,0.5,0.7,1.1,1.1,1.4
		c0.2,0.2,0.7,0,0.9,0c0-0.4-0.2-0.9-0.2-0.9c-2.2-0.5-0.9-1.6-0.5-2.7c0.2-0.9,0.5-1.6,0.7-2.6
		C123.1,234.1,122.7,233.9,122.6,233.4z M10.5,259.7c0.7,0.9,1.2,1.8,1.6,1.8c0.9-0.2,1.8-0.9,2.7-1.2c-0.9-0.5-1.9-1.2-2.9-1.6
		C11.8,258.4,11.2,259,10.5,259.7z M72.9,307.3c1.9,1.9,4,2.6,6.1,2.2c0.4,0,0.5-0.5,0.9-0.7c-0.2-0.2-0.5-0.5-0.7-0.5
		C77.2,307.8,75.3,307.7,72.9,307.3z M117.9,236.5c-0.4,0-0.7,0-0.9,0c0,1.6,0,3.4,0,5c0,0.4,0.5,0.7,0.9,1.1
		c0.2-0.4,0.5-0.7,0.5-0.9C118.3,240,118.1,238.4,117.9,236.5z M94.8,264.2c-0.4-0.2-0.7-0.5-0.7-0.4c-1.4,1.2-2.7,2.6-4.1,3.8
		c0,0,0.2,0.5,0.2,0.7c0.4,0,0.7,0,0.9-0.2c1.1-0.9,2.2-1.9,3.3-2.9C94.5,265,94.5,264.6,94.8,264.2z M56,260.1
		c-0.5,0.9-1.1,1.6-0.9,1.9c0.4,0.9,1.1,1.6,1.6,2.4c0.5-0.5,1.4-1.2,1.2-1.8C57.9,262,56.9,261.2,56,260.1z M87.5,269.7
		c-1.1,0.7-1.9,1.1-2.7,1.6c1.1,0.4,2.4,0.9,3.4,1.2c0.2,0,0.9-0.9,0.7-1.2C88.8,270.6,88.1,270.2,87.5,269.7z M99.4,315.9
		c0.5,0.9,0.9,1.6,1.2,2.4c0.4-0.7,1.1-1.4,1.1-2.2c0-0.7-0.5-1.4-0.9-2.4C100.3,314.4,100,315,99.4,315.9z M96.3,283.2
		c-0.2-0.4-0.4-0.7-0.7-0.9c-0.2,0-0.5,0-0.7,0.2c-0.9,1.2-1.6,2.4-2.4,3.8c0,0.2,0.5,0.5,0.9,0.9C94.3,285.6,95.3,284.3,96.3,283.2
		z M87.9,283.7c0.9-0.5,1.6-1.1,2.2-1.6c-0.7-0.4-1.4-1.1-2.4-1.1c-0.5,0-1.1,0.9-1.6,1.2C86.6,282.7,87.2,283.2,87.9,283.7z
		 M81.9,267.2c-0.4,0.5-0.9,0.7-0.9,0.9c0.2,1.1,0.5,1.9,0.9,3.1c0.7-0.7,1.4-1.2,2.2-1.9C83.6,268.6,82.9,267.8,81.9,267.2z
		 M101,281.5c-0.4,0-0.5,0.2-0.9,0.2c-0.2,0.5-0.5,1.2-0.4,1.6c0.4,0.7,1.1,1.2,1.6,1.9c0.4-0.4,1.2-1.1,1.2-1.2
		C102.2,283.3,101.5,282.5,101,281.5z M93.4,289.3c-0.5-0.7-0.9-1.2-1.2-1.8c-0.4,0.5-1.1,1.2-1.1,1.8c0,0.9,0.7,1.9,1.1,2.9
		C92.4,291.4,92.9,290.8,93.4,289.3z M45.8,280.2c0.2-0.2,0.4-0.4,0.5-0.5c-0.2-0.4-0.4-0.7-0.5-1.1c-0.4,0.4-0.9,0.7-0.9,1.1
		c-0.4,1.6,0.5,2.7,1.9,3.3c0.4,0.2,0.9,0,1.2,0c-0.2-0.4-0.4-0.9-0.5-1.2C47.1,281.1,46.4,280.8,45.8,280.2z M61.2,305.1
		c0.7,0.9,1.4,1.6,2.2,2.4c0.2-0.4,0.7-0.7,0.7-0.9c-0.5-1.1-1.1-2.2-1.6-3.1C62.2,303.8,61.8,304.2,61.2,305.1z M119,294.6
		c1.4,0.5,2.2,0.9,2.9,1.2c0.5,0.2,0.9,0.5,1.4,0.7c0.2-0.7,0.5-1.4,0.7-2.2c-0.5-0.2-1.2-0.7-1.8-0.5
		C121.3,293.9,120.5,294.3,119,294.6z M28,243.3c0.7-0.5,1.1-0.9,1.6-1.2c-0.5-0.7-1.2-1.6-1.8-2.4c-0.5,0.5-1.1,1.1-1.6,1.8
		C26.5,242.1,27.3,242.6,28,243.3z M25.8,341.3c0-0.4,0.2-0.9,0-1.2c0-0.4-0.4-0.7-0.5-1.2c-0.2,0.4-0.5,0.7-0.5,1.2
		c0,0.9,0,1.8,0,2.6c0,0.7,0,1.6,0,2.4c0.4-0.9,0.7-1.8,0.9-2.7C26,342,25.8,341.6,25.8,341.3z M172.7,282.7
		c-0.4-0.9-0.7-1.8-1.1-2.6c-0.2-0.4-0.5-0.4-0.9-0.5c0,0.4-0.2,0.7,0,1.2c0,0.5,0.4,0.9,0.2,1.4c0,0.5-0.4,0.9-0.7,1.2
		c0.5,0.2,1.1,0.5,1.4,0.4C172,283.7,172.4,283.2,172.7,282.7z M15.5,306.2c-0.9-0.7-1.4-1.1-1.8-1.4c-0.4,0.9-0.9,1.6-1.2,2.6
		c0,0.2,0.5,0.7,0.7,1.1C14,307.9,14.5,307.5,15.5,306.2z M29.1,309c0.2,0.2,0.4,0.4,0.4,0.5c1.2-0.7,2.7-1.4,4-2.4
		c0.4-0.2,0.4-0.9,0.5-1.2c-0.5,0-1.1-0.2-1.4,0C31.4,307.1,30.3,308.2,29.1,309z M58.1,245.7c0-0.2,0-0.5,0-0.7
		c-1.1-0.2-1.9-0.4-3.1-0.5c-0.4,0-0.9,0.4-1.2,0.7c0.9,0.4,1.8,1.1,2.7,1.2C56.7,246.4,57.4,246,58.1,245.7z M60.5,304.8
		c-0.2,0-0.5,0-0.7,0c0,1.6,0,3.4,0,5c0,0.4,0.4,0.5,0.5,0.7c0.2-0.4,0.7-0.7,0.5-0.9C60.9,308.4,60.7,306.5,60.5,304.8z
		 M145.8,328.3c0.7-0.9,1.2-1.4,1.6-1.8c-0.5-0.4-1.1-1.1-1.6-1.2c-0.4,0-1.1,0.9-1.2,1.4C144.5,326.9,145.3,327.4,145.8,328.3z
		 M10.7,260.7c-0.5-0.9-0.9-1.6-1.2-2.2c-0.5,1.1-0.9,1.9-1.2,3.1c0,0.2,0.5,0.5,0.7,0.9C9.5,262.1,10,261.6,10.7,260.7z
		 M75.7,268.8c-0.2-0.4-0.5-0.7-0.7-0.9c-0.4-0.2-0.7-0.5-0.9-0.5c-0.7,0.5-1.4,1.1-2.2,1.8c0.5,0.4,0.9,0.9,1.2,0.9
		C74,270,74.8,269.3,75.7,268.8z M156.2,306.9c0.4,0.2,0.5,0.2,0.9,0.4c0.7-1.2,1.2-2.6,1.8-3.8c0.2-0.4-0.2-0.7-0.2-1.1
		c-0.4,0.2-0.9,0.4-1.1,0.7C157.1,304.2,156.7,305.6,156.2,306.9z M108.4,238.2c0.2-0.2,0.5-0.4,0.5-0.5c-0.9-1.4-1.6-2.7-2.6-4.1
		c-0.2,0.2-0.5,0.4-0.5,0.4C106.7,235.4,107.7,236.8,108.4,238.2z M9.7,295.4c-0.7-0.7-1.1-1.1-1.4-1.6c-0.5,0.5-1.1,1.1-1.4,1.8
		C6.6,296,7.5,296.5,8,297C8.4,296.5,8.8,295.9,9.7,295.4z M69.7,307.9c0-0.2,0-0.4,0-0.7c-1.1-0.4-2.2-0.9-3.3-1.2
		c-0.2,0-0.5,0.4-0.9,0.7c0.9,0.5,1.6,1.2,2.6,1.6C68.6,308.5,69.1,308.2,69.7,307.9z M63.8,274.9c-0.4,0.7-0.9,1.4-0.9,1.6
		c0.7,0.7,1.6,1.2,2.6,1.9c0.2,0,0.5-0.4,0.9-0.7C65.5,276.7,64.8,275.8,63.8,274.9z M120.1,253.6c0.9-0.4,1.4-0.7,1.9-0.9
		c-0.7-0.4-1.2-0.9-1.9-0.9c-0.7,0-1.4,0.2-1.9,0.4C118.6,252.7,119.3,253.2,120.1,253.6z M22.8,324.4c-0.2-0.2-0.5-0.2-0.7-0.4
		c-0.5,1.1-1.1,2.2-1.4,3.4c-0.2,0.4,0,0.7,0,1.1c0.4-0.2,0.9-0.4,1.1-0.5C22.1,326.9,22.4,325.8,22.8,324.4z M51.9,244.3
		c0.5-0.2,1.1-0.5,1.6-0.7c-0.5-0.2-1.1-0.4-1.8-0.5c-0.5-0.2-0.9-0.4-1.4-0.5c-0.5,0-0.9,0.2-1.4,0.4c0.4,0.4,0.5,0.9,0.9,1.2
		C50.5,244.1,51,244.1,51.9,244.3z M50.7,280.5c0-0.2,0-0.5,0-0.7c-0.5-0.2-1.1-0.5-1.6-0.5c-0.5,0.2-1.1,0.7-1.6,0.9
		c0.5,0.4,0.9,1.1,1.4,1.1C49.4,281.3,50,280.8,50.7,280.5z M57.9,288.8c-0.5-0.4-0.9-0.7-1.1-0.5c-0.7,0.4-1.4,0.9-2.2,1.2
		c0.4,0.4,1.1,1.1,1.2,1.1C56.6,290.1,57.1,289.6,57.9,288.8z M44.9,294.5c0.9-0.7,1.9-1.2,1.9-1.8c0-0.7-0.7-1.6-1.2-2.4
		c-0.4,0.9-0.7,1.8-0.9,2.9C44.7,293.5,44.9,293.9,44.9,294.5z M111.8,251.5c0.5-0.4,0.9-0.5,1.2-0.9c-0.7-0.4-1.6-0.7-2.4-0.9
		c-0.5,0-1.1,0.4-1.6,0.5C110.2,250.5,110.9,251.1,111.8,251.5z M76.2,265c0-2.2-1.9-2.7-4-3.4C73.6,262.7,75,263.8,76.2,265z
		 M147.4,320.3c-0.5-0.7-0.9-1.1-1.2-1.6c-0.4,0.9-0.9,1.6-1.1,2.6c0,0.2,0.5,0.7,0.9,1.1C146.5,321.8,146.9,321.2,147.4,320.3z
		 M120.6,301c1.2-1.4,1.4-2.9-0.2-4.1c-0.2-0.2-0.5-0.2-0.9-0.2c0,0-0.2,0.4-0.2,0.5C119.7,298.6,120.1,299.6,120.6,301z M6.7,282.7
		c-0.7-0.7-1.2-1.1-1.6-1.4c-0.5,0.5-1.1,1.1-1.4,1.6c0,0.2,0.7,1.1,1.1,1.1C5.5,283.7,5.9,283.2,6.7,282.7z M60,303.2
		c0.2,0,0.2,0,0.4,0c0-1.8,0-3.6,0-5.4c-0.2,0-0.2,0-0.4,0C60,299.6,60,301.3,60,303.2z M166.3,307.5c-0.2-0.4-0.5-0.7-0.7-1.1
		c-0.4-0.2-0.7-0.4-0.7-0.4c-0.7,0.7-1.6,1.4-2.2,2.4l0.5,0.9C164.1,308.7,165.2,308.2,166.3,307.5z M60.5,259c0-0.2,0-0.4,0-0.5
		c-0.9,0-1.6,0-2.6,0.2c-0.4,0.2-0.5,0.9-0.7,1.4c0.5,0.2,1.1,0.4,1.6,0.2C59.5,260.1,60,259.4,60.5,259z M155.7,330
		c0.4,0.7,0.7,1.1,0.9,1.6c0.4-0.9,0.7-1.6,0.9-2.6c0-0.4-0.2-0.9-0.4-1.2C156.5,328.7,156,329.2,155.7,330z M88.4,323.8
		c-0.2,0-0.5-0.2-0.7-0.2c0-0.5-0.2-1.1-0.2-1.8l-0.2-0.2c-0.4,0.2-0.9,0.4-1.1,0.5c-0.2,0.7-0.2,1.4,0,1.9c0,0.4,0.9,0.7,1.1,0.5
		C87.9,324.7,88.1,324.2,88.4,323.8z M104.8,293.5c-0.2,2.6,0.4,3.4,3.1,4C106.7,296,105.8,295,104.8,293.5z M83.1,263.2
		c-0.2,0.9-0.5,1.2-0.4,1.6c0.5,0.7,1.1,1.2,1.6,1.9c0.2-0.4,0.7-0.7,0.5-0.9C84.5,265,83.9,264.4,83.1,263.2z M21.5,322.2
		c0.9-0.9,1.6-1.8,2.2-2.6l-0.5-0.5c-0.7,0.7-1.6,1.4-2.2,2.2C21,321.2,21.4,321.6,21.5,322.2z M66.9,276c0.2,0,0.5,0,0.7,0
		c0-0.9,0-1.8,0-2.7c-0.7,0-1.2,0-1.9,0C66,274.1,66.5,275,66.9,276z M158.7,323.8c-0.5-0.5-0.7-1.1-1.1-1.4
		c-0.4,0.7-0.9,1.2-1.1,1.9c0,0.4,0.4,0.9,0.7,1.2C157.7,324.9,158.2,324.3,158.7,323.8z M161.4,265.2c-0.7-0.5-1.4-1.1-1.4-0.9
		c-0.5,0.5-1.1,1.1-1.6,1.8c0.4,0.2,0.7,0.7,1.1,0.5C160,266.5,160.5,265.8,161.4,265.2z M78.4,320.8c-0.4,0-0.7,0-0.9,0
		c0.2,1.4,0.4,3.1,0.5,4.5c0.2,0,0.4,0,0.7,0C78.6,323.7,78.4,322.2,78.4,320.8z M74,255.9c-0.5,0.7-1.2,1.2-1.1,1.2
		c0.4,0.5,0.9,1.1,1.4,1.6c0.2,0,0.9-0.4,0.9-0.5C75,257.7,74.6,256.9,74,255.9z M69.3,271.8c0.5-0.5,0.9-0.9,1.2-1.4
		c0-0.2-0.4-0.5-0.5-0.9c-0.5,0.4-1.2,0.9-1.8,1.2C68.4,271,68.8,271.3,69.3,271.8z M9.7,266.8c-0.7-0.4-1.2-0.9-1.4-0.7
		c-0.5,0.2-0.9,0.7-1.4,1.1c0.4,0.2,0.7,0.7,1.1,0.7C8.4,267.7,9,267.3,9.7,266.8z M62.9,283.3c-0.9-0.5-1.4-1.2-1.6-1.1
		c-0.5,0.2-0.9,0.9-1.4,1.2c0.4,0.2,0.9,0.7,1.2,0.7C61.6,284.1,62,283.7,62.9,283.3z M167.2,298.4c0-0.2,0-0.4,0.2-0.5
		c-0.5-0.4-1.2-0.9-1.8-1.1c-0.4-0.2-0.7,0.4-1.2,0.5c0.4,0.4,0.9,0.9,1.4,1.1C166.1,298.9,166.7,298.4,167.2,298.4z M52.8,263.4
		c-0.9-0.4-1.4-0.9-1.8-0.9c-0.4,0.2-0.7,0.7-1.1,1.1c0.5,0.2,0.9,0.5,1.4,0.5C51.7,264.2,52.1,263.8,52.8,263.4z M157.1,336.1
		c-0.4-0.5-0.5-1.1-0.7-1.6c-0.4,0.7-0.7,1.2-0.9,1.9c0,0.5,0.4,0.9,0.5,1.4C156.4,337.2,156.7,336.7,157.1,336.1z M170.5,303.7
		c-0.9-0.4-1.2-0.7-1.4-0.5c-0.5,0.4-1.1,0.9-1.4,1.4c0,0,0.5,0.7,0.5,0.5C168.6,304.7,169.3,304.4,170.5,303.7z M22.1,330.8
		c-0.4-0.5-0.7-0.7-0.9-1.1c-0.4,0.5-0.9,0.9-1.2,1.4c0,0.2,0.5,0.7,0.7,0.9C21.2,331.9,21.5,331.3,22.1,330.8z M65,281.1
		c-0.4-0.4-0.9-0.7-0.9-0.7c-0.5,0.4-0.9,0.7-1.2,1.2c0,0.2,0.5,0.7,0.7,1.1C64.1,282.2,64.5,281.6,65,281.1z M72.1,273.4
		c-0.5-0.4-0.7-0.7-1.1-0.9c-0.4,0.5-0.7,0.9-1.2,1.4c0.4,0.2,0.7,0.7,0.9,0.7C71,274.4,71.3,273.9,72.1,273.4z M73.8,273.2
		c0.7-0.5,1.2-0.9,1.6-1.2c-0.4-0.2-0.9-0.9-1.1-0.7c-0.5,0.2-0.9,0.7-1.2,1.1C73.1,272.4,73.5,272.7,73.8,273.2z M59.5,282.2
		c0.4-0.7,0.9-1.2,0.9-1.6c0-0.4-0.4-0.9-0.7-1.2c-0.4,0.4-0.9,0.5-0.9,0.9C58.8,281,59.1,281.2,59.5,282.2z M56,270.2
		c0.5-0.7,1.1-1.2,1.2-1.8c0-0.2-0.7-0.7-0.7-0.7c-0.5,0.4-1.1,0.7-1.4,1.1C55.2,268.7,55.7,269.3,56,270.2z M51,246.1
		c-0.2,0.2-0.2,0.4-0.4,0.7c1.1,0.5,2.2,0.9,3.3,1.4c0.2-0.2,0.2-0.5,0.4-0.7C53.3,247,52.1,246.7,51,246.1z M22.1,315.9
		c-0.7-0.4-1.1-0.7-1.4-0.7c-0.4,0-0.7,0.5-0.9,0.9c0,0.4,0.5,0.9,0.5,0.9C21,316.7,21.4,316.5,22.1,315.9z M24,342.1
		c-0.4,0-0.7-0.2-0.9-0.2c-0.2,0.9-0.4,1.8-0.5,2.7c0,0,0.4,0.2,0.4,0C23.3,343.8,23.6,343,24,342.1z M158.9,319.7
		c0.2-1.1,0.5-1.6,0.5-2.2c0-0.2-0.4-0.5-0.5-0.7c-0.4,0.5-0.7,1.2-0.9,1.8C158,318.7,158.4,319.1,158.9,319.7z M12.9,254.9
		c-0.5-0.5-0.9-0.9-1.1-0.9c-0.5,0.2-0.9,0.5-1.4,0.7c0.2,0.4,0.5,0.9,0.7,0.9C11.6,255.6,12,255.3,12.9,254.9z M103.4,240.9
		c-0.4,0.4-0.5,0.7-0.5,0.7c0.4,0.7,0.9,1.2,1.4,1.9c0.2-0.2,0.5-0.4,0.5-0.5C104.4,242.3,104.1,241.6,103.4,240.9z M111.7,300.3
		c-0.9-0.7-1.6-1.1-2.2-1.4c-0.2,0-0.4,0.4-0.7,0.4c0.5,0.5,1.1,1.1,1.6,1.4C110.5,300.7,110.9,300.4,111.7,300.3z M54.8,271.4
		c-0.4,0.4-0.7,0.7-0.9,0.9c0.5,0.2,0.9,0.5,1.4,0.7c0.2,0,0.5-0.5,0.7-0.7C55.5,271.9,55.2,271.8,54.8,271.4z M93.8,281.6
		c0.4-0.5,0.7-1.1,0.7-1.4c0-0.2-0.4-0.5-0.5-0.7c-0.5,0.4-0.9,0.9-1.4,1.2C92.9,281.1,93.1,281.2,93.8,281.6z M159.4,313
		c0.4,0.2,0.9,0.5,0.9,0.5c0.5-0.5,0.9-0.9,1.2-1.4c0-0.2-0.4-0.5-0.5-0.7C160.5,311.8,160,312.3,159.4,313z M125.1,309.8
		c-0.5,0.7-0.9,1.1-1.1,1.6c0,0,0.7,0.7,0.7,0.5c0.4-0.2,0.7-0.5,0.9-0.9C125.8,310.8,125.5,310.3,125.1,309.8z M72.9,311.4
		c-0.9-0.5-1.2-0.9-1.9-1.1c-0.2,0-0.5,0.4-0.7,0.5c0.5,0.4,0.9,0.9,1.4,1.1C71.9,312,72.2,311.6,72.9,311.4z M131.5,300.6
		c0.2-0.9,0.4-1.4,0.2-1.8c0-0.4-0.5-0.5-0.9-0.7c-0.2,0.4-0.5,0.7-0.5,0.9C130.7,299.4,131,299.6,131.5,300.6z M30.9,238.7
		c-0.5-0.4-0.9-0.9-1.1-0.9c-0.4,0-0.7,0.4-1.1,0.7c0.2,0.2,0.5,0.7,0.7,0.7C29.8,239.2,30.2,238.9,30.9,238.7z M63.1,278.9
		c-0.7-0.2-1.1-0.5-1.4-0.5c-0.2,0-0.7,0.5-0.7,0.7c0,0.4,0.4,0.7,0.5,1.1C61.8,279.9,62,279.6,63.1,278.9z M100.5,244.7
		c-0.7-0.5-1.2-0.9-1.8-1.1l-0.4,0.4c0.4,0.5,0.9,0.9,1.2,1.4C99.8,245.4,100.1,245.1,100.5,244.7z M45.5,300.7
		c-0.5-0.2-0.7-0.4-0.9-0.5c-0.2,0.5-0.5,0.9-0.7,1.4l0.4,0.4C44.5,301.6,44.9,301.3,45.5,300.7z M103.7,292.7
		c0.4-0.5,0.7-0.9,0.7-0.9c-0.2-0.5-0.5-0.9-0.9-1.4c-0.2,0.2-0.5,0.4-0.5,0.5C102.9,291.4,103.4,291.8,103.7,292.7z M49,290
		c-0.4,0.5-0.7,0.7-0.7,0.9c0.2,0.5,0.5,0.9,0.7,1.4c0.2-0.2,0.5-0.5,0.5-0.7C49.6,291.1,49.4,290.5,49,290z M92.9,256.9
		c-0.7-0.4-0.9-0.7-1.1-0.7c-0.5,0.2-0.9,0.5-1.4,0.7c0.2,0.2,0.4,0.4,0.5,0.4C91.3,257.5,91.9,257.3,92.9,256.9z M47.9,289.3
		c0.5-0.4,0.9-0.7,1.2-0.9c-0.4-0.2-0.7-0.7-0.9-0.7c-0.4,0.2-0.7,0.5-0.9,0.9C47.2,288.7,47.6,289.1,47.9,289.3z M85.3,307.3
		c-0.2-0.4-0.4-0.5-0.5-0.7c-0.2,0.2-0.5,0.5-0.5,0.7s0.4,0.5,0.4,0.7C84.8,307.8,85,307.7,85.3,307.3z M23.6,323.8
		c0.4-0.4,0.9-0.5,0.7-0.7c0-0.4-0.4-0.7-0.5-0.9c-0.2,0-0.7,0.4-0.7,0.4C23.1,322.8,23.3,323.2,23.6,323.8z M24.8,334.5
		c-0.4,0.4-0.5,0.7-0.7,1.1l0.4,0.4c0.4-0.2,0.5-0.4,0.9-0.7C25.3,335.1,25.1,334.9,24.8,334.5z M20.3,244.1
		c-0.5-0.2-0.9-0.5-1.1-0.4c-0.4,0.2-0.5,0.5-0.9,0.7c0.2,0.2,0.5,0.5,0.7,0.5C19.2,244.9,19.5,244.7,20.3,244.1z M93.6,277.5
		c-0.5-0.2-0.9-0.4-1.2-0.5c-0.2,0-0.4,0.4-0.4,0.5c0.4,0.2,0.7,0.4,1.1,0.5C93.3,278.2,93.4,278,93.6,277.5z M13.8,248.2
		c0.4-0.7,0.5-1.2,0.7-1.6c0,0-0.4-0.2-0.5-0.4c-0.2,0.4-0.4,0.7-0.5,1.1C13.3,247.4,13.4,247.9,13.8,248.2z M47.9,298.6
		c-0.4-0.4-0.5-0.7-0.9-0.9c0,0-0.4,0.2-0.5,0.4c0.2,0.4,0.5,0.7,0.7,0.9C47.2,299,47.6,298.9,47.9,298.6z"/>
	<path fill="#FFFFFF" d="M133.2,339.9c0.5-6.7,1.1-13.3,1.6-20.2c0.2-1.4-0.4-2.9-0.5-4.1c0-0.7-1.1-2.4,1.1-1.9
		c0.2,0,0.5-1.4,0.7-2.4c0.2-0.5,0.5-0.9,0.7-1.4c0.4,0.5,0.9,1.1,0.9,1.6c-0.2,1.9-0.5,4-0.7,5.9c-0.4,3.3-0.9,6.3-1.2,9.5
		c-0.4,4.1-0.4,8.4-0.5,12.6c0,1.2-0.2,2.6-0.5,3.8c-0.2,0.5-0.5,0.9-0.7,1.2c-0.4-0.5-1.1-1.1-1.2-1.6
		C132.7,342.1,132.9,341.1,133.2,339.9C133,339.9,133,339.9,133.2,339.9z"/>
	<path fill="#FFFFFF" d="M34.5,315.9c0.2,1.8,0.4,3.6,0.7,5.7c-0.4-0.2-0.7-0.4-1.1-0.5c-0.7-0.4-1.2-0.5-1.9-0.9c0,0.7,0,1.6,0,2.4
		c0,0.2,0.2,0.4,0.2,0.4c0.2,0.7,0.5,1.4,0.7,2.2c-1.1,0-2.2,0.2-3.1-0.2c-0.4-0.2-0.4-1.2-0.5-1.9c-0.2-0.9-0.4-1.8-0.7-2.6
		c-0.7-1.2-1.8-2.4,0.2-3.3c0.4-0.2,0.4-1.1,0.5-1.6c0.2-0.5,0.4-1.4,0.9-1.8c0.5-0.5,1.4-0.7,2.2-0.9c-0.2,0.7-0.4,1.2-0.4,1.9
		c0,0.5,0,1.2,0,1.8C32.9,316.2,33.8,316.1,34.5,315.9z"/>
	<path fill="#FFFFFF" d="M30.5,344.4c-0.2-0.7-0.2-1.2-0.4-1.6c-0.4-0.9-1.4-2.4,0.4-2.7c1.4-0.4,3.1,0.2,4.7,0.4
		c-0.2,0.5-0.4,1.1-0.4,1.6c-0.2,0.5-0.2,0.9-0.2,1.4c0.5,0,0.9,0,1.4,0c0.7-0.2,1.2-0.4,1.9-0.4c0,0.7,0.4,1.6,0,2.4
		c-0.2,0.4-1.2,0.4-1.8,0.4c-1.6,0.2-3.4,0.2-5,0.4c-0.7,0-1.6,0-2.2-0.4c-0.4-0.2-0.5-1.1-0.9-1.6c0.5,0,1.1,0,1.6,0
		C29.8,343.8,30,344.1,30.5,344.4z"/>
	<path fill="#FFFFFF" d="M67.4,341.3c-2.7-0.2-5.4-0.4-8.1-0.4c0-0.2,0-0.2,0-0.4c2.7,0,5.4,0,8.1,0
		C67.4,340.8,67.4,341.1,67.4,341.3z"/>
	<path fill="#FFFFFF" d="M64.8,342.8c-1.9,0.2-4.1,0.4-6.1,0.5c-0.2,0-0.4-0.2-0.5-0.4c0.2-0.2,0.4-0.5,0.7-0.5c1.9,0,4.1,0,6.1,0
		C64.8,342.5,64.8,342.7,64.8,342.8z"/>
	<path fill="#FFFFFF" d="M32.1,328.2c0.4,0.4,0.5,0.5,0.7,0.7c-0.9,0.7-1.6,1.2-2.6,1.9c-0.2-0.4-0.5-0.9-0.7-1.2
		C30.5,329,31.2,328.7,32.1,328.2z"/>
	<path fill="#FFFFFF" d="M30.5,334.9c2.6,0.7,2.6,0.7,4.3-0.2c-0.4,0.7-0.9,1.4-1.2,2.2C32.7,336.2,31.6,335.5,30.5,334.9
		L30.5,334.9z"/>
	<path fill="#FFFFFF" d="M32.4,333.5c-0.4-0.7-0.9-1.2-0.9-1.6c0.2-0.4,0.7-0.7,1.1-1.1c0.4,0.5,0.7,0.9,0.7,1.4
		C33.8,332.5,33.1,333,32.4,333.5z"/>
	<path fill="#FFFFFF" d="M87.7,342.8c-0.7,0-1.6,0.2-2.4,0.2c0-0.2,0-0.4,0-0.5c0.7-0.2,1.4-0.4,2.2-0.5
		C87.5,342.1,87.5,342.5,87.7,342.8z"/>
	<path fill="#FFFFFF" d="M57.7,337.6c0.9,0.2,1.9,0.2,2.9,0.4c0,0.4-0.2,0.5-0.2,0.9C59.3,338.4,58.6,338,57.7,337.6L57.7,337.6z"/>
	<path fill="#FFFFFF" d="M68.1,343.2c-0.4,0-0.7,0.4-1.1,0.2c-0.4-0.2-0.7-0.4-0.9-0.7c0.2-0.2,0.4-0.5,0.4-0.5
		c0.4,0,0.7,0.2,1.1,0.2C67.7,342.7,67.9,343,68.1,343.2z"/>
	<path fill="#FFFFFF" d="M118.8,333c-0.4,0.4-0.5,0.5-0.7,0.7c-0.4-0.4-0.7-0.7-1.1-1.1c0,0,0.4-0.5,0.5-0.5
		C117.9,332.3,118.3,332.5,118.8,333z"/>
	<path fill="#FFFFFF" d="M30.7,334.9c-0.7-0.5-1.6-0.9-2.4-1.4c0.2-0.2,0.4-0.5,0.5-0.7C29.5,333.5,30,334.1,30.7,334.9L30.7,334.9z
		"/>
	<path fill="#FFFFFF" d="M110.9,265.1c0.5-0.4,1.1-0.9,1.6-0.9c1.6,0,3.3,0.2,4.8,0.5c0.4,0,0.7,0.5,0.9,0.9
		c-0.4,0.2-0.7,0.5-1.1,0.5c-2.2-0.2-4.3-0.4-6.5-0.5C110.9,265.6,110.9,265.2,110.9,265.1z"/>
	<path fill="#FFFFFF" d="M125.1,284.9c-1.9,0-4,0-5.9,0c-0.4,0-0.7,0-1.1,0c-0.5,0.2-1.1,0.4-1.6,0.5c0.5-0.5,1.1-1.2,1.6-1.4
		C120.5,283.3,122.7,283.3,125.1,284.9z"/>
	<path fill="#FFFFFF" d="M114.8,268.2c0.5,0.2,1.1,0.2,1.8,0.5c0.2,0,0.2,0.5,0.2,0.9c0,0.2-0.4,0.4-0.5,0.4c-1.2,0-2.6,0-3.8,0
		c-0.4,0-0.7-0.2-1.1-0.4c0.4-0.4,0.5-0.7,1.1-0.9C113.1,268.3,113.8,268.3,114.8,268.2z"/>
	<path fill="#FFFFFF" d="M118.6,286.6c1.1-0.2,2.2-0.5,3.3-0.7c0,0.2,0.2,0.5,0.2,0.7c-1.1,0.2-2.2,0.4-3.3,0.5
		C118.8,287.1,118.6,287,118.6,286.6z"/>
	<path fill="#FFFFFF" d="M139.5,280.6c1.4,0,3.1,0,4.5,0c0.2,0,0.7,0.7,0.7,1.1c-0.4,2.2-1.1,4.1-1.4,6.1c-0.2,0.7-0.2,1.9,0.4,2.4
		c0.7,0.5,1.9,0.5,2.9,0.5c0.9,0,1.4-2.4,2.6-0.4c0.2,0.2-1.2,1.4-2.2,1.8c-1.4,0.7-2.7,0.7-4-0.5c-0.5-0.5-1.8-0.5-2.6-0.9
		c0.7-1.8,1.9-3.8,2.7-5.9c0.9-2.9,0.4-3.3-2.6-3.4c-0.4,0-0.9,0-1.2,0C139.5,281.1,139.5,281,139.5,280.6z"/>
	<path fill="#FFFFFF" d="M153.9,282.7c-0.4,0-0.9,0-1.2,0c-1.2-0.2-2.6-1.6-3.4,0.4c0,0.2-0.5,0.2-0.7,0c-0.2-0.2-0.4-0.5-0.2-0.7
		c0.5-0.5,1.1-1.6,1.6-1.6c1.1,0,2.4,0.5,3.4,0.7c0.4,0,0.7,0.2,1.1,0.4C154.1,282.2,154.1,282.7,153.9,282.7z"/>
	<path fill="#FFFFFF" d="M142.4,294.5c2.4-1.1,4.7-0.7,6.1,1.1c0.2,0.2,0.2,0.4,0.2,0.7c-0.2,0-0.5,0-0.7,0
		C146.2,295.8,144.1,295,142.4,294.5z"/>
	<path fill="#FFFFFF" d="M153.6,279c-0.4,0.4-0.5,0.7-0.5,0.7c-1.1-0.2-2.4-0.5-3.4-0.9v-0.5c0.5-0.2,1.1-0.4,1.6-0.2
		C151.9,278.2,152.6,278.6,153.6,279z"/>
	<path fill="#FFFFFF" d="M142,277.5c0.2,0,0.5-0.2,0.7-0.2c0.5,0,1.1,0.2,1.6,0.4c0.2,0,0,0.5,0,0.7c-0.5,0-1.1,0-1.6,0
		c-0.2,0-0.5-0.2-0.7-0.2c-0.7-0.2-1.2-0.4-1.9-0.5c0.7-0.2,1.2-0.4,1.9-0.5C142,277.4,142,277.5,142,277.5z"/>
	<path fill="#FFFFFF" d="M165.8,288.4c-0.4,0.5-0.7,1.1-1.1,1.6c-0.2-0.4-0.5-0.5-0.5-0.9c0-0.5,0.4-1.1,0.5-1.4
		C165,287.8,165.3,288.2,165.8,288.4z"/>
	<path fill="#FFFFFF" d="M144.5,297.3c-0.7-0.2-1.6-0.2-2.4-0.4c0,0,0-0.2-0.2-0.4c0.9,0.2,1.6,0.2,2.6,0.4
		C144.7,297.2,144.7,297.3,144.5,297.3z"/>
	<path fill="#FFFFFF" d="M147.2,285.6c-0.2,0.7-0.2,1.2-0.4,1.9h-0.4c0-0.7,0-1.2,0-1.9C146.5,285.6,146.9,285.6,147.2,285.6z"/>
	<path fill="#FFFFFF" d="M75.7,284.1c-0.4,0-0.7,0.2-1.1,0c-0.5-0.2-0.9-0.4-1.4-0.5c0.4-0.4,0.7-0.7,1.1-0.9c1.8-0.4,3.8-0.7,5,1.1
		c0.2,0.2,0.2,0.5,0.4,0.9c-0.4,0-0.7,0.2-1.1,0.2c-1.1-0.2-1.9-0.5-3.1-0.9C75.7,283.9,75.7,283.9,75.7,284.1z"/>
	<path fill="#FFFFFF" d="M73.8,280.1c0.9-1.9,2.4-2.7,4.3-2.4c1.6,0.2,3.3,0.5,3.3,3.1C79.1,278.9,76.7,278,73.8,280.1z"/>
	<path fill="#FFFFFF" d="M81.6,282.5c-0.2,0.5-0.2,1.2-0.4,1.8c-0.2,0-0.5-0.2-0.5-0.2c0-0.5,0.2-1.1,0.4-1.8
		C81.2,282.5,81.4,282.5,81.6,282.5z"/>
	<path fill="#FFFFFF" d="M81.2,300.4c0.4,0.2,0.9,0.5,1.2,0.7c-0.2,0.2-0.5,0.5-0.5,0.5c-0.4-0.2-0.7-0.5-1.2-0.7
		C80.9,300.7,81,300.6,81.2,300.4z"/>
	<path fill="#FFFFFF" d="M143.4,267.7c3.8,0.9,7.7,0.7,11.4,2.9c0.9,0.5,1.9,1.1,3.1,1.4c1.1,0.3,2.6,0,1.4,1.9
		c0,0.2,1.1,0.9,1.6,1.4c0.2,0.2,0.4,0.5,0.7,0.9c-0.4,0-0.9,0.4-1.2,0.2c-0.7-0.4-1.2-1.1-1.9-1.4c-1.4-0.7-2.9-1.2-4.3-1.9
		c0.5-0.2,0.9-0.5,1.4-0.7c-0.4-0.4-0.5-0.9-0.9-0.9c-2.9-0.9-5.7-1.6-8.6-2.4c-0.9-0.2-1.6-0.4-2.6-0.7
		C143.3,267.9,143.3,267.8,143.4,267.7z"/>
</g>
<g>
	<path fill="#FFFFFF" d="M799.8,330.8c2.9-6.3,5.7-12.2,8.6-18.1c47.6,0,95.1,0,143.3,0c-2.9,5.9-5.5,11.5-8.4,17.2
		c2.7,5.4,5.5,10.7,8.6,16.5c-48.4,0-96,0-144.3,0C805,341.3,802.5,336.2,799.8,330.8z M829.5,324.7c-2.9,0.2-4.8,0.4-6.9,0.4
		c-1.1-1.9-1.8-3.8-2.9-5.7c-0.9,2.4-1.6,4.1-2.4,5.9c-2.2-0.2-4.1-0.4-6.7-0.4c1.4,2.2,2.6,3.6,3.6,5.2c-1.1,1.6-2.2,3.3-3.4,5
		c2.7,0,4.8,0,6.7,0c0.7,1.8,1.2,3.4,2.2,5.5c1.2-2.4,2.2-4.1,3.1-6.1c2.2,0.2,4.1,0.5,6.5,0.7c-1.6-2.2-2.7-4-4-5.5
		C826.8,328.2,827.9,326.7,829.5,324.7z M857,340.6c1.1-2.2,1.8-4,2.6-5.5c2.2-0.2,4.1-0.2,7-0.4c-1.9-1.8-3.4-2.9-4.8-4.1
		c1.6-1.8,3.1-3.6,5-5.9c-2.9,0.4-4.8,0.5-6.9,0.7c-1.1-1.8-1.9-3.3-3.3-5c-0.9,1.9-1.6,3.6-2.4,5.2c-2.4-0.2-4.3-0.4-6.9-0.5
		c1.8,2.2,3.1,3.6,4.5,5.2c-1.4,1.8-2.7,3.4-4.3,5.4c2.7-0.2,4.7-0.5,6.9-0.7C855,336.7,856,338.4,857,340.6z M891.5,325.3
		c-2.6-0.4-4.5-0.5-7-0.7c1.6,2.2,2.9,4,4,5.4c-1.4,1.8-2.6,3.4-4.1,5.4c2.7-0.4,4.7-0.7,6.9-1.1c0.9,1.9,1.8,3.6,2.7,5.9
		c1.2-2.4,2.2-4.1,2.9-5.7c2.4,0.4,4.3,0.5,6.9,0.7c-1.6-2.2-2.9-3.8-4.3-5.5c1.4-1.8,2.7-3.4,4.3-5.4c-2.7,0.4-4.8,0.5-7,0.9
		c-0.9-1.9-1.8-3.8-2.9-6.1C893,321.6,892.4,323.3,891.5,325.3z M931.3,319.2c-0.9,2.4-1.6,4.1-2.4,5.9c-2.2-0.2-4.1-0.2-6.7-0.4
		c1.4,2.2,2.6,3.6,3.6,5.2c-1.1,1.6-2.2,2.9-3.6,4.7c2.6,0,4.5,0,6.5,0c0.9,1.8,1.6,3.4,2.7,5.5c1.1-2.4,1.9-4.1,2.7-5.5
		c2.2,0,4.1,0,6.7,0c-1.6-1.9-2.7-3.4-4-4.8c1.4-1.8,2.7-3.4,4.1-5.4c-2.7,0.2-4.8,0.4-6.9,0.5C933.1,323.2,932.4,321.5,931.3,319.2
		z"/>
	<path fill="#FFFFFF" d="M672.7,312.6c1.6,2.9,3.4,5.9,5.9,10.5c0.5-4.5,0.9-7.4,1.2-10.2c2.7,0,5.2,0,8.6,0
		c-2.7,5.5-5.2,10.8-7.9,16.7c-8.3,0-16.9,0-25.5,0c0,0.5,0,1.2,0,1.8c8.4,0,16.9,0,25.3,0c2.7,5.4,5,9.9,7.6,15.1
		c-8.3,0-15.8,0-23.8,0c-3.3-4.3-6.5-8.6-10.7-14.2c-64.8,0-130,0-195.3,0c-0.4,0-0.7-1.1-2.4-4c17.4-0.2,33.4,0,49.5,0
		c16.5,0,33.3,0,49.8,0c16.4,0,32.9,0,49.3,0s32.9,0,49.3,0c3.6-5.2,6.9-10.2,10.2-15.5C667.1,312.6,669.8,312.6,672.7,312.6z"/>
	<path fill="#FFFFFF" d="M684.9,328.7c2.9-5.9,5.5-11,8.1-16c16.5,0,32.9,0,50,0c-2.7,5.7-5.2,11-7.7,16
		C718.6,328.7,702.2,328.7,684.9,328.7z"/>
	<path fill="#FFFFFF" d="M804.1,312.6c-2.7,5.5-5.2,10.7-7.7,15.8c-15,0-29.8,0-45.3,0c2.9-5.7,5.4-10.8,7.9-15.8
		C774.1,312.6,788.6,312.6,804.1,312.6z"/>
	<path fill="#FFFFFF" d="M692.1,346.3c-2.2-4.5-4.5-9-7-14c16.7,0,33.1,0,50,0c2.2,4.3,4.5,8.8,7.2,14c-7.9,0-15.3,0-22.8,0
		c-1.2-2.4-2.4-4.8-4.1-8.4c-0.4,3.6-0.5,5.9-0.7,8.4C707.1,346.3,699.7,346.3,692.1,346.3z"/>
	<path fill="#FFFFFF" d="M796.4,332.5c2.2,4.3,4.5,8.8,7,13.8c-15.3,0-30,0-45.2,0c-2.2-4.3-4.5-8.8-7-13.8
		C766.5,332.5,781.3,332.5,796.4,332.5z"/>
	<path fill="#FFFFFF" d="M746.9,328.7c-2.7,0-4.8,0-7.9,0c2.7-5.5,5.4-10.8,7.9-16c2.4,0,4.7,0,7.6,0
		C752.2,318,749.6,323.2,746.9,328.7z"/>
	<path fill="#FFFFFF" d="M739.4,332.5c3.1,0,5,0,7.7,0c1.9,4.1,4.3,8.6,6.7,13.6c-2.9,0-5,0-7.7,0
		C744.1,342.1,741.9,337.7,739.4,332.5z"/>
	<path fill="#FFFFFF" d="M948.2,331.3c5.2,0,9.2,0,14.2,0c-2.4,4.1-4.5,7.7-7,12.1C953,339.2,950.8,335.5,948.2,331.3z"/>
	<path fill="#FFFFFF" d="M962.5,327.4c-5,0-9.2,0-14.2,0c2.2-4,4.1-7.6,6.5-11.7C957.4,319.8,959.7,323.2,962.5,327.4z"/>
</g>
<g>
	<path fill="#FFFFFF" d="M243.2,282.2h-26.4l-3.1,8.1h-5.9l22.3-57.9l22.3,57.9h-6.1L243.2,282.2z M218.6,277.7h22.8l-11.4-30.2
		L218.6,277.7z"/>
	<path fill="#FFFFFF" d="M270.4,258.7c-3.3,0-6.1,1.8-7.4,4.5v27.2h-5.4v-36h5.4v2.9c1.8-2.2,4.8-4.1,8.6-4.1c3.8,0,7,1.8,9,5
		c2.2-2.9,5.9-5,10.2-5c6.3,0,11,4.5,11,12.1v25.2h-5.4v-24.4c0-4.7-2.9-7.4-6.7-7.4c-3.3,0-6.3,1.9-7.6,4.7c0,0.7,0.2,1.2,0.2,1.9
		v25.2h-5.4v-24.5C277,261.2,274.2,258.7,270.4,258.7z"/>
	<path fill="#FFFFFF" d="M342.9,286c-3.4,3.4-8.3,5.5-13.5,5.5c-10.7,0-19.1-8.4-19.1-19.1c0-10.5,8.4-19.1,19.1-19.1
		c10.2,0,18.8,7.9,19.1,19.1c0,0.9,0,1.4,0,2.4h-32.6c1.1,6.5,6.9,11.5,13.6,11.5c3.8,0,7.2-1.6,9.7-4L342.9,286z M315.9,270.2H343
		c-1.1-6.5-6.9-11.5-13.6-11.5C322.5,258.7,317,263.7,315.9,270.2z"/>
	<path fill="#FFFFFF" d="M371.3,258.7h-0.2c-3.4,0-7,2.4-8.4,5.4v26.4h-5.4v-36h5.4v3.1c1.6-2.4,4.8-4.1,8.6-4.1L371.3,258.7
		L371.3,258.7z"/>
	<path fill="#FFFFFF" d="M377.4,248.1v-8.3h5.4v8.3H377.4z M377.4,290.4v-36h5.4v36H377.4z"/>
	<path fill="#FFFFFF" d="M424,286c-3.4,3.4-8.3,5.5-13.5,5.5c-10.7,0-19.1-8.4-19.1-19.1c0-10.5,8.4-19.1,19.1-19.1
		c5.2,0,10,2.2,13.5,5.5l-3.8,3.8c-2.6-2.4-5.9-4-9.7-4c-7.6,0-13.8,6.3-13.8,13.8c0,7.6,6.3,13.8,13.8,13.8c3.8,0,7.2-1.6,9.7-4
		L424,286z"/>
	<path fill="#FFFFFF" d="M458,287.8c-2.9,2.4-6.3,3.8-10.7,3.8c-10,0-18.5-8.4-18.5-19.1c0-10.5,8.4-19.1,18.5-19.1
		c4.3,0,7.7,1.4,10.7,3.8v-2.7h5.4v36H458V287.8z M458,263c-2.7-2.7-6.1-4.3-10-4.3c-7.6,0-13.8,6.3-13.8,13.8
		c0,7.6,6.3,13.6,13.8,13.6c4,0,7.4-1.6,10-4.3V263z"/>
	<path fill="#FFFFFF" d="M479.4,257.5c1.8-2.2,4.8-4.1,8.6-4.1c5.9,0,10.7,4.5,10.7,12.1v25.2h-5.4v-24.6c0-4.7-2.9-7.4-6.7-7.4
		c-3.3,0-6.1,1.8-7.4,4.5v27.2h-5.4v-36h5.4v3.1H479.4z"/>
	<path fill="#FFFFFF" d="M534.2,290.4v-56.2h5.5v56.2H534.2z"/>
	<path fill="#FFFFFF" d="M556.9,257.5c1.8-2.2,4.8-4.1,8.6-4.1c5.9,0,10.7,4.5,10.7,12.1v25.2h-5.4v-24.6c0-4.7-2.9-7.4-6.7-7.4
		c-3.3,0-6.1,1.8-7.4,4.5v27.2h-5.4v-36h5.4v3.1H556.9z"/>
	<path fill="#FFFFFF" d="M614,287.8c-2.9,2.4-6.3,3.8-10.7,3.8c-10,0-18.5-8.4-18.5-19.1c0-10.5,8.4-19.1,18.5-19.1
		c4.3,0,7.7,1.4,10.7,3.8v-23.1h5.4v56.2H614V287.8z M614,263c-2.7-2.7-6.1-4.3-10-4.3c-7.6,0-13.8,6.3-13.8,13.8
		c0,7.6,6.3,13.6,13.8,13.6c4,0,7.4-1.6,10-4.3V263z"/>
	<path fill="#FFFFFF" d="M630,248.1v-8.3h5.4v8.3H630z M630,290.4v-36h5.4v36H630z"/>
	<path fill="#FFFFFF" d="M673.1,287.8c-2.9,2.4-6.3,3.8-10.7,3.8c-10,0-18.5-8.4-18.5-19.1c0-10.5,8.4-19.1,18.5-19.1
		c4.3,0,7.7,1.4,10.7,3.8v-2.7h5.4v36h-5.4V287.8z M673.1,263c-2.7-2.7-6.1-4.3-10-4.3c-7.6,0-13.8,6.3-13.8,13.8
		c0,7.6,6.3,13.6,13.8,13.6c4,0,7.4-1.6,10-4.3V263z"/>
	<path fill="#FFFFFF" d="M694.5,257.5c1.8-2.2,4.8-4.1,8.6-4.1c5.9,0,10.7,4.5,10.7,12.1v25.2h-5.4v-24.6c0-4.7-2.9-7.4-6.7-7.4
		c-3.3,0-6.1,1.8-7.4,4.5v27.2h-5.4v-36h5.4v3.1H694.5z"/>
	<path fill="#FFFFFF" d="M794.8,283c-5.2,5.2-12.6,8.4-20.7,8.4c-16.2,0-29.3-12.9-29.3-29.1c0-16.2,13.1-29.3,29.3-29.3
		c8.1,0,15.5,3.3,20.7,8.6l-4,4c-4.3-4.3-10.2-6.9-16.7-6.9c-12.9,0-23.4,10.7-23.4,23.6c0,12.9,10.5,23.4,23.4,23.4
		c6.5,0,12.4-2.7,16.7-6.9L794.8,283z"/>
	<path fill="#FFFFFF" d="M832.2,286c-3.4,3.4-8.3,5.5-13.5,5.5c-10.7,0-19.1-8.4-19.1-19.1c0-10.5,8.4-19.1,19.1-19.1
		c10.2,0,18.8,7.9,19.1,19.1c0,0.9,0,1.4,0,2.4h-32.6c1.1,6.5,6.9,11.5,13.6,11.5c3.8,0,7.2-1.6,9.7-4L832.2,286z M805.2,270.2h27.2
		c-1.1-6.5-6.9-11.5-13.6-11.5S806.3,263.7,805.2,270.2z"/>
	<path fill="#FFFFFF" d="M851.8,257.5c1.8-2.2,4.8-4.1,8.6-4.1c5.9,0,10.7,4.5,10.7,12.1v25.2h-5.4v-24.6c0-4.7-2.9-7.4-6.7-7.4
		c-3.3,0-6.1,1.8-7.4,4.5v27.2h-5.4v-36h5.4v3.1H851.8z"/>
	<path fill="#FFFFFF" d="M895,259.7h-6.5v30.5h-5.4v-30.5h-5.4v-5.4h5.4v-12.1l5.4-2.7v14.8h6.5V259.7z"/>
	<path fill="#FFFFFF" d="M932,286c-3.4,3.4-8.3,5.5-13.5,5.5c-10.7,0-19.1-8.4-19.1-19.1c0-10.5,8.4-19.1,19.1-19.1
		c10.2,0,18.8,7.9,19.1,19.1c0,0.9,0,1.4,0,2.4h-32.6c1.1,6.5,6.9,11.5,13.6,11.5c3.8,0,7.2-1.6,9.7-4L932,286z M905,270.2h27.2
		c-1.1-6.5-6.9-11.5-13.6-11.5C911.7,258.7,906.1,263.7,905,270.2z"/>
	<path fill="#FFFFFF" d="M960.4,258.7L960.4,258.7c-3.5,0-7.1,2.4-8.5,5.4v26.4h-5.4v-36h5.4v3.1c1.6-2.4,4.8-4.1,8.6-4.1v5.1H960.4
		L960.4,258.7z"/>
	<path fill="#FFFFFF" d="M209.8,329.5c0-7,5.7-12.8,12.8-12.8c7,0,12.8,5.7,12.8,12.8c0,7.1-5.7,12.8-12.8,12.8
		S209.8,336.6,209.8,329.5z M222.5,338.6c5,0,9.2-4.1,9.2-9.2s-4.1-9.2-9.2-9.2c-5,0-9.2,4.1-9.2,9.2S217.5,338.6,222.5,338.6z"/>
	<path fill="#FFFFFF" d="M249.6,321.1h-4.3v20.3h-3.6v-20.3h-3.6v-3.6h3.6v-6.7c0-4.1,2.7-7,6.7-7c0.4,0,0.9,0,1.2,0.4v3.3
		c-0.4-0.2-0.7-0.2-0.9-0.2c-1.9,0-3.4,1.4-3.4,3.4v6.7h4.3V321.1z"/>
	<path fill="#FFFFFF" d="M300.4,336.6c-3.4,3.4-8.4,5.7-13.8,5.7c-10.8,0-19.6-8.6-19.6-19.5c0-10.8,8.8-19.6,19.6-19.6
		c5.4,0,10.2,2.2,13.8,5.7l-2.7,2.7c-2.9-2.9-6.9-4.7-11.2-4.7c-8.6,0-15.7,7-15.7,15.7c0,8.7,7,15.7,15.7,15.7
		c4.3,0,8.3-1.8,11.2-4.7L300.4,336.6z"/>
	<path fill="#FFFFFF" d="M308.7,319.5c1.1-1.4,3.3-2.7,5.7-2.7c4,0,7.2,3.1,7.2,7.9v16.7H318V325c0-3.3-1.9-4.8-4.5-4.8
		c-2.2,0-4.1,1.2-4.8,3.1v18.1h-3.6V304h3.6V319.5z"/>
	<path fill="#FFFFFF" d="M328.7,313.1v-5.4h3.6v5.4H328.7z M328.7,341.3v-23.9h3.6v23.9H328.7z"/>
	<path fill="#FFFFFF" d="M359.8,338.5c-2.4,2.4-5.4,3.8-9,3.8c-7,0-12.8-5.7-12.8-12.8c0-7.1,5.7-12.8,12.8-12.8
		c3.4,0,6.7,1.4,9,3.8l-2.6,2.6c-1.6-1.6-4-2.7-6.5-2.7c-5,0-9.2,4.1-9.2,9.2c0,5.1,4.1,9.2,9.2,9.2c2.6,0,4.7-1.1,6.5-2.7
		L359.8,338.5z"/>
	<path fill="#FFFFFF" d="M382.5,339.6c-1.8,1.6-4.1,2.6-7,2.6c-6.7,0-12.4-5.7-12.4-12.8s5.7-12.8,12.4-12.8c2.9,0,5.2,0.9,7,2.6
		v-1.8h3.6v23.9h-3.6V339.6z M382.5,323.2c-1.8-1.8-4-2.9-6.7-2.9c-5,0-9.2,4.1-9.2,9.2c0,5.1,4.1,9.2,9.2,9.2
		c2.7,0,4.8-1.1,6.7-2.9V323.2z"/>
	<path fill="#FFFFFF" d="M414.8,340.7c0,7.4-5.4,11.7-11.4,11.7c-0.5,0-1.6,0-2.2-0.2v-3.6c0.7,0.2,1.2,0.2,1.8,0.2
		c4.5,0,8.1-3.1,8.1-8.1v-0.8c-1.8,1.6-4.1,2.6-7,2.6c-6.7,0-12.4-5.7-12.4-12.8c0-7.1,5.7-12.8,12.4-12.8c2.9,0,5.2,0.9,7,2.6v-1.8
		h3.6L414.8,340.7L414.8,340.7z M411.2,323.2c-1.8-1.8-4-2.9-6.7-2.9c-5,0-9.2,4.1-9.2,9.2c0,5.1,4.1,9.2,9.2,9.2
		c2.7,0,4.8-1.1,6.7-2.9V323.2z"/>
	<path fill="#FFFFFF" d="M420.6,329.5c0-7,5.7-12.8,12.8-12.8c7,0,12.8,5.7,12.8,12.8c0,7.1-5.7,12.8-12.8,12.8
		C426.3,342.3,420.6,336.6,420.6,329.5z M433.2,338.6c5,0,9.2-4.1,9.2-9.2s-4.1-9.2-9.2-9.2c-5,0-9.2,4.1-9.2,9.2
		S428.3,338.6,433.2,338.6z"/>
</g>
</svg>
