<?xml version="1.0" encoding="utf-8"?>
<!-- Generator: Adobe Illustrator 18.1.0, SVG Export Plug-In . SVG Version: 6.00 Build 0)  -->
<svg version="1.1" id="Layer_1" xmlns="http://www.w3.org/2000/svg" xmlns:xlink="http://www.w3.org/1999/xlink" x="0px" y="0px"
	 viewBox="146.3 436.3 669.4 494.5" enable-background="new 146.3 436.3 669.4 494.5" xml:space="preserve">
<g>
	<path fill="#7F7F7F" d="M343.1,897.8c-6.6-2.6-8.4,3.3-8.4,6.6c0,2.6,5.1,4.4,7.7,6.6c-8.4-1.5-10.2,4-9.2,11.7
		c0,1.5-1.5,3.3-1.8,5.1c-0.7-1.8-1.8-4-1.8-5.9c0-12.8,0-25.6-0.7-38.1c-1.5-25.6-3.3-52-5.1-77.6c-0.7-10.2,0-20.5,0-30.7
		c0-2.6-0.7-5.9-2.6-7c-1.8-1.5-5.1-0.7-7.7,0.7c-11.7,7-22.3,14.3-34,22c-2.6,1.8-5.9,5.1-6.6,8.4c-2.6,22.3,0,45,6.6,67.3
		c0-1.8,0.7-4,0.7-5.1c0-1.8,0.7-4,0-5.9c-4-11.7,4.4-19.4,7.7-28.9c0-0.7,1.5-1.5,1.8-1.5c0.7,0.7,1.5,1.8,1.5,2.6
		c-0.7,7.7-0.7,15.4-1.5,23.1c0,1.5,0,4-0.7,4.4c-7.7,8.4-2.6,17.9-1.8,27.1c0,6.6,0.7,12.1,1.5,18.7c0.7,6.6,1.8,12.8,2.6,19.4
		c0,1.8-1.5,4.4-1.8,6.6c-1.5-1.5-2.6-3.3-3.3-3.3c-2.6,0.7-4.4,1.8-7,3.3c0-2.6-0.7-5.9-0.7-9.2c-0.7-7-1.5-13.5-9.2-16.8
		c-1.5-0.7-2.6-5.9-1.5-7c10.2-12.1,8.4-23.1-3.3-33.3c-0.7-0.7-0.7-3.3-0.7-4.4c4.4-9.5,6.6-19.4,4.4-30c-1.5-7,0-14.6,0-22.3
		c0-4.4-1.5-6.6-5.9-4.4c-8.4,3.3-16.8,6.6-24.5,10.2c-2.6,1.5-5.1,4.4-5.1,7c-1.8,14.3-4.4,28.2,1.8,41.7c0.7,1.5,1.5,3.3,0.7,4
		c-5.1,11.7-0.7,22.3,1.8,34c0.7,1.8,0.7,4,0.7,5.1c-1.5,8.4-3.3,16.1-4.4,24.5c-0.7,4.4-1.8,4.4-6.6,4c-4.4-1.5-9.5-0.7-15.4-1.5
		c2.6-6.6,5.9-14.6,8.4-22.3c0.7-1.5-0.7-2.6-0.7-4c-1.5,0.7-3.3,0.7-3.3,1.8c-1.8,4-3.3,7.7-5.1,11.7c-1.5,3.3-1.8,6.6-2.6,9.5
		c-0.7,1.8-1.8,4-2.6,5.1c-2.6-1.8-5.1-3.3-6.6-5.9c-0.7-1.5,0-4,1.5-5.1c3.3-3.3,1.8-4.4,0.7-8.4c-1.8-4.4,0-11,0.7-16.1
		c0.7-4,3.3-7.7-3.3-9.5c-1.5,0-1.8-3.3-1.8-4.4c1.5-5.1,4-10.2,4.4-15.4c0.7-2.6-2.6-5.1-2.6-7.7c0-3.3,1.8-6.6,1.8-9.2
		c-1.8-14.3-2.6-27.5,4-40.6c3.3-5.9,0.7-6.6-4.4-6.6c-0.7,0-1.8,0-2.6,0c-16.8,0.7-16.8,0-14.6,17.2c2.6,20.5,4.4,41.7,7,62.2
		c-0.7,0-1.5,0-1.8,0.7c-1.5-5.1-3.3-11-4-16.1c-0.7-4-0.7-4.4-1.8,0c-1.5-0.7-2.6-1.5-3.3-2.6c-7.7-16.8-5.9-34-7.7-51.2
		c-0.7-5.9-0.7-11.7-1.5-17.9c-1.5,0-2.6,0-3.3,0c-1.5,11.7-1.8,23.1-3.3,34.8c-2.6-22.3,5.1-46.1-6.6-68.1c0,5.9,0,11,0,16.8
		c-0.7,0-1.5,0-1.8,0c-0.7-3.3-1.8-7-1.8-10.2c-1.5-17.9,0-37.3-5.1-53.8c-4-13.5,1.5-18.7,8.4-27.1c8.4-10.2,4-22.3,0.7-34
		c-1.5-4-1.8-9.5,0-11.7c8.4-7.7,7-18.7,12.1-27.5c0.7-1.5,0.7-4.4,0-6.6c-1.8-6.6,0.7-11,6.6-12.8c5.9-1.8,6.6-5.1,6.6-10.2
		c0-15.4,9.2-24.5,24.5-24.5c7.7,0,12.8-0.7,18.7-8.4c7-9.5,18.7-16.1,32.2-9.5c4,1.8,9.2,3.3,13.5,4c3.3,0.7,7,1.8,9.2,0
		c11.7-9.2,23.1-3.3,34,0.7c11,4,20.5,9.5,31.5,13.5c12.1,4,19.4,14.3,28.2,21.2c7,5.9,16.8,8.4,24.9,11.7
		c10.2,4.4,22,6.6,31.5,12.1c5.1,3.3,11.7,7.7,12.1,16.1c0,2.6,4,4.4,5.9,7c4.4,4.4,5.9-1.5,9.2-2.6c2.6-1.5,5.9-2.6,8.4-4
		c1.5-0.7,1.8-1.8,2.6-3.3c-1.5-0.7-2.6-1.5-4-1.5c-0.7,0-1.8,0-2.6,0c-2.6,0.7-5.1,0.7-7.7,1.5c1.5-3.3,2.6-7.7,5.1-9.2
		c5.1-2.6,11.7-4,17.2-5.9c1.8-0.7,4-1.5,5.1-2.6c-1.8-0.7-4-2.6-5.9-2.6c-5.1,0.7-11,1.8-16.1,2.6c-1.8,0-4,0-6.6,0
		c1.5-2.6,1.8-5.1,3.3-7.7c0-0.7,1.5-0.7,3.3-1.5c-4-0.7-6.6-0.7-9.2-1.5c0-0.7,0-1.8,0-2.6c9.5,0,19.8,0,29.6-0.7
		c1.8,0,4.4,1.5,6.6,0c1.8-1.5,3.3-3.3,4.4-5.1c-1.8-1.5-3.3-2.6-5.1-4c-2.6-1.5-5.9-1.8-9.2-2.6c-1.5,0-6.6-1.8-2.6,3.3
		c0,0-0.7,1.8-1.5,1.8c-5.9-0.7-11.7-1.5-17.9-1.8c2.6-3.3,9.5-3.3,4.4-8.4c1.8-0.7,4-1.8,5.9-1.8c1.8,0,4,0,6.6,0.7
		c-1.8-1.5-4-2.6-5.1-4c-0.7-0.7-1.5-0.7-1.8-1.5c0.7-0.7,0.7-1.5,1.5-2.6c4.4,1.8,8.4,4.4,12.8,5.9c2.6,1.5,5.1,1.5,8.4,1.8
		c-1.8-2.6-4-5.1-5.9-6.6c-2.6-1.8-5.9-3.3-9.2-5.1c-1.5-0.7-1.5-2.6-1.8-4c1.8,0,4-0.7,5.1,0c2.6,1.5,4.4,3.3,7,5.1
		c-0.7-3.3-1.8-6.6-2.6-9.5c0-1.5,0-2.6,0-3.3c1.5,0.7,2.6,0.7,3.3,1.5c3.3,3.3,6.6,7,10.2,10.2c-0.7-11.7-8.4-16.1-17.2-20.5
		c-22-11.7-43.6-23.8-64.8-35.9c-5.9-3.3-9.5-9.2-6.6-14.6c2.6-4,8.4-7,13.5-7.7c7-0.7,14.6,0,20.5,2.6c16.8,7,33.3,15.4,50.1,23.1
		c5.9,2.6,11.7,5.1,17.9,8.4c0-11.7-8.4-17.9-13.5-25.6c-8.4-13.5-16.8-26.4-16.8-43.2c0-2.6,1.8-7.7,4-8.4c2.6-1.5,7.7-0.7,9.5,1.5
		c14.3,11,26.4,23.8,33.3,40.6c0,0.7,0.7,1.5,0.7,1.5c18.7,6.6,19.8,25.6,29.6,38.4c1.8,2.6,1.8,11.7,6.6,1.5l2.6,0.7
		c0.7,7.7,6.6,3.3,9.5,4c3.3,0.7,7.7,0,11,0c0.7,0,1.5,2.6,1.5,4c0,4-0.7,8.4,0.7,12.8c2.6-5.1,5.1-10.2,7.7-16.1
		c6.6,12.8-2.6,21.2-4.4,31.5c4-5.1,7.7-11,12.1-15.4c2.6-2.6,5.1-5.1,8.4-7c0.7-0.7,2.6,0,4,0c-0.7,1.5-1.5,2.6-1.8,3.3
		c-1.8,1.5-4.4,2.6-5.9,4.4c-1.8,3.3-2.6,6.6-4,9.5c2.6-1.5,4.4-3.3,7-4.4c1.5-0.7,3.3-1.8,4.4-2.6c1.8-1.5,4.4-1.8,7-2.6
		c-1.8,1.8-4,4-5.9,5.1c-2.6,2.6-5.9,4.4-9.5,8.4c3.3,0.7,4,0.7,5.1,0.7c3.3-0.7,6.6-1.5,9.5-1.8c-2.6,1.8-4.4,4.4-7,6.6
		c-1.5,1.5-2.6,2.6-3.3,4c1.8,0,3.3,0.7,5.1,0.7c1.5,0,1.8-0.7,3.3-0.7c0,0.7,0.7,1.5,0.7,1.8c-1.5,0.7-3.3,1.5-4.4,1.8
		c-2.6,1.5-9.2,0.7-4,7c-0.7,0.7-1.8,1.8-2.6,1.8c-5.9-0.7-19.4,8.4-19.8,14.3c0,1.8,1.8,4.4,4,6.6c8.4,7,16.1,15.4,16.8,26.4
		c0.7,7-0.7,14.3-0.7,21.2c0,11.7,1.5,22.3,1.5,34c0,5.9-0.7,12.8-2.6,17.9c-5.9,14.3-2.6,28.2,2.6,40.6c2.6,6.6,6.6,14.6,11.7,20.5
		c1.5,1.5,3.3,1.5,5.1,1.8c0-1.8,1.5-4.4,0.7-5.1c-5.1-5.9-4-12.1-4-18.7c0-3.3-0.7-5.9-1.5-9.2c-0.7-5.1-3.3-11.7-1.8-16.1
		c5.1-19.4,0.7-38.4,3.3-57.8c1.5-9.5,5.9-17.2,16.1-20.5c10.2-3.3,20.5-7,30.7-9.5c12.1-2.6,23.8,1.8,35.5,5.1
		c14.3,4,25.6,10.2,35.5,21.2c2.6,3.3,5.9,6.6,7,10.2c5.9,14.3,12.1,27.5,15.4,42.5c2.6,11,1.5,23.1-1.8,33.3
		c-4,12.1,0,22.3,0.7,33.3c0,1.8,2.6,4.4,4.4,5.1c22,10.2,34,28.9,41,50.9c5.9,17.9,9.2,36.6,8.4,55.3c-0.7,15.4-3.3,31.5-5.1,46.8
		c0,1.8-1.8,3.3-2.6,4.4c-1.5-1.8-4-4-3.3-5.9c0.7-14.3,1.5-27.5,2.6-41.7c1.8-16.8,3.3-33.3-3.3-49.4c-3.3-8.4-8.4-17.2-15.4-23.8
		c-5.1-4.4-14.3-4-21.2-6.6c-11-3.3-18.7,1.5-23.8,9.2c-3.3,4.4-4.4,11.7-5.1,17.2c-0.7,4.4,0,9.5-0.7,14.6
		c-0.7,4.4-2.6,4.4-5.9,1.8c-0.7-0.7-2.6,0-3.3,0.7c-0.7,4-1.8,7.7-1.8,11.7c0,18.7,0,37.3,0,56c0,2.6-1.8,5.1-2.6,7.7
		c-1.5-2.6-2.6-5.9-2.6-8.4c-0.7-16.8-1.8-34-1.5-50.9c0.7-9.5,4-19.8,6.6-29.6c1.8-6.6,4.4-12.8,7.7-18.7
		c10.2-17.2,23.1-22,41.7-16.1c4,1.5,8.4,0.7,12.8,0.7c-3.3-2.6-5.9-6.6-9.2-8.4c-4-1.8-8.4-2.6-12.8-4c-0.7,0-1.5-1.5-1.8-1.5
		c0.7-0.7,1.5-1.5,2.6-1.8c1.1-0.4,2.6-1.5,3.3-1.8c-0.7-0.7-1.8-1.8-2.6-1.8c-5.1-3.3-10.2-3.3-16.1,0.7
		c-30.7,19.8-40.6,50.1-43.6,84.2c-1.5,16.8-2.6,34-4,50.9c0,1.5-1.8,2.6-2.6,4c-0.7-1.5-1.8-2.6-2.6-4c0-1.5,1.5-2.6,0.7-3.3
		c-0.7-1.5-1.5-3.3-2.6-4.4c-0.7,1.5-1.8,2.6-2.6,4c-1.5,2.6-2.6,5.9-3.3,8.4c-0.7-3.3-1.8-6.6-1.8-9.5c1.8-23.8,0.7-48.3,6.6-70.6
		c5.9-24.5,11.7-50.9,37.3-64.8c2.6-1.5,4-4,5.9-6.6c-2.6-0.7-5.1-1.8-7.7-2.6c-11.7-3.3-12.1-3.3-16.1,7
		c-8.4,22-23.1,39.2-39.2,56.4c-5.9,6.6-5.9,13.5-5.1,22c1.5,12.8,0,15.4-12.1,21.2c-1.5,0.7-3.3,4-3.3,5.1c0,10.2,0.7,20.5,1.5,30
		c0.7,5.9,1.5,11.7-5.9,16.8c-0.7-4-1.5-7.7-1.5-11c0-27.5,0.7-55.3,0.7-82.7c0-19.8-1.5-39.2-17.9-53.4c-2.6-2.6-7-4-10.2-4.4
		c-2.6-0.7-9.5-1.5-3.3,5.1c0,0-1.5,2.6-1.5,1.8c-7-3.3-4.4,1.8-5.1,5.1c-1.8,8.4-5.1,16.8-7.7,24.5c-0.7,1.5-0.7,3.3-0.7,4.4
		c4,12.1-1.5,24.9-0.7,37.3c0,0.7,0,2.6-0.7,2.6c-8.4,3.3-6.6,11.7-9.2,17.9c-1.5-7-2.6-14.3-4-21.2c-0.7-4-1.5-7.7-1.8-11.7
		c0-1.5-1.5-2.6-1.8-4c-1.5,1.5-2.6,1.8-3.3,4c-3.3,8.4-4.4,17.9-10.2,23.8c-3.3,3.3-5.1,12.8-14.3,9.5c-0.7,0-4,2.6-4.4,5.1
		c-1.5,4.4-1.5,4.4-7,5.1c-1.5,0-2.6,1.5-3.3,1.8c-1.8,6.6-6.6,5.1-11,4.4c-1.8,0-7,1.5-2.6-4c0,0-0.7-1.8-1.5-1.8
		c-1.8,0.7-4,0.7-5.1,1.8c-3.3,3.3-5.9,6.6-8.4-0.7c0,0-4,0.7-5.1,1.5c-2.6,1.5-2.6,8.4-7.7,3.3c-0.7,2.6-1.8,5.1-2.6,7.7
		c-0.7,1.8-1.5,4-1.8,5.9c-0.7-1.8,0-4-1.5-5.1c-1.8-1.8-4-4-6.6-4.4c-0.7,0-4,3.3-4,4.4c-0.7,5.1-0.7,11-0.7,16.1
		c0,4.4-0.7,9.5-5.9,9.5c-1.8,0-4.4-5.9-4.4-9.2c0-7,0.7-14.3,1.5-21.2c1.5-19.8,1.8-39.2,4-58.9c1.5-12.1-5.9-19.4-11.7-27.5
		c-0.7-0.7-2.6-1.5-3.3-0.7c-0.7,0.7-1.5,1.8-1.5,3.3c0.7,30.7,1.8,62.2,3.3,93c0,5.9,0,12.1-0.7,17.9c0,1.5-1.5,2.6-1.8,2.6
		c-0.7,0.7-1.8-0.7-3.3-0.7c4.4-6.6-11-5.1-5.1-11.7c4-4,1.5-4-1.5-4.4c-3.3-0.7-6.6,0-9.2-0.7c-1.5,0-2.6-0.7-4-1.5
		c1.5-0.7,2.6-1.8,4.4-1.8c4,0,7,0.7,11,0.7c0.7,0,1.5-0.7,1.8-1.5c-0.7-0.7-0.7-1.8-1.5-1.8c-7-0.7-14.3-1.8-21.2-2.6
		c-1.5,0-3.3,1.8-5.1,2.6c1.8,1.5,4,2.6,5.9,4c-5.1,2.6-5.1,2.6-9.2,20.5c-1.5-1.8-2.6-3.3-2.6-4.4c0.7-17.2,1.8-35.5,3.3-52.7
		c0.7-10.2,1.5-20.5-2.6-30c-0.7,0-1.8,0-2.6,0c0,8.4,0,16.8,0,24.9c0,5.1,3.3,11.7-5.1,14.3c-1.8,0.7-3.3,5.1-5.9,9.5
		c-0.7-15.4-1.8-29.6-2.6-43.6c0-6.6-1.5-11.7-7-14.6c-1.8-1.5-3.3-2.6-5.1-4.4c-2.6-1.8-4.4-4.4-7-6.6c-0.7,3.3-1.5,6.6-1.5,9.5
		c0.7,17.2,1.8,34.8,1.8,51.2c0,11-1.5,22-2.6,32.9c-0.7,5.1-1.5,10.2-1.5,15.4c-0.7,0-1.5,0-1.8,0.7c-0.7-5.1-1.8-9.5-1.8-14.6
		c0.7-10.2,1.5-20.5,1.8-30c0-1.8-1.5-4.4-1.8-6.6c0-0.7-1.5-1.8-0.7-1.8c10.2-7,1.5-16.8,2.6-25.6c1.5-8.4,0-17.9-0.7-27.1
		c0-1.8-0.7-4-0.7-5.9c-0.7-4.4,0.7-11.7-1.8-14.3c-5.1-4.4-12.1-7-18.7-9.5c-6.6-2.6-5.1,3.3-5.1,6.6c1.5,13.5,6.6,24.9,16.1,34
		c4.4,4.4,4.4,6.6,0,11.7c-5.1,5.9-8.4,13.5-11,17.9c-4.4-5.1-9.5-11-15.4-16.1c-3.3-3.3-3.3-4.4-0.7-8.4c4-6.6,11.7-12.8,5.1-22.3
		c-0.7-0.7-0.7-1.5-0.7-1.5c-7-7-9.2-9.5-12.1-22.3c-2.6-11.7-3.3-23.8-4.4-35.9c-0.7,0-1.8,0.7-1.8,1.5
		c-1.5,14.3-3.3,28.2-4.4,42.5c0,4,2.6,8.4,4,12.8c0.7,1.8,1.8,4,1.5,5.9c-4,12.1,4,23.1,5.1,34.8c0.7,5.1,0,9.5-0.7,14.3
		c-0.7,6.6-1.8,12.8-3.3,19.4c0,1.5,0.7,3.3,1.5,5.1c1.5-0.7,2.6-1.5,4-2.6c2.6-1.8,4.4-4,7-5.9c3.3-3.3,5.9-3.3,8.4,0
		c4.4,5.1,8.4,5.9,12.1-0.7c1.5-1.8,5.9-3.3,7-2.6c3.3,3.3,5.1,7,7,10.2c-0.7,0.7-1.8,1.5-2.6,1.5c-5.9,0-12.1-1.5-17.9-1.5
		C354.8,893.1,346.4,889.4,343.1,897.8L343.1,897.8z M470.5,665.4c-1.8,1.8-3.3,4.4-4.4,6.6c-0.7,0.7,0.7,1.8,1.5,3.3
		c0,0.7,1.8,0,2.6,0C470.8,671.3,476,669.1,470.5,665.4c0.7-1.8,2.6-4,3.3-5.9c0-1.5-1.5-3.3-2.6-4.4c-1.8,3.3-4.4,5.9-6.6,9.2
		C466.5,664.7,468.3,664.7,470.5,665.4z M235.1,747.4c7-2.6,14.6-5.1,22-7.7c1.5-0.7,1.8-1.8,3.3-2.6c-1.5-0.7-2.6-2.6-4.4-2.6
		c-10.2-2.6-17.9,2.6-26.4,7.7c0,0,0,2.6,0.7,3.3C231.8,746.7,234,747.4,235.1,747.4c-3.3,0-6.6,0-9.5,0.7
		c-4.4,0.7-9.2,1.5-12.8,2.6c-3.3,1.5-4,4-0.7,5.9C217.9,761.7,233.3,755.4,235.1,747.4z M498.7,726.9c1.8-1.5,3.3-2.6,5.1-4.4
		c-2.6-1.8-5.1-4.4-8.4-6.6c-0.7-0.7-1.8,0.7-3.3,1.5c1.5,1.8,3.3,3.3,4.4,5.1c0.7,0.7,0,1.8,0.7,2.6c-5.1,0-6.6,2.6-4.4,7
		c1.5,3.3,2.6,7,2.6,10.2c-0.7,9.2-3.3,18.7-3.3,27.5c0,12.1,1.5,24.5,1.8,35.9c0,1.5,1.8,3.3,2.6,3.3c1.5,0,3.3-1.5,4-1.8
		c0.7-1.5,0.7-4,0.7-5.1c0-14.6,0-29.6-0.7-43.6C499.8,747.8,499.4,737.9,498.7,726.9z M280.9,722.5c-5.9,1.8-11.7,3.3-17.2,5.1
		c-1.5,0.7-2.6,1.8-4.4,2.6c1.8,1.5,3.3,4,5.1,3.3c5.1-1.5,10.2-3.3,15.4-4.4c1.8-0.7,4-1.8,5.9-2.6
		C284.2,725.8,282.7,724,280.9,722.5c-0.7-0.7-0.7-0.7-1.5-1.5v-0.7c2.6,0.7,5.9,1.8,8.4,2.6c1.8,0.7,5.9,1.5,5.9,0.7
		c1.8-4.4,2.6-9.5,4-14.6c-3.3-0.7-6.6-2.6-9.2-1.8c-21.2,6.6-43.2,12.8-64.4,19.8c-5.9,1.8-11,4.4-15.4,7.7c-1.8,1.5-2.6,4-4,5.9
		c1.8,0.7,4.4,1.8,6.6,1.5c6.6-2.6,12.8-5.1,18.7-8.4c4-1.8,7-4.4,11-7c0.7-0.7,2.6-1.5,3.3-0.7c4.4,3.3,5.1,3.3,7.7,2.6
		C261.5,725.1,270.6,718.8,280.9,722.5z M308.3,615.3c0.7,1.8,1.5,3.3,1.8,5.1c1.5-0.7,1.8-1.8,3.3-2.6
		C311.6,617.1,309.8,616.4,308.3,615.3c0-0.7,0.7-1.5,1.5-1.5c2.6-1.5,5.1-2.6,7.7-4c-2.6-1.8-5.1-4.4-7.7-5.1
		c-4.4-0.7-9.5-0.7-14.3-0.7c-4.4,0-8.4,0-12.8,0c0-0.7,0-0.7,0-1.5c1.8-1.5,4.4-1.8,8.4-4c-5.9-1.5-10.2-1.5-13.5-2.6
		c-8.4-3.3-16.1-7-24.5-9.5c-5.9-1.8-9.5,2.6-12.1,7c-1.8,4-1.5,6.6,2.6,7c5.9,1.5,11.7,1.8,17.9,2.6c3.3,0,6.6,0,9.5,0
		c-2.6,2.6-4.4,4-6.6,5.9c1.8,0,4.4-0.7,6.6,0c2.6,0.7,4.4,1.8,7,2.6C287.1,613.8,297,620,308.3,615.3z M735.1,690.3
		c-10.2,0-11-10.2-15.4-16.8c4.4,1.5,7.7,4,12.1,5.9c3.3,1.5,7,1.8,10.2,3.3c-2.6-3.3-5.1-7-8.4-10.2c-1.5-1.5-4.4-1.8-7-2.6
		c-4.4-1.8-8.4-3.3-12.8-5.1c-3.3-1.5-2.6-1.8,0-4.4c0-0.7,0.7-1.5,0-1.8c-5.9-2.6-7.7-9.5-14.3-12.8c-12.8-5.9-25.6-6.6-39.9-6.6
		c-6.6,0-12.8-2.6-19.4-3.3c-3.3,0-7.7,0.7-9.2,2.6c-2.6,4-3.3,9.2-4.4,13.5c2.6,0.7,5.9,1.5,8.4,1.5c1.8,0,3.3,0,5.1,0
		c-1.5,1.8-2.6,2.6-4.4,3.3c-1.8,0.7-4.4,0.7-6.6,1.5c-1.5,0.7-2.6,2.6-2.6,3.3c0.7,2.6,14.6,4.4,16.8,1.8
		c5.9-9.5,11.7-4.4,17.9-1.8c5.1,2.6,9.5,5.1,14.6,7.7c15.4,8.4,31.5,16.8,46.8,24.5c2.6,1.5,5.9,1.5,9.2,1.5
		C740.2,696.2,735.5,692.1,735.1,690.3c3.3-0.7,4.4-1.8,1.8-4.4c-2.6-1.8-5.9-2.6-10.2-5.1C730.4,685.2,732.9,687.4,735.1,690.3z
		 M538.9,700.2c-0.7-0.7-1.8-1.5-2.6-1.8c4.4-6.6,9.2-13.5,14.3-19.4c2.6-3.3,5.1-1.8,6.6,2.6c1.8,7.7,9.2,9.2,15.4,8.4
		c6.6,0,7-4.4,5.1-10.2c-2.6-9.2-5.9-18.7-6.6-28.2c-0.7-12.8,8.4-17.9,19.8-11.7c0.7,0.7,1.5,1.5,1.5,1.8c-0.7,0.7-1.8,1.5-2.6,1.5
		c-1.5,0-3.3-1.5-4.4-1.5c-3.3,0.7-6.6,1.5-9.2,3.3c-1.5,0.7-0.7,4-0.7,5.9c2.6,0,5.1-0.7,8.4-0.7c4.4-0.7,10.2,0.7,12.8-1.5
		c1.8-1.8,0-8.4,0-12.8c1.5-14.6-4-23.8-17.2-27.5c-9.5-3.3-18.7-4-28.9-0.7c-6.6,2.6-13.5,3.3-20.5,4c-12.1,1.5-16.8,5.1-18.7,17.2
		c-1.8,12.8-4.4,25.6-7,39.2c-1.8-3.3-3.3-7-5.9-9.5c-2.6-1.8-6.6-3.3-9.5-4c-0.7,0-2.6,2.6-3.3,4c0,0.7,0.7,1.8,1.8,2.6
		c11.7,6.6,14.3,11,11.7,23.8c-1.5-2.6-1.8-5.9-2.6-8.4c-1.5-3.3-1.8-7-4-9.5c-1.5-1.5-5.1-1.5-7-1.8c0,1.8,0,4,0.7,5.9
		c2.6,6.6,5.1,12.8,8.4,19.4c0.7,1.5,3.3,2.6,4.4,2.6c5.1-1.5,5.1,1.5,6.6,5.1c4,10.2,6.6,21.2,17.9,25.6
		c12.8,5.1,26.4,9.2,39.9,12.8c12.1,3.3,16.8,0,20.5-11.7c3.3-9.5,12.8-17.2,8.4-29.6c0-0.7,0.7-1.8,1.5-2.6
		c11.7-8.4,7-19.8,6.6-30.7c0-7.7-4.4-9.5-14.3-7c-6.6,1.5-10.2,4.4-7.7,11.7c1.8,5.1,4.4,10.2,5.9,15.4c1.5,4,1.8,7.7,2.6,11.7
		c0,0-1.5,1.5-1.8,1.5c-2.6-0.7-5.1-1.5-7.7-1.5c-7-0.7-16.1,0.7-20.5-3.3c-6.6-5.9-7.7-0.7-10.2,1.8
		C543,695.4,541.1,698,538.9,700.2z M680.9,750.7c1.5-3.3,1.8-6.6,3.3-9.2c0.7-1.5,3.3-1.8,3.3-1.8c-1.8-12.8,8.4-16.1,16.8-19.8
		c9.5-4,9.2-12.8,11-19.8c1.5-5.9-3.3-10.2-9.2-12.1c-12.8-5.9-25.6-11-38.1-16.1c-9.5-4.4-19.8-3.3-29.6-0.7
		c-11,3.3-13.5,8.4-11.7,19.8c0.7,2.6,0.7,5.9-0.7,8.4c-7.7,16.8,4,32.2,2.6,48.3c0,1.5,1.5,1.8,1.8,3.3c4,6.6,9.2,12.8,11.7,19.8
		c3.3,8.4,9.2,11.7,16.8,9.5c11.7-2.6,23.8-6.6,34.8-11.7c11-4.4,20.5-11,23.8-23.8c0.7-2.6,2.6-6.6,5.1-7
		c13.5-4,12.8-14.6,12.8-25.6c-1.5,1.8-3.3,4.4-4.4,6.6c0-5.1-0.7-11,5.9-12.8c0,0,0-2.6-0.7-4c-3.3,1.5-7,1.5-9.2,3.3
		c-2.6,2.6-3.3,7-4.4,11c-2.6,5.9-4,11.7-13.5,10.2c-5.1-0.7-12.8,4.4-16.1,9.5C688.6,738.6,691.9,747.4,680.9,750.7z M392.5,749.6
		c-4.4-5.1-7.7-9.2-11-12.1c-4-4-8.4-6.6-11.7-10.2c-4.4-5.9-9.2-4.4-10.2,1.5c-1.8,7.7-2.6,16.1-1.5,23.1c0.7,5.9,4,12.8,8.4,16.8
		c12.1,10.2,27.1,16.8,43.2,19.8c9.2,1.8,19.8-0.7,23.8-6.6c2.6-3.3,4.4-7,7.7-10.2c3.3-3.3,4-5.9-1.5-7c-7-1.5-14.6-2.6-22-4
		c-2.6-0.7-5.1-0.7-7.7-0.7c4.4-2.6,9.2-4.4,13.5-4c5.9,0,12.1,1.8,17.9,3.3c1.5,0,2.6,1.5,4,1.8c0-1.8,1.5-4,0.7-5.1
		c-1.5-2.6-3.3-5.1-5.1-5.9c-11.7-3.3-23.1-5.9-34,4c1.5-3.3,3.3-5.9,5.1-7.7c1.8-2.6,4.4-4.4,6.6-7c1.8-3.3,1.8-3.3,5.1-0.7
		c4.4,3.3,11.7,6.6,16.1,5.1c7-1.5,4-9.2,3.3-14.3c-1.5-9.2-2.6-17.2-2.6-26.4c0-9.5,4.4-12.8,14.3-10.2c1.5,0.7,4,0,4.4-0.7
		c2.6-4.4-1.5-14.6-5.9-16.1c-16.1-6.6-30.7-7-46.8,1.8c-12.8,7.7-25.6,12.1-31.5,29.6c-5.9,16.8-7,19.8,9.2,29.6
		c1.8,1.5,4.4,2.6,5.9,4.4C391.4,742.3,391.8,745.6,392.5,749.6z M547.3,817.3L547.3,817.3c0-4.4,0.7-9.5,0-14.3
		c-0.7-6.6-0.7-14.3-4.4-18.7c-8.4-9.5-19.4-16.8-28.9-24.9c-1.5-0.7-2.6-1.5-4-2.6c-0.7,1.5-1.5,2.6-1.5,4
		c-1.5,28.2-2.6,56.4-4,84.9c0,7,4.4,6.6,9.2,4.4c4.4-1.8,9.5-7.7,12.1-6.6c7,4,8.4-1.5,10.2-5.1c0-0.7,1.5-1.5,1.8-0.7
		c9.5,2.6,9.2-4.4,9.2-10.2C547.3,823.5,547.3,820.6,547.3,817.3z M500.5,885.7c1.5-0.7,2.6-1.5,4-1.8c11-3.3,22.3-5.1,33.3-9.5
		c9.5-4,22-4.4,27.1-16.1c1.8-4.4,4.4-9.2,8.4-13.5c5.9-7,8.4-16.1,12.1-24.5c0.7-1.8-0.7-5.1-1.5-7.7c-1.8,0.7-4.4,1.5-6.6,2.6
		c-8.4,6.6-10.2,17.9-22.3,22c-7,1.8-11,11.7-19.8,13.5c-7,1.8-13.5,5.9-20.5,6.6c-10.2,1.5-11,1.5-11.7,12.1c0,4,1.8,9.5-4.4,11.7
		c-0.7,0-0.7,1.8-0.7,2.6C498.7,883.9,499.4,885,500.5,885.7z M364.3,612c0-0.7-0.7-1.5-0.7-1.8c1.5-0.7,4-1.5,4.4-1.8
		c0.7-1.8,0.7-4.4,0.7-7c-1.5,0.7-3.3,1.5-4.4,1.5c-1.8,0-4.4-1.5-6.6-1.8c-2.6-1.5-4-3.3-6.6-4.4c-7-1.8-13.5-4.4-20.5-8.4
		c-16.1-9.2-34-15.4-51.2-23.1c-1.8-0.7-5.1,0-7.7,0.7c1.8,1.5,4,3.3,5.9,4.4c1.5,0.7,2.6,1.5,4,1.8c17.2,8.4,34.8,17.2,52,25.6
		c4.4,2.6,10.2,4.4,11.7,11.7c-7.7-4.4-14.6-8.4-21.2-12.1c-0.7,0.7-0.7,1.5-1.5,1.8c4.4,4.4,9.2,9.5,14.3,15.4
		c-4-0.7-5.9-1.8-7.7-1.5c-4.4,1.5-8.4,4-12.1,5.9c0,0,0,2.6,0.7,3.3c4,0,7.7,0.7,11.7,0c3.3-0.7,6.6-1.8,9.2-4
		c1.8-1.5,1.8-4.4,4-5.9c4.4-2.6,9.5-4.4,14.6-7c0,0,0,1.5,0,2.6c0,11,1.8,12.8,12.8,9.5c0,0,0.7,2.6,1.5,2.6c1.8,1.5,4,2.6,5.9,2.6
		c1.8,0.7,3.3-0.7,5.1-0.7c-1.5-1.5-2.6-3.3-4-4.4c-1.5-2.6-3.3-5.9-4.4-8.4c1.8,1.8,4,4,5.9,5.1c2.6,2.6,9.2,3.3,6.6,8.4
		c-5.1,10.2,1.8,13.5,8.4,17.9c1.8,1.5,4,1.5,5.9,1.8c-1.5-1.8-1.8-4.4-3.3-6.6c-0.7-0.7-1.8-1.5-3.3-1.8c-4.4-4-7.7-7.7-2.6-14.3
		c1.8-1.8,1.5-8.4,0-9.5c-4.4-3.3-10.2-5.1-16.1-6.6c-1.5,0-3.3,4.4-5.1,5.9C368.7,611.2,366.2,611.2,364.3,612z M460.2,772.6
		c0.7,5.9,0,11.7,1.8,15.4c5.1,9.2,11.7,16.8,17.9,24.9c1.5,1.5,2.6,1.8,4.4,3.3c0.7-1.8,1.5-3.3,1.5-5.1c0.7-20.5,1.8-41,1.8-61.5
		c0-16.1-1.8-16.8-15.4-9.2c-1.5,0.7-4,1.5-5.1,2.6c-1.8,1.8-4.4,4.4-5.1,7C460.6,757.6,460.6,765.3,460.2,772.6z M447.1,863.8
		c-2.6-4.4-4-7.7-6.6-10.2c-4-4.4-5.9-8.4,0-12.8c3.3-2.6,5.1-7.7,7-11c2.6,4,4.4,8.4,7,12.1c0.7,0.7,1.8,1.5,2.6,1.8
		c0.7-1.5,1.5-1.8,1.5-3.3c-0.7-13.5-1.5-27.1-1.8-40.6c0-1.5-1.8-2.6-3.3-3.3c-0.7,0-3.3,1.8-3.3,2.6c-0.7,4,0,8.4,0,12.1
		c0,1.8-1.5,4-1.8,5.9c-1.8-0.7-4-1.8-5.9-2.6c-1.5-0.7-2.6-1.8-4-1.8c-5.9-1.5-9.5,5.9-7,12.8c1.5,3.3,5.9,5.1,6.6,7.7
		c0.7,2.6-4.4,5.1-4.4,7.7c0,9.5,1.8,19.4,1.5,28.9c0,6.6-2.6,13.5-4,19.8c0,1.5,0.7,1.8,0.7,3.3c1.5-0.7,1.8-0.7,3.3-1.5
		c2.6-1.8,4.4-5.1,7.7-5.9c3.3-0.7,6.6,0,9.5,0.7c1.5,0,2.6,1.5,3.3,2.6c0.7,0.7,1.5,1.8,1.8,2.6c0.7-1.5,1.8-2.6,1.8-4
		c0-11.7,0-23.1,0-34c0-1.5-0.7-1.8-1.5-3.3c-1.5,0.7-1.8,1.5-3.3,2.6C452.9,856.5,450.4,859.8,447.1,863.8z M282,743.7
		c0.7-4.4,0.7-7,0.7-9.5c-2.6,0.7-5.1,1.8-7,2.6c-6.6,3.3-12.8,6.6-19.4,9.2c-9.2,3.3-16.8,7-13.5,17.9c-3.3-2.6-5.9-6.6-7.7-6.6
		c-5.9,1.8-12.1,4-15.4,8.4c-2.6,3.3-0.7,10.2-0.7,15.4c4-1.5,7.7-2.6,11.7-4c0.7,0,0.7-1.5,1.5-1.5c16.1-9.5,30-22.3,48.7-28.2
		c3.3-1.5,6.6-3.3,9.5-5.1c0.7-0.7,0-4,0-5.9c-1.8,0-4,0-5.1,1.5C284.2,739.7,283.5,740.8,282,743.7z M202.6,688.8
		c0.7-0.7,0.7-1.5,1.5-1.8c12.8-1.5,26.4-2.6,39.2-4.4c5.9-0.7,7-4.4,4-9.2c-5.1-7-13.5-8.4-21.2-8.4c-1.8,0-11.7-0.7-5.1,7
		c-1.5,0-2.6,0.7-4,0c-5.1-0.7-10.2-2.6-14.6-1.5c-5.1,1.5-14.3,1.8-12.8,9.5C189,684.4,197.4,685.9,202.6,688.8z M586.5,775.2
		c0-3.3,0-4.4,0-5.9c-0.7-2.6-1.5-5.1-1.8-7.7c-1.8,1.8-4.4,3.3-5.9,5.9c-2.6,4.4-4,10.2-7.7,12.8c-9.2,5.1-10.2,12.8-10.2,22
		c0,1.8,0,4,0,5.9c-1.5,5.9,1.5,13.5-9.2,14.3c-0.7,0-1.8,3.3-1.8,5.1c0,1.5,1.8,4,1.8,3.3c1.8-0.7,4-1.5,5.1-2.6
		c2.6-3.3,4.4-6.6,6.6-9.5c4-5.1,11-10.2,10.2-14.6c-0.7-7,3.3-11,6.6-13.5C586.1,785.8,586.5,780.3,586.5,775.2z M313.5,599.9
		c0-0.7,0.7-1.8,0.7-2.6c-2.6-1.8-5.9-4-8.4-5.9c-1.8-1.5-4.4-1.5-6.6-2.6c-5.9-3.3-11-7.7-16.8-10.2c-9.2-4.4-18.7-8.4-28.2-11.7
		c-2.6-0.7-5.1,0-7.7,0c0,2.6-0.7,6.6,0.7,8.4c1.5,2.6,4.4,4.4,7.7,5.9c7,3.3,14.6,5.9,22.3,8.4c2.6,0.7,7,6.6,7-1.8
		c1.5,0,3.3,0,3.3,0.7c4.4,9.2,14.3,8.4,21.2,12.1C309.8,601,311.6,599.9,313.5,599.9z M302.8,639.4c0-0.7,0-1.8,0-2.6
		c-7.7-1.5-14.6-2.6-22-4.4c-17.2-4.4-34-11-50.9-14.6c-5.9-1.5-12.8,0.7-19.4,1.8c-0.7,0-1.5,3.3-1.8,4.4c1.5,0.7,2.6,1.5,4,1.5
		c7,0,14.3-0.7,21.2-1.5c1.5,0,2.6,0,3.3,0.7c4.4,7.7,4.4,8.4,12.1,9.5c16.1,2.6,31.5,4.4,47.6,6.6
		C298.1,639.8,300.3,639.4,302.8,639.4z M184.6,709v-0.7c-6.6,0.7-13.5,1.8-19.8,2.6c-5.9,0-8.4,2.6-8.4,8.4c0,4-0.7,7.7-0.7,11
		c0,2.6,0.7,5.1,1.5,7.7c2.6-1.5,5.1-1.8,7-3.3c9.2-5.9,17.9-11,27.1-16.8c3.3-1.8,5.9-5.1,8.4-7c-3.3-0.7-7-1.5-10.2-1.5
		C187.6,709,185.7,709,184.6,709z M207.7,725.8c0,0.7,0.7,1.5,0.7,1.8c11-3.3,22-7,32.9-10.2c1.5-0.7,1.8-1.5,2.6-2.6
		c-0.7-1.5-1.8-2.6-2.6-2.6c-8.4-4.4-17.2-8.4-27.1-1.8c-4,2.6-9.2,4-13.5,5.9c-2.6,1.5-4.4,4.4-6.6,6.6c3.3,1.5,5.9,3.3,9.2,4
		C204.4,727.6,206.2,725.8,207.7,725.8z M599.3,756.9c-1.5-8.4-3.3-20.5-5.9-33.3c0-1.5-1.5-2.6-1.8-4.4c-1.5,1.5-3.3,2.6-3.3,4
		c0,5.1,0.7,10.2,1.5,16.1c1.8,11.7,4.4,23.1,4.4,35.5c0,9.5-1.5,19.8-1.8,29.6c0,1.5,1.5,3.3,1.8,4.4c1.5-1.5,2.6-1.8,4-3.3
		c0.7-1.5,1.5-3.3,1.5-5.1C599.3,787.3,599.3,774.5,599.3,756.9z M278.3,674.2c0,0.7-0.7,1.5-0.7,1.8c-2.6-1.5-5.9-2.6-7-4.4
		c-4.4-7-14.3-10.2-21.2-5.1c-0.7,0.7-1.5,1.8-1.5,3.3c1.8,9.5,5.1,11.7,14.6,11.7c3.3,0,6.6-0.7,10.2-1.5
		c7.7-1.5,16.1-2.6,23.8-4.4c1.5,0,2.6-3.3,2.6-5.1c0-1.5-1.8-3.3-3.3-3.3c-5.1-0.7-10.2-0.7-16.1,0c-2.6,0-5.1,1.5-7.7,1.8
		C275,670.5,276.5,672.4,278.3,674.2z M275.8,688.5c2.6,0,5.1-0.7,5.9,0.7c1.5,1.8,1.8,4,1.8,6.6c0,1.5-0.7,2.6-1.5,4
		c-1.5-1.5-2.6-1.8-4-3.3c-0.7-0.7-1.8-1.5-2.6-1.8c0,1.5,0,2.6-0.7,4c0,4.4,1.5,6.6,5.9,5.1c6.6-1.5,13.5-1.5,11.7-11
		c-0.7-1.8,0.7-4.4,1.8-7c2.6-5.9-0.7-6.6-5.1-5.1c-16.1,4-32.9,8.4-49.4,7c-1.5,0-2.6,0-4,0.7c-1.5,1.5-3.3,2.6-3.3,4
		s1.8,3.3,3.3,3.3c4,0,7.7-0.7,11.7-1.5C258.2,691,267.3,689.2,275.8,688.5z M662.3,819.9c0.7,1.5,1.5,4,3.3,4.4
		c1.5,0.7,4-1.5,5.1-2.6c11-9.5,16.8-22.3,22-35.5c0.7-1.5,0-2.6,0-4.4c-1.5,0.7-3.3,0.7-4.4,1.8c-5.9,5.1-10.2,11-16.8,14.6
		C663.7,804.5,664.8,812.2,662.3,819.9z M218.7,598.1c-2.6,1.5-4.4,1.8-6.6,2.6c1.5,1.8,1.8,4,4,5.1c2.6,1.8,5.9,4,9.2,4.4
		c12.8,4,24.9,7.7,38.1,11c1.5,0,3.3,0,3.3,0c0.7-1.8,0.7-4,0-5.1c-2.6-7-14.6-10.2-22-6.6c-0.7,0.7-3.3-0.7-3.3-1.5
		C236.6,599.2,224.9,604.3,218.7,598.1z M555.8,743c-5.9-3.3-11-5.9-16.8-8.4c-5.1-1.8-11-4.4-16.8-5.1c-5.1-1.5-8.4,1.5-5.1,6.6
		c2.6,4,5.9,8.4,9.5,11c3.3,1.8,8.4,4,12.1,2.6C544.8,748.9,549.9,745.6,555.8,743z M225.6,660.3c8.4,4.4,14.3-4,21.2-7.7
		c4-1.8,1.8-4-1.5-4.4c-8.4-0.7-16.8-1.8-24.5-1.8c-3.3,0-7,1.8-10.2,4c-1.8,1.5-4,4.4-4,6.6c0,1.5,4,3.3,5.9,3.3
		C216.5,660.3,220.5,660.3,225.6,660.3z M351.5,721c-14.6,22-13.5,44.3-10.2,67.3c0,0.7,1.5,1.8,1.8,2.6c0.7,0,1.8-0.7,1.8-1.5
		c0.7-1.8,1.5-4.4,1.5-7c0.7-8.4,0.7-17.2,1.5-25.6C349,744.5,350.1,733.5,351.5,721z M435,622.9c-1.5-1.8-1.8-3.3-3.3-5.1
		c-6.6-10.2-17.2-13.5-28.2-16.8c-7-1.8-14.3-4.4-20.5-6.6c-4-1.5-7.7-2.6-11.7-3.3c2.6,2.6,5.1,6.6,9.2,8.4
		c4.4,2.6,9.5,5.9,14.3,5.9c7,0,12.8,0,16.1,7c0.7,1.5,4,3.3,5.1,2.6c4-1.5,6.6-1.5,5.9,4c4.4,0.7,7.7,2.6,10.2,6.6
		C432.4,624.8,433.9,623.7,435,622.9z M474.1,526c4-1.8,5.9-3.3,7.7-4c-1.5-1.8-2.6-4-4.4-5.1c-4.4-1.8-9.2-4-13.5-5.9
		c-7-3.3-12.8-9.2-21.2-5.1c-1.5,0.7-4.4-1.5-6.6-1.8c-1.5-0.7-2.6,0-4-0.7c0.7,1.5,0.7,3.3,1.5,4c5.1,3.3,11,5.9,16.1,8.4
		C458,519.4,466.5,522.3,474.1,526z M336.9,676c-4,0.7-6.6,0.7-9.2,1.5c1.8,2.6,3.3,7,5.1,7c7,0,14.3-1.5,21.2-2.6
		c0,0-0.7-2.6-0.7-4.4c0-1.5,0.7-4,1.5-4.4c2.6-1.8,5.1-2.6,8.4-4c-2.6-1.8-5.1-4.4-8.4-5.9c-2.6-1.5-6.6-1.5-9.2-0.7
		c-1.8,0.7-4.4,1.8-5.9,4c-0.7,0.7,1.8,3.3,2.6,5.1c0.7,1.5,1.5,3.3,1.8,4.4c-1.5,0.7-2.6,1.5-4,1.5
		C339.5,676.4,337.3,676,336.9,676z M163.8,674.2c1.5,0.7,4,4,5.1,3.3c8.4-3.3,16.8-7,24.9-10.2c0.7-0.7,1.8-1.8,1.8-2.6
		c0-0.7-1.5-1.5-2.6-1.8c-5.1-1.5-11-1.8-16.1-4c-7.7-4-10.2,0-12.1,7C164.5,667.2,164.5,669.8,163.8,674.2z M429.9,818.8
		c-0.7-2.6,0-5.1-0.7-6.6c-2.6-3.3-5.1-8.4-8.4-9.5c-5.1-1.5-12.1-0.7-16.1,2.6c-6.6,4-1.5,10.2,0,16.1c0.7,1.5,2.6,1.8,4,3.3
		c0.7-3.3,1.5-7,2.6-10.2v-0.7c1.5-1.8,3.3-4,4.4-5.9c1.8,1.8,4.4,3.3,5.9,5.9c1.5,2.6,0.7,5.9,1.5,9.2c0,1.5,1.5,3.3,2.6,4
		c0.7,0.7,2.6-1.5,4-1.8C428.8,821.7,429.1,819.5,429.9,818.8z M169.6,785.8c7.7-9.2,14.6-16.8,21.2-24.9c1.5-1.5,1.8-3.3,2.6-4.4
		c-1.8,0-4,0-5.9,0c-5.1,0.7-10.2,0.7-15.4,2.6c-2.6,0.7-7,4-7,5.9C166.3,771.5,168.5,778.9,169.6,785.8z M264.8,694.7
		c-9.2,1.8-16.8,4-23.8,5.9c-4,1.5-4.4,2.6-1.5,5.9c8.4,8.4,16.8,5.1,24.9,1.8c2.6-1.5,4.4-4,7-5.9
		C269.2,699.8,266.6,696.5,264.8,694.7z M335.4,644.2c-3.3-5.9-5.1-9.2-7-12.8c-0.7,2.6-0.7,5.1-1.8,7.7c-0.7,1.5-2.6,2.6-4,4
		c-5.1,4.4-10.2,7.7-14.6,12.8c-1.8,1.8-0.7,6.6-0.7,9.5c0,1.5,1.5,2.6,2.6,4c1.5-1.8,2.6-3.3,4.4-5.1c1.5-0.7,2.6-1.8,4-1.5
		c1.8,0.7,3.3,1.8,5.1,2.6c-0.7-2.6,0-5.1-1.5-7c-3.3-5.9-1.5-9.5,5.1-10.2C330.3,647.1,332.1,645.6,335.4,644.2z M291.1,659.5
		c0-0.7,0-1.8,0-2.6c-2.6,0-4.4,0-7,0c-1.8,0-4.4,1.5-5.9,0.7c-10.2-9.5-20.5-10.2-30-0.7c-0.7,0.7,0,3.3,0,3.3
		C262.2,661.4,276.9,664.7,291.1,659.5z M519.2,504c0-1.5,0.7-1.8,0.7-2.6c-9.5-12.1-19.8-24.5-30-36.6c-0.7-0.7-1.8-0.7-3.3-1.5
		c0,0.7-0.7,1.8-0.7,2.6c1.5,4,2.6,7.7,5.1,10.2C498.7,487.5,506.4,498.5,519.2,504z M269.2,771.2c-1.8-0.7-3.3-1.8-4.4-1.8
		c-7-1.5-32.9,11-35.9,17.9c-0.7,1.5,0,4,0.7,5.9c0.7,0.7,3.3,0.7,4.4,0c10.2-5.9,21.2-12.1,31.5-18.7
		C266.6,773,267.3,771.5,269.2,771.2z M189,586.3c1.5,0.7,3.3,2.6,4.4,2.6c5.9,0.7,12.1,0.7,18.7,0.7c1.5,0,2.6-0.7,4-1.5
		c-0.7-1.5-1.5-3.3-2.6-4.4c-2.6-2.6-5.1-4-7.7-6.6c-4-3.3-7-6.6-11-9.5c-1.8,5.1-4,10.2-5.1,15.4
		C189.8,584.2,189.8,584.5,189,586.3z M521,554.1c1.5-12.8-11-20.5-11.7-33.3c0-4-10.2-7-16.8-10.2c-0.7,0-3.3,2.6-3.3,2.6
		c1.8,4,4,9.2,7,11c7.7,4,11.7,9.5,14.6,16.8C515.1,545,518.4,549.7,521,554.1z M273.9,614.5c-0.7,1.5-1.8,3.3-1.5,4
		c3.3,3.3,5.9,7,9.5,8.4c7,2.6,15.4,4.4,23.1,6.6c1.8,0.7,4,0.7,5.9,1.5c-1.5-2.6-2.6-5.9-4.4-7c-7.7-3.3-15.4-5.9-23.1-9.2
		C280.9,617.1,277.6,615.6,273.9,614.5z M222.3,639.4c0-0.7,0-0.7,0-1.5c7,1.5,14.3,2.6,20.5,4c1.5,0,3.3,0,4.4-0.7
		c-1.5-1.5-1.8-4-3.3-4c-11.7-3.3-23.1-5.9-34.8-7.7c-1.5,0-3.3,1.8-5.1,3.3c1.5,1.8,1.8,4.4,3.3,5.1
		C212.8,639.1,217.2,639.4,222.3,639.4z M508.9,504.7c3.3,9.5,6.6,18.7,18.7,18.7c1.5,0,2.6,3.3,4,4.4c1.5,1.8,3.3,3.3,5.1,5.1
		c0-2.6,0-5.1-0.7-7.7C531.2,512.4,521.7,507.7,508.9,504.7z M362.5,647.1c-0.7-0.7-1.5-1.5-1.5-1.8c-3.3,2.6-6.6,5.1-9.5,7
		c1.8,2.6,4,5.9,6.6,7c3.3,1.5,7.7,2.6,11,1.8c3.3-0.7,6.6-4,9.5-6.6c-2.6-2.6-4.4-5.9-7-7C368.4,647.1,365.8,647.1,362.5,647.1z
		 M201.8,704.2c0-0.7,0-1.5,0-1.8c9.2,1.8,16.1-1.5,21.2-8.4c0.7-0.7,0.7-1.8,1.5-3.3c-1.5,0-1.8-0.7-3.3-0.7
		c-6.6,1.5-13.5,1.8-19.4,4c-4.4,1.5-8.4,4-12.1,5.9C193.4,701.3,197.4,702,201.8,704.2z M450.4,732h-0.7c0,0.7-0.7,1.8,0,2.6
		c0.7,2.6,1.5,4.4,1.8,7c1.8-1.8,5.1-3.3,5.1-5.1c0.7-9.2,0-17.2-0.7-26.4c0-0.7-4-1.8-5.9-1.8c-1.5,0-2.6,3.3-2.6,5.1
		C447.8,719.9,449.3,725.8,450.4,732z M372.8,841.8c-1.5-1.5-1.8-2.6-3.3-4c-2.6-3.3-5.1-6.6-7-10.2c-1.8,3.3-4.4,7-5.9,10.2
		c-1.5,2.6-3.3,6.6-2.6,7.7c2.6,2.6,7.7,6.6,9.5,5.9C366.9,850.2,369.5,845.5,372.8,841.8z M641.8,782.5c6.6,8.4,11,16.8,9.5,27.5
		c0,3.3,0.7,6.6,1.8,9.5c0.7,1.5,2.6,2.6,4,3.3c0.7,0,2.6-1.8,2.6-3.3C664.5,806,656.8,789.1,641.8,782.5z M503.8,539.5
		c0.7-7-11-16.8-15.4-15.4c-1.8,0.7-4,2.6-5.1,5.1c-0.7,0.7,1.5,3.3,1.8,4.4c4,3.3,7,5.9,11,7.7C498.7,542.4,502,540.6,503.8,539.5z
		 M290.4,770.1c-1.8-1.5-4-2.6-5.1-1.8c-6.6,3.3-13.5,6.6-19.8,9.5c-1.5,0.7-1.5,4.4-2.6,6.6c1.8,0.7,4.4,1.8,6.6,0.7
		c5.9-2.6,11-6.6,16.8-9.5C287.8,775.2,288.6,773.4,290.4,770.1z M273.9,766.4c2.6-0.7,4-0.7,5.1-0.7c5.1-2.6,9.5-5.1,14.3-7.7
		c1.8-1.5,2.6-3.3,4-5.1c-2.6-0.7-5.1-1.8-7-1.5c-5.1,1.8-10.2,4.4-15.4,7c-2.6,1.5-4.4,2.6-6.6,4
		C269.9,764.2,271.7,766.1,273.9,766.4z M391.8,647.8c-1.5-1.8-1.5-2.6-1.8-3.3c-6.6-3.3-12.1-7-18.7-9.5c-1.8-0.7-5.1,3.3-7.7,5.1
		c2.6,1.8,4.4,4,7,4.4c4,1.8,8.4,4,12.8,4.4C386.3,649.3,388.9,648.6,391.8,647.8z M326.3,710.8c-1.5-1.5-3.3-6.6-4-5.9
		c-5.9,1.5-11,4-16.1,5.9c-1.5,0.7-1.8,1.8-3.3,2.6c1.5,1.5,2.6,2.6,4.4,2.6c3.3,0.7,6.6-0.7,9.2,0.7
		C320.8,718.8,325.9,717.4,326.3,710.8z M690.1,776.3c-3.3,0-5.1-0.7-6.6,0c-6.6,1.8-12.1,5.1-18.7,6.6c-5.9,0.7-4.4,1.5-3.3,6.6
		c2.6,6.6,4.4,5.1,8.4,2.6c4.4-3.3,9.5-6.6,14.3-9.5C686.1,780.7,686.8,778.9,690.1,776.3z M536,513.1c3.3-9.2-0.7-21.2-7.7-24.9
		c-0.7-0.7-3.3,0-3.3,0c-0.7,3.3-2.6,7.7-1.5,11c0.7,3.3,5.9,9.2,6.6,9.2C536.4,504,533.4,510.9,536,513.1z M479.3,513.1
		c0.7-0.7,1.5-1.5,1.8-1.8c-1.8-2.6-3.3-6.6-6.6-7.7c-8.4-4.4-17.2-9.2-26.4-12.8c-2.6-1.5-5.9-0.7-9.2-1.5c2.6,1.8,4.4,5.1,7,5.9
		C459.5,498.5,470.5,504,479.3,513.1z M519.9,482c-3.3-10.2-9.2-17.2-16.8-23.8c-0.7-0.7-4,0.7-3.3,0.7c0,2.6,0,5.1,1.5,7.7
		c0.7,0.7,3.3,0.7,5.1,1.5c1.5,0.7,3.3,0.7,3.3,1.8c1.8,4,3.3,8.4,5.1,12.1c0.7,1.8,1.8,4,3.3,5.9
		C517.7,486.8,519.2,484.6,519.9,482z M478.5,624.8c-1.8-0.7-2.6-1.8-3.3-1.5c-8.4,3.3-16.1,5.9-24.5,9.5c-1.5,0.7-0.7,4-1.5,6.6
		c1.8,0,4,1.5,5.1,0.7c6.6-3.3,12.1-7,17.9-11C474.9,628.1,476,626.6,478.5,624.8z M180.6,857.9c0.7,0,1.5,0,2.6,0
		c-1.5-11.7-1.8-23.1-3.3-34c0-1.5-1.5-1.8-1.8-2.6c-0.7,1.5-2.6,1.8-2.6,3.3C174.4,835.6,176.2,846.9,180.6,857.9z M310.5,674.6
		c0-0.7,0-1.5-0.7-1.5c-3.3,1.5-6.6,1.8-9.2,4c-1.5,0.7-0.7,5.9,0,5.9c3.3,1.5,9.2,2.6,9.5,1.5c2.6-5.9,7.7-4.4,12.1-4.4
		c0.7,0,1.8-2.6,1.5-4c0-0.7-1.8-1.8-3.3-1.8C317.5,673.5,313.5,674.2,310.5,674.6z M555.8,753.2c-12.8-2.6-20.5,7.7-15.4,19.4
		c0.7,1.5,1.8,1.8,3.3,2.6c0-1.5,0-2.6,0.7-3.3C548.1,765.3,544.1,755.1,555.8,753.2z M484.4,872.6c0,1.8-1.5,4.4-0.7,6.6
		c0,1.5,2.6,4,4,4c1.8,0,5.1-1.5,5.9-2.6c0.7-1.8-0.7-4-1.5-6.6c-5.9,1.8-2.6-1.8-2.6-4c0.7-2.6,0.7-5.9,0.7-8.4
		c0-1.5-1.5-2.6-1.8-3.3c-0.7,1.5-2.6,1.8-2.6,3.3C484.4,864.9,484.4,868.9,484.4,872.6z M429.9,638c-5.9-4.4-10.2-8.4-15.4-12.8
		c-0.7,1.5-3.3,3.3-2.6,4c2.6,4,4.4,7.7,7.7,11.7c1.5,1.5,4.4,1.5,6.6,1.5C426.6,641.6,427.3,639.8,429.9,638z M551.4,806
		c0,0.7,0,3.3,0.7,5.1c0,1.5,1.8,1.8,3.3,2.6c0.7-1.5,1.5-1.8,1.8-3.3c0.7-7,1.8-14.3,1.8-20.5c0-1.8-3.3-3.3-4.4-5.1
		c-0.7,1.8-1.8,3.3-1.8,5.1C551.4,795,551.4,799.4,551.4,806z M537.8,517.5c0.7,4,1.5,6.6,2.6,9.2c1.5,1.8,3.3,3.3,5.1,5.1
		c0-1.8,0.7-4.4,0.7-6.6c0-1.5-0.7-3.3,0-4.4c3.3-5.9,0.7-9.2-4-12.1C540.4,511.3,538.9,515,537.8,517.5z M281.6,644.5
		c-3.3-1.8-4-2.6-5.1-3.3c-5.1-1.5-11-2.6-16.1-3.3c-1.8,0-4.4,1.5-6.6,2.6c1.8,1.5,4,4,6.6,4.4c4.4,1.5,9.5,1.5,14.6,1.5
		C275.8,646.7,277.6,645.6,281.6,644.5z M339.8,702c-4,4.4-7,7-9.5,10.2c1.8,1.5,5.1,4.4,5.9,4.4c3.3-2.6,6.6-5.9,9.2-9.2
		C344.6,707.5,342.4,704.9,339.8,702z M366.9,586.3c-1.5-5.9-17.9-13.5-22-11c-0.7,0,0,2.6,0,3.3c5.9,3.3,12.1,6.6,17.9,9.2
		C364.3,588.2,365.8,586.3,366.9,586.3z M333.6,703.1c3.3-3.3,6.6-5.9,9.2-8.4c-1.5-1.5-3.3-4-4-4c-4.4,1.8-11.7-0.7-11.7,7.7
		C327,699.4,330.3,700.2,333.6,703.1z M279.4,553.4c0,1.5-0.7,1.8-0.7,3.3c7,3.3,14.6,6.6,22,9.5c1.5,0.7,2.6,0,4.4,0
		c-0.7-1.5-1.5-4-1.8-4.4C295.5,558.9,287.1,556.7,279.4,553.4z M356.7,636.1c1.8-1.8,5.1-4,7.7-5.9c-4-1.8-7.7-4.4-12.1-4.4
		c-1.5,0-3.3,5.1-5.1,7.7C350.1,634.3,352.6,634.7,356.7,636.1z M424,659.5c-2.6-2.6-4-4.4-5.1-6.6c-1.5-1.5-1.5-3.3-2.6-5.1
		c-1.8,2.6-4,5.1-6.6,7.7c2.6,2.6,5.1,5.1,8.4,6.6C419.6,662.8,421.4,660.3,424,659.5z M575.2,526c-1.5,1.8-3.3,3.3-3.3,4.4
		c-1.5,5.1-2.6,11-2.6,16.1c0,1.8,2.6,4,4,5.1c0.7,0.7,2.6,0,3.3,0c0-1.5-0.7-3.3-0.7-3.3c-7.7-1.8-3.3-5.9-1.8-9.5
		c0.7-3.3,1.8-5.9,2.6-9.2C577,528.5,575.5,527.8,575.2,526z M174.7,620c2.6,3.3,4.4,6.6,5.9,6.6c3.3-0.7,6.6-3.3,9.5-4.4
		c-3.3-1.8-7-4.4-10.2-5.9C179.5,615.3,177.3,617.5,174.7,620z M397.6,789.8c7,7,14.3,9.2,22,7.7c1.5,0,1.8-1.8,3.3-2.6
		c-0.7-0.7-1.8-1.8-2.6-1.8C413,791.7,406.1,791.3,397.6,789.8z M558.3,536.9c-1.5,0-2.6,0-3.3,0c0,5.9,0,12.1,0,17.9
		c0,1.5,1.8,2.6,3.3,4c0.7-1.5,1.8-2.6,1.8-3.3C559.8,549.7,559.1,543.9,558.3,536.9z M476,636.1c-1.5-0.7-2.6-1.8-2.6-1.5
		c-5.1,4.4-9.5,9.2-14.6,13.5c0,0,0.7,1.8,0.7,2.6c1.5,0,2.6,0,3.3-0.7c4-3.3,7.7-7,11.7-10.2C474.9,639.1,474.9,637.6,476,636.1z
		 M337.3,621.5c-1.8,3.3-4,5.9-3.3,7c1.5,3.3,4,5.9,5.9,8.4c1.8-1.8,5.1-4.4,4.4-6.6C343.8,628.1,340.5,625.1,337.3,621.5z
		 M449.6,655.5c-4,2.6-7,4-9.5,5.9c4,1.5,8.4,3.3,12.1,4.4c0.7,0,3.3-3.3,2.6-4.4C454.4,658.8,451.8,657.4,449.6,655.5z
		 M492.1,820.6c1.8,3.3,3.3,5.9,4.4,8.4c1.5-2.6,4-5.1,4-7.7c0-2.6-1.8-5.1-3.3-8.4C495.4,815.5,494.3,817.7,492.1,820.6z
		 M481.1,703.8c-0.7-1.5-1.5-2.6-2.6-3.3c-0.7,0-1.8,0-2.6,0.7c-3.3,4.4-5.9,8.4-8.4,13.5c0,0.7,1.8,1.8,3.3,3.3
		C474.1,712.6,477.4,707.9,481.1,703.8z M451.1,705.7c3.3-1.8,5.9-4,7.7-5.9c-2.6-1.5-5.1-4-8.4-4c-1.8,0-4,3.3-5.9,4.4
		C446.7,702,448.5,703.8,451.1,705.7z M429.9,646.7c-1.5,1.8-3.3,2.6-3.3,3.3c0.7,4,1.8,7,3.3,11c2.6-2.6,5.1-4.4,7.7-7
		C435.7,651.9,433.2,648.9,429.9,646.7z M497.9,698c-1.5,0-1.8,0.7-3.3,0.7c-0.7,1.8-1.8,4.4-1.5,5.9c1.5,2.6,4,4.4,5.9,7
		c1.5-1.5,4.4-4,4.4-4.4C502.3,704.2,499.8,701.3,497.9,698z M470.8,725.8c-1.8-2.6-3.3-4.4-4.4-6.6c-1.5,1.8-4,4.4-4,6.6
		c0,3.3,2.6,7,4,10.2C467.2,733.1,469,730.9,470.8,725.8z M300.7,693.2c0.7-0.7,1.5-1.5,1.8-1.8c-0.7-1.5-1.5-2.6-1.8-4
		c-1.5,1.5-3.3,2.6-3.3,4c-1.5,5.9,1.8,9.5,7,11.7c1.5,0.7,3.3,0,4.4,0c-0.7-1.5-1.5-3.3-1.8-4.4
		C305.4,696.5,302.8,695.4,300.7,693.2z M355.9,782.2c2.6,3.3,5.1,5.9,7.7,8.4c0.7-1.5,2.6-2.6,2.6-3.3c-1.8-4-4-7.7-5.9-11
		C359.2,777.4,357.8,778.9,355.9,782.2z M562.4,744.5c5.1,1.8,7.7,3.3,10.2,4.4c1.8,0.7,3.3,1.8,5.1,2.6c0.7-2.6,1.8-5.1,2.6-7.7
		c-1.8-0.7-4.4-2.6-6.6-1.8C570.4,742.3,567.5,743.7,562.4,744.5z M237.3,561.5c2.6-1.8,4-3.3,5.9-4.4c-1.8-2.6-4.4-5.9-6.6-8.4
		c-1.8,1.8-4,4-5.9,6.6C231.8,557.1,234.8,558.9,237.3,561.5z M229.3,911.4c0-1.5,0.7-3.3,0-4.4c0-1.5-1.5-2.6-1.8-4.4
		c-0.7,1.5-1.8,2.6-1.8,4.4c0,3.3,0,6.6,0,9.2s0,5.9,0,8.4c1.5-3.3,2.6-6.6,3.3-9.5C230,913.9,229.3,912.5,229.3,911.4z M754.1,702
		c-1.5-3.3-2.6-6.6-4-9.2c-0.7-1.5-1.8-1.5-3.3-1.8c0,1.5-0.7,2.6,0,4.4c0,1.8,1.5,3.3,0.7,5.1c0,1.8-1.5,3.3-2.6,4.4
		c1.8,0.7,4,1.8,5.1,1.5C751.6,705.7,753,703.8,754.1,702z M192.7,786.2c-3.3-2.6-5.1-4-6.6-5.1c-1.5,3.3-3.3,5.9-4.4,9.2
		c0,0.7,1.8,2.6,2.6,4C187.2,792,189,790.6,192.7,786.2z M241,796.1c0.7,0.7,1.5,1.5,1.5,1.8c4.4-2.6,9.5-5.1,14.3-8.4
		c1.5-0.7,1.5-3.3,1.8-4.4c-1.8,0-4-0.7-5.1,0C249.4,789.1,245.4,793.1,241,796.1z M344.6,569.9c0-0.7,0-1.8,0-2.6
		c-4-0.7-7-1.5-11-1.8c-1.5,0-3.3,1.5-4.4,2.6c3.3,1.5,6.6,4,9.5,4.4C339.8,572.4,342.4,571,344.6,569.9z M353.4,781.1
		c-0.7,0-1.8,0-2.6,0c0,5.9,0,12.1,0,17.9c0,1.5,1.5,1.8,1.8,2.6c0.7-1.5,2.6-2.6,1.8-3.3C354.8,793.9,354.1,787.3,353.4,781.1z
		 M657.9,864.9c2.6-3.3,4.4-5.1,5.9-6.6c-1.8-1.5-4-4-5.9-4.4c-1.5,0-4,3.3-4.4,5.1C653.5,860.1,656.1,862,657.9,864.9z
		 M175.5,623.7c-1.8-3.3-3.3-5.9-4.4-7.7c-1.8,4-3.3,7-4.4,11c0,0.7,1.8,1.8,2.6,3.3C171.1,628.4,172.9,626.6,175.5,623.7z
		 M407.5,652.6c-0.7-1.5-1.8-2.6-2.6-3.3c-1.5-0.7-2.6-1.8-3.3-1.8c-2.6,1.8-5.1,4-7.7,6.6c1.8,1.5,3.3,3.3,4.4,3.3
		C401.7,656.6,404.2,654.4,407.5,652.6z M695.2,788.4c1.5,0.7,1.8,0.7,3.3,1.5c2.6-4.4,4.4-9.2,6.6-13.5c0.7-1.5-0.7-2.6-0.7-4
		c-1.5,0.7-3.3,1.5-4,2.6C698.5,778.9,697,784,695.2,788.4z M524.3,543.2c0.7-0.7,1.8-1.5,1.8-1.8c-3.3-5.1-5.9-9.5-9.2-14.6
		c-0.7,0.7-1.8,1.5-1.8,1.5C518.4,533.3,521.7,538,524.3,543.2z M171.8,747.4c-2.6-2.6-4-4-5.1-5.9c-1.8,1.8-4,4-5.1,6.6
		c-0.7,1.5,2.6,3.3,4,5.1C167.1,751.4,168.5,749.2,171.8,747.4z M386.3,792c0-0.7,0-1.5,0-2.6c-4-1.5-7.7-3.3-11.7-4.4
		c-0.7,0-1.8,1.5-3.3,2.6c3.3,1.8,5.9,4.4,9.2,5.9C382.3,794.2,384.1,793.1,386.3,792z M365.1,674.2c-1.5,2.6-3.3,5.1-3.3,5.9
		c2.6,2.6,5.9,4.4,9.2,7c0.7,0,1.8-1.5,3.3-2.6C371.3,680.8,368.7,677.5,365.1,674.2z M566,598.1c3.3-1.5,5.1-2.6,7-3.3
		c-2.6-1.5-4.4-3.3-7-3.3c-2.6,0-5.1,0.7-7,1.5C560.9,595.1,563.5,596.6,566,598.1z M218.7,851c-0.7-0.7-1.8-0.7-2.6-1.5
		c-1.8,4-4,7.7-5.1,12.1c-0.7,1.5,0,2.6,0,4c1.5-0.7,3.3-1.5,4-1.8C216.1,860.1,217.2,856.1,218.7,851z M322.6,565.1
		c1.8-0.7,4-1.8,5.9-2.6c-1.8-0.7-4-1.5-6.6-1.8c-1.8-0.7-3.3-1.5-5.1-1.8c-1.8,0-3.3,0.7-5.1,1.5c1.5,1.5,1.8,3.3,3.3,4.4
		C317.5,564.4,319.3,564.4,322.6,565.1z M318.2,694.3c0-0.7,0-1.8,0-2.6c-1.8-0.7-4-1.8-5.9-1.8c-1.8,0.7-4,2.6-5.9,3.3
		c1.8,1.5,3.3,4,5.1,4C313.5,697.2,315.7,695.4,318.2,694.3z M343.8,724c-1.8-1.5-3.3-2.6-4-1.8c-2.6,1.5-5.1,3.3-7.7,4.4
		c1.5,1.5,4,4,4.4,4C339.5,728.7,341.3,726.9,343.8,724z M297.7,744.1c3.3-2.6,7-4.4,7-6.6c0-2.6-2.6-5.9-4.4-8.4
		c-1.5,3.3-2.6,6.6-3.3,10.2C297,740.8,297.7,742.3,297.7,744.1z M536.4,590.7c1.8-1.5,3.3-1.8,4.4-3.3c-2.6-1.5-5.9-2.6-8.4-3.3
		c-1.8,0-4,1.5-5.9,1.8C530.9,587.1,533.4,589.3,536.4,590.7z M409.4,639.1c0-7.7-7-9.5-14.3-12.1
		C400.2,630.6,405,634.7,409.4,639.1z M663.7,836.3c-1.8-2.6-3.3-4-4.4-5.9c-1.5,3.3-3.3,5.9-4,9.2c0,0.7,1.8,2.6,3.3,4
		C660.4,841.8,661.9,839.6,663.7,836.3z M567.8,767.5c4.4-5.1,5.1-10.2-0.7-14.6c-0.7-0.7-1.8-0.7-3.3-0.7c0,0-0.7,1.5-0.7,1.8
		C564.9,758.7,566,762.4,567.8,767.5z M161.2,702c-2.6-2.6-4.4-4-5.9-5.1c-1.8,1.8-4,4-5.1,5.9c0,0.7,2.6,4,4,4
		C156.8,705.7,158.3,703.8,161.2,702z M351.5,775.2c0.7,0,0.7,0,1.5,0c0-6.6,0-12.8,0-19.4c-0.7,0-0.7,0-1.5,0
		C351.5,762.4,351.5,768.6,351.5,775.2z M731.1,790.6c-0.7-1.5-1.8-2.6-2.6-4c-1.5-0.7-2.6-1.5-2.6-1.5c-2.6,2.6-5.9,5.1-7.7,8.4
		l1.8,3.3C723.4,795,727.4,793.1,731.1,790.6z M353.4,617.5c0-0.7,0-1.5,0-1.8c-3.3,0-5.9,0-9.2,0.7c-1.5,0.7-1.8,3.3-2.6,5.1
		c1.8,0.7,4,1.5,5.9,0.7C349.7,621.5,351.5,618.9,353.4,617.5z M693.4,871.1c1.5,2.6,2.6,4,3.3,5.9c1.5-3.3,2.6-5.9,3.3-9.2
		c0-1.5-0.7-3.3-1.5-4.4C696.3,866.3,694.5,868.2,693.4,871.1z M452.9,848.8c-0.7,0-1.8-0.7-2.6-0.7c0-1.8-0.7-4-0.7-6.6l-0.7-0.7
		c-1.5,0.7-3.3,1.5-4,1.8c-0.7,2.6-0.7,5.1,0,7c0,1.5,3.3,2.6,4,1.8C451.1,852.1,451.8,850.2,452.9,848.8z M511.5,740.8
		c-0.7,9.2,1.5,12.1,11,14.3C518.4,749.6,515.1,745.9,511.5,740.8z M433.9,632.5c-0.7,3.3-1.8,4.4-1.5,5.9c1.8,2.6,4,4.4,5.9,7
		c0.7-1.5,2.6-2.6,1.8-3.3C439,639.1,436.8,636.9,433.9,632.5z M213.9,843.3c3.3-3.3,5.9-6.6,7.7-9.2l-1.8-1.8
		c-2.6,2.6-5.9,5.1-7.7,7.7C212.1,839.6,213.5,841.1,213.9,843.3z M376.1,678.2c0.7,0,1.8,0,2.6,0c0-3.3,0-6.6,0-9.5
		c-2.6,0-4.4,0-7,0C372.8,671.3,374.6,674.6,376.1,678.2z M704,848.8c-1.8-1.8-2.6-4-4-5.1c-1.5,2.6-3.3,4.4-4,7
		c0,1.5,1.5,3.3,2.6,4.4C700.3,852.8,702.2,850.6,704,848.8z M713.9,639.8c-2.6-1.8-5.1-4-5.1-3.3c-1.8,1.8-4,4-5.9,6.6
		c1.5,0.7,2.6,2.6,4,1.8C708.8,644.2,710.6,641.6,713.9,639.8z M417,838.2c-1.5,0-2.6,0-3.3,0c0.7,5.1,1.5,11,1.8,16.1
		c0.7,0,1.5,0,2.6,0C417.8,848.4,417,843.3,417,838.2z M401.7,606.5c-1.8,2.6-4.4,4.4-4,4.4c1.5,1.8,3.3,4,5.1,5.9
		c0.7,0,3.3-1.5,3.3-1.8C405,612.7,403.5,610.1,401.7,606.5z M384.8,663.2c1.8-1.8,3.3-3.3,4.4-5.1c0-0.7-1.5-1.8-1.8-3.3
		c-1.8,1.5-4.4,3.3-6.6,4.4C381.5,660.3,383,661.4,384.8,663.2z M171.8,645.3c-2.6-1.5-4.4-3.3-5.1-2.6c-1.8,0.7-3.3,2.6-5.1,4
		c1.5,0.7,2.6,2.6,4,2.6C167.1,648.6,169.3,647.1,171.8,645.3z M361.8,704.2c-3.3-1.8-5.1-4.4-5.9-4c-1.8,0.7-3.3,3.3-5.1,4.4
		c1.5,0.7,3.3,2.6,4.4,2.6C357.4,707.1,358.5,705.7,361.8,704.2z M734.4,758.4c0-0.7,0-1.5,0.7-1.8c-1.8-1.5-4.4-3.3-6.6-4
		c-1.5-0.7-2.6,1.5-4.4,1.8c1.5,1.5,3.3,3.3,5.1,4C730.4,759.8,732.5,758.4,734.4,758.4z M325.9,633.2c-3.3-1.5-5.1-3.3-6.6-3.3
		c-1.5,0.7-2.6,2.6-4,4c1.8,0.7,3.3,1.8,5.1,1.8C321.9,636.1,323.3,634.7,325.9,633.2z M698.5,892.7c-1.5-1.8-1.8-4-2.6-5.9
		c-1.5,2.6-2.6,4.4-3.3,7c0,1.8,1.5,3.3,1.8,5.1C695.9,896.7,697,894.9,698.5,892.7z M746.1,777c-3.3-1.5-4.4-2.6-5.1-1.8
		c-1.8,1.5-4,3.3-5.1,5.1c0,0,1.8,2.6,1.8,1.8C739.5,780.7,742.1,779.6,746.1,777z M216.1,874c-1.5-1.8-2.6-2.6-3.3-4
		c-1.5,1.8-3.3,3.3-4.4,5.1c0,0.7,1.8,2.6,2.6,3.3C212.8,877.7,213.9,875.9,216.1,874z M369.5,696.5c-1.5-1.5-3.3-2.6-3.3-2.6
		c-1.8,1.5-3.3,2.6-4.4,4.4c0,0.7,1.8,2.6,2.6,4C366.2,700.2,367.6,698.3,369.5,696.5z M394.7,669.1c-1.8-1.5-2.6-2.6-4-3.3
		c-1.5,1.8-2.6,3.3-4.4,5.1c1.5,0.7,2.6,2.6,3.3,2.6C390.7,672.4,391.8,670.5,394.7,669.1z M400.9,668.3c2.6-1.8,4.4-3.3,5.9-4.4
		c-1.5-0.7-3.3-3.3-4-2.6c-1.8,0.7-3.3,2.6-4.4,4C398.4,665.4,399.8,666.5,400.9,668.3z M349.7,700.2c1.5-2.6,3.3-4.4,3.3-5.9
		s-1.5-3.3-2.6-4.4c-1.5,1.5-3.3,1.8-3.3,3.3C347.1,696.2,348.2,696.9,349.7,700.2z M337.3,657.4c1.8-2.6,4-4.4,4.4-6.6
		c0-0.7-2.6-2.6-2.6-2.6c-1.8,1.5-4,2.6-5.1,4C334.3,652.2,336.2,654.4,337.3,657.4z M319.3,571.3c-0.7,0.7-0.7,1.5-1.5,2.6
		c4,1.8,7.7,3.3,11.7,5.1c0.7-0.7,0.7-1.8,1.5-2.6C327.7,574.6,323.3,573.5,319.3,571.3z M216.1,820.6c-2.6-1.5-4-2.6-5.1-2.6
		c-1.5,0-2.6,1.8-3.3,3.3c0,1.5,1.8,3.3,1.8,3.3C212.1,823.5,213.5,822.8,216.1,820.6z M223.1,914.3c-1.5,0-2.6-0.7-3.3-0.7
		c-0.7,3.3-1.5,6.6-1.8,9.5c0,0,1.5,0.7,1.5,0C220.5,920.5,221.6,917.6,223.1,914.3z M704.7,834.1c0.7-4,1.8-5.9,1.8-7.7
		c0-0.7-1.5-1.8-1.8-2.6c-1.5,1.8-2.6,4.4-3.3,6.6C701.4,830.8,702.9,832.3,704.7,834.1z M183.2,602.8c-1.8-1.8-3.3-3.3-4-3.3
		c-1.8,0.7-3.3,1.8-5.1,2.6c0.7,1.5,1.8,3.3,2.6,3.3C178.8,605.4,179.9,604.3,183.2,602.8z M506.4,552.7c-1.5,1.5-1.8,2.6-1.8,2.6
		c1.5,2.6,3.3,4.4,5.1,7c0.7-0.7,1.8-1.5,1.8-1.8C510,557.8,508.9,555.2,506.4,552.7z M536,765c-3.3-2.6-5.9-4-7.7-5.1
		c-0.7,0-1.5,1.5-2.6,1.5c1.8,1.8,4,4,5.9,5.1C532,766.4,533.4,765.3,536,765z M332.9,661.7c-1.5,1.5-2.6,2.6-3.3,3.3
		c1.8,0.7,3.3,1.8,5.1,2.6c0.7,0,1.8-1.8,2.6-2.6C335.4,663.6,334.3,663.2,332.9,661.7z M472.3,698.3c1.5-1.8,2.6-4,2.6-5.1
		c0-0.7-1.5-1.8-1.8-2.6c-1.8,1.5-3.3,3.3-5.1,4.4C469,696.5,469.8,696.9,472.3,698.3z M706.6,810.3c1.5,0.7,3.3,1.8,3.3,1.8
		c1.8-1.8,3.3-3.3,4.4-5.1c0-0.7-1.5-1.8-1.8-2.6C710.6,806,708.8,807.8,706.6,810.3z M583.9,799c-1.8,2.6-3.3,4-4,5.9
		c0,0,2.6,2.6,2.6,1.8c1.5-0.7,2.6-1.8,3.3-3.3C586.5,802.7,585.4,800.8,583.9,799z M397.6,804.5c-3.3-1.8-4.4-3.3-7-4
		c-0.7,0-1.8,1.5-2.6,1.8c1.8,1.5,3.3,3.3,5.1,4C394,806.7,395.1,805.2,397.6,804.5z M607,766.1c0.7-3.3,1.5-5.1,0.7-6.6
		c0-1.5-1.8-1.8-3.3-2.6c-0.7,1.5-1.8,2.6-1.8,3.3C604.1,761.7,605.2,762.4,607,766.1z M247.6,545c-1.8-1.5-3.3-3.3-4-3.3
		c-1.5,0-2.6,1.5-4,2.6c0.7,0.7,1.8,2.6,2.6,2.6C243.6,546.8,245,545.7,247.6,545z M362.5,688.5c-2.6-0.7-4-1.8-5.1-1.8
		c-0.7,0-2.6,1.8-2.6,2.6c0,1.5,1.5,2.6,1.8,4C357.8,692.1,358.5,691,362.5,688.5z M496.1,566.2c-2.6-1.8-4.4-3.3-6.6-4l-1.5,1.5
		c1.5,1.8,3.3,3.3,4.4,5.1C493.5,568.8,494.6,567.7,496.1,566.2z M299.6,766.4c-1.8-0.7-2.6-1.5-3.3-1.8c-0.7,1.8-1.8,3.3-2.6,5.1
		l1.5,1.5C296.3,769.7,297.7,768.6,299.6,766.4z M507.5,737.9c1.5-1.8,2.6-3.3,2.6-3.3c-0.7-1.8-1.8-3.3-3.3-5.1
		c-0.7,0.7-1.8,1.5-1.8,1.8C504.9,733.1,506.4,734.6,507.5,737.9z M312.4,728.4c-1.5,1.8-2.6,2.6-2.6,3.3c0.7,1.8,1.8,3.3,2.6,5.1
		c0.7-0.7,1.8-1.8,1.8-2.6C314.2,732,313.5,729.8,312.4,728.4z M469,610.1c-2.6-1.5-3.3-2.6-4-2.6c-1.8,0.7-3.3,1.8-5.1,2.6
		c0.7,0.7,1.5,1.5,1.8,1.5C463.2,612,465.4,611.2,469,610.1z M308.3,725.8c1.8-1.5,3.3-2.6,4.4-3.3c-1.5-0.7-2.6-2.6-3.3-2.6
		c-1.5,0.7-2.6,1.8-3.3,3.3C305.8,723.6,307.2,725.1,308.3,725.8z M441.9,789.8c-0.7-1.5-1.5-1.8-1.8-2.6c-0.7,0.7-1.8,1.8-1.8,2.6
		c0,0.7,1.5,1.8,1.5,2.6C440.1,791.7,440.8,791.3,441.9,789.8z M221.6,848.8c1.5-1.5,3.3-1.8,2.6-2.6c0-1.5-1.5-2.6-1.8-3.3
		c-0.7,0-2.6,1.5-2.6,1.5C219.8,845.5,220.5,846.9,221.6,848.8z M225.6,887.2c-1.5,1.5-1.8,2.6-2.6,4l1.5,1.5
		c1.5-0.7,1.8-1.5,3.3-2.6C227.5,889.4,226.7,888.7,225.6,887.2z M209.5,564.4c-1.8-0.7-3.3-1.8-4-1.5c-1.5,0.7-1.8,1.8-3.3,2.6
		c0.7,0.7,1.8,1.8,2.6,1.8C205.9,566.9,207,566.2,209.5,564.4z M471.6,683.7c-1.8-0.7-3.3-1.5-4.4-1.8c-0.7,0-1.5,1.5-1.5,1.8
		c1.5,0.7,2.6,1.5,4,1.8C470.5,685.9,470.8,685.2,471.6,683.7z M186.5,579c1.5-2.6,1.8-4.4,2.6-5.9c0,0-1.5-0.7-1.8-1.5
		c-0.7,1.5-1.5,2.6-1.8,4C184.6,576.1,185,577.9,186.5,579z M308.3,758.7c-1.5-1.5-1.8-2.6-3.3-3.3c0,0-1.5,0.7-1.8,1.5
		c0.7,1.5,1.8,2.6,2.6,3.3C305.8,760.2,307.2,759.8,308.3,758.7z"/>
	<path fill="#7F7F7F" d="M612.9,906.6c1.8-23.8,4-47.6,5.9-72.1c0.7-5.1-1.5-10.2-1.8-14.6c0-2.6-4-8.4,4-7c0.7,0,1.8-5.1,2.6-8.4
		c0.7-1.8,1.8-3.3,2.6-5.1c1.5,1.8,3.3,4,3.3,5.9c-0.7,7-1.8,14.3-2.6,21.2c-1.5,11.7-3.3,22.3-4.4,34c-1.5,14.6-1.5,30-1.8,45
		c0,4.4-0.7,9.2-1.8,13.5c-0.7,1.8-1.8,3.3-2.6,4.4c-1.5-1.8-4-4-4.4-5.9C611,914.3,611.8,910.6,612.9,906.6
		C612.1,906.6,612.1,906.6,612.9,906.6z"/>
	<path fill="#7F7F7F" d="M260.4,820.6c0.7,6.6,1.5,12.8,2.6,20.5c-1.5-0.7-2.6-1.5-4-1.8c-2.6-1.5-4.4-1.8-7-3.3c0,2.6,0,5.9,0,8.4
		c0,0.7,0.7,1.5,0.7,1.5c0.7,2.6,1.8,5.1,2.6,7.7c-4,0-7.7,0.7-11-0.7c-1.5-0.7-1.5-4.4-1.8-7c-0.7-3.3-1.5-6.6-2.6-9.2
		c-2.6-4.4-6.6-8.4,0.7-11.7c1.5-0.7,1.5-4,1.8-5.9c0.7-1.8,1.5-5.1,3.3-6.6c1.8-1.8,5.1-2.6,7.7-3.3c-0.7,2.6-1.5,4.4-1.5,7
		c0,1.8,0,4.4,0,6.6C254.5,821.7,257.8,821.3,260.4,820.6z"/>
	<path fill="#7F7F7F" d="M246.1,922.3c-0.7-2.6-0.7-4.4-1.5-5.9c-1.5-3.3-5.1-8.4,1.5-9.5c5.1-1.5,11,0.7,16.8,1.5
		c-0.7,1.8-1.5,4-1.5,5.9c-0.7,1.8-0.7,3.3-0.7,5.1c1.8,0,3.3,0,5.1,0c2.6-0.7,4.4-1.5,7-1.5c0,2.6,1.5,5.9,0,8.4
		c-0.7,1.5-4.4,1.5-6.6,1.5c-5.9,0.7-12.1,0.7-17.9,1.5c-2.6,0-5.9,0-7.7-1.5c-1.5-0.7-1.8-4-3.3-5.9c1.8,0,4,0,5.9,0
		C243.6,920.5,244.3,921.6,246.1,922.3z"/>
	<path fill="#7F7F7F" d="M377.9,911.4c-9.5-0.7-19.4-1.5-28.9-1.5c0-0.7,0-0.7,0-1.5c9.5,0,19.4,0,28.9,0
		C377.9,909.5,377.9,910.6,377.9,911.4z"/>
	<path fill="#7F7F7F" d="M368.7,916.9c-7,0.7-14.6,1.5-22,1.8c-0.7,0-1.5-0.7-1.8-1.5c0.7-0.7,1.5-1.8,2.6-1.8c7,0,14.6,0,22,0
		C368.7,915.8,368.7,916.5,368.7,916.9z"/>
	<path fill="#7F7F7F" d="M252,864.5c1.5,1.5,1.8,1.8,2.6,2.6c-3.3,2.6-5.9,4.4-9.2,7c-0.7-1.5-1.8-3.3-2.6-4.4
		C246.1,867.4,248.7,866.3,252,864.5z"/>
	<path fill="#7F7F7F" d="M246.1,888.7c9.2,2.6,9.2,2.6,15.4-0.7c-1.5,2.6-3.3,5.1-4.4,7.7C253.8,893.1,250.1,890.9,246.1,888.7
		L246.1,888.7z"/>
	<path fill="#7F7F7F" d="M253.1,883.5c-1.5-2.6-3.3-4.4-3.3-5.9c0.7-1.5,2.6-2.6,4-4c1.5,1.8,2.6,3.3,2.6,5.1
		C257.8,879.9,255.3,881.7,253.1,883.5z"/>
	<path fill="#7F7F7F" d="M450.4,916.9c-2.6,0-5.9,0.7-8.4,0.7c0-0.7,0-1.5,0-1.8c2.6-0.7,5.1-1.5,7.7-1.8
		C449.6,914.3,449.6,915.8,450.4,916.9z"/>
	<path fill="#7F7F7F" d="M343.1,898.2c3.3,0.7,7,0.7,10.2,1.5c0,1.5-0.7,1.8-0.7,3.3C349,901.1,346.4,899.7,343.1,898.2L343.1,898.2
		z"/>
	<path fill="#7F7F7F" d="M380.4,918.3c-1.5,0-2.6,1.5-4,0.7s-2.6-1.5-3.3-2.6c0.7-0.7,1.5-1.8,1.5-1.8c1.5,0,2.6,0.7,4,0.7
		C379,916.5,379.7,917.6,380.4,918.3z"/>
	<path fill="#7F7F7F" d="M561.6,881.7c-1.5,1.5-1.8,1.8-2.6,2.6c-1.5-1.5-2.6-2.6-4-4c0,0,1.5-1.8,1.8-1.8
		C558.3,879.2,559.8,879.9,561.6,881.7z"/>
	<path fill="#7F7F7F" d="M246.8,888.7c-2.6-1.8-5.9-3.3-8.4-5.1c0.7-0.7,1.5-1.8,1.8-2.6C242.5,883.5,244.3,885.7,246.8,888.7
		L246.8,888.7z"/>
	<path fill="#7F7F7F" d="M533.4,639.4c1.8-1.5,4-3.3,5.9-3.3c5.9,0,11.7,0.7,17.2,1.8c1.5,0,2.6,1.8,3.3,3.3c-1.5,0.7-2.6,1.8-4,1.8
		c-7.7-0.7-15.4-1.5-23.1-1.8C533.4,640.9,533.4,639.8,533.4,639.4z"/>
	<path fill="#7F7F7F" d="M583.9,710.1c-7,0-14.3,0-21.2,0c-1.5,0-2.6,0-4,0c-1.8,0.7-4,1.5-5.9,1.8c1.8-1.8,4-4.4,5.9-5.1
		C567.5,704.2,575.5,704.2,583.9,710.1z"/>
	<path fill="#7F7F7F" d="M547.3,650.4c1.8,0.7,4,0.7,6.6,1.8c0.7,0,0.7,1.8,0.7,3.3c0,0.7-1.5,1.5-1.8,1.5c-4.4,0-9.2,0-13.5,0
		c-1.5,0-2.6-0.7-4-1.5c1.5-1.5,1.8-2.6,4-3.3C541.1,650.8,543.7,650.8,547.3,650.4z"/>
	<path fill="#7F7F7F" d="M560.9,715.9c4-0.7,7.7-1.8,11.7-2.6c0,0.7,0.7,1.8,0.7,2.6c-4,0.7-7.7,1.5-11.7,1.8
		C561.6,717.7,560.9,717.4,560.9,715.9z"/>
	<path fill="#7F7F7F" d="M635.6,694.7c5.1,0,11,0,16.1,0c0.7,0,2.6,2.6,2.6,4c-1.5,7.7-4,14.6-5.1,22c-0.7,2.6-0.7,7,1.5,8.4
		c2.6,1.8,7,1.8,10.2,1.8c3.3,0,5.1-8.4,9.2-1.5c0.7,0.7-4.4,5.1-7.7,6.6c-5.1,2.6-9.5,2.6-14.3-1.8c-1.8-1.8-6.6-1.8-9.2-3.3
		c2.6-6.6,7-13.5,9.5-21.2c3.3-10.2,1.5-11.7-9.2-12.1c-1.5,0-3.3,0-4.4,0C635.6,696.5,635.6,696.2,635.6,694.7z"/>
	<path fill="#7F7F7F" d="M686.8,702c-1.5,0-3.3,0-4.4,0c-4.4-0.7-9.2-5.9-12.1,1.5c0,0.7-1.8,0.7-2.6,0c-0.7-0.7-1.5-1.8-0.7-2.6
		c1.8-1.8,4-5.9,5.9-5.9c4,0,8.4,1.8,12.1,2.6c1.5,0,2.6,0.7,4,1.5C687.5,700.2,687.5,702,686.8,702z"/>
	<path fill="#7F7F7F" d="M645.8,744.1c8.4-4,16.8-2.6,22,4c0.7,0.7,0.7,1.5,0.7,2.6c-0.7,0-1.8,0-2.6,0
		C659.3,748.9,652,745.9,645.8,744.1z"/>
	<path fill="#7F7F7F" d="M685.7,688.8c-1.5,1.5-1.8,2.6-1.8,2.6c-4-0.7-8.4-1.8-12.1-3.3v-1.8c1.8-0.7,4-1.5,5.9-0.7
		C679.8,685.9,682.4,687.4,685.7,688.8z"/>
	<path fill="#7F7F7F" d="M644.3,683.7c0.7,0,1.8-0.7,2.6-0.7c1.8,0,4,0.7,5.9,1.5c0.7,0,0,1.8,0,2.6c-1.8,0-4,0-5.9,0
		c-0.7,0-1.8-0.7-2.6-0.7c-2.6-0.7-4.4-1.5-7-1.8c2.6-0.7,4.4-1.5,7-1.8C644.3,683.3,644.3,683.7,644.3,683.7z"/>
	<path fill="#7F7F7F" d="M729.3,722.5c-1.5,1.8-2.6,4-4,5.9c-0.7-1.5-1.8-1.8-1.8-3.3c0-1.8,1.5-4,1.8-5.1
		C726.7,720.3,727.8,721.8,729.3,722.5z"/>
	<path fill="#7F7F7F" d="M653.5,754.3c-2.6-0.7-5.9-0.7-8.4-1.5c0,0,0-0.7-0.7-1.5c3.3,0.7,5.9,0.7,9.2,1.5
		C654.2,754,654.2,754.3,653.5,754.3z"/>
	<path fill="#7F7F7F" d="M663,712.6c-0.7,2.6-0.7,4.4-1.5,7h-1.5c0-2.6,0-4.4,0-7C660.4,712.6,661.9,712.6,663,712.6z"/>
	<path fill="#7F7F7F" d="M407.5,707.1c-1.5,0-2.6,0.7-4,0c-1.8-0.7-3.3-1.5-5.1-1.8c1.5-1.5,2.6-2.6,4-3.3c6.6-1.5,13.5-2.6,17.9,4
		c0.7,0.7,0.7,1.8,1.5,3.3c-1.5,0-2.6,0.7-4,0.7c-4-0.7-7-1.8-11-3.3C407.5,706.4,407.5,706.4,407.5,707.1z"/>
	<path fill="#7F7F7F" d="M400.9,692.9c3.3-7,8.4-9.5,15.4-8.4c5.9,0.7,11.7,1.8,11.7,11C419.6,688.5,411.2,685.2,400.9,692.9z"/>
	<path fill="#7F7F7F" d="M428.8,701.3c-0.7,1.8-0.7,4.4-1.5,6.6c-0.7,0-1.8-0.7-1.8-0.7c0-1.8,0.7-4,1.5-6.6
		C427.3,701.3,428,701.3,428.8,701.3z"/>
	<path fill="#7F7F7F" d="M427.3,765.3c1.5,0.7,3.3,1.8,4.4,2.6c-0.7,0.7-1.8,1.8-1.8,1.8c-1.5-0.7-2.6-1.8-4.4-2.6
		C426.2,766.4,426.6,766.1,427.3,765.3z"/>
	<path fill="#7F7F7F" d="M649.5,648.6c13.5,3.3,27.5,2.6,40.6,10.2c3.3,1.8,7,4,11,5.1c4,1.1,9.2,0,5.1,7c0,0.7,4,3.3,5.9,5.1
		c0.7,0.7,1.5,1.8,2.6,3.3c-1.5,0-3.3,1.5-4.4,0.7c-2.6-1.5-4.4-4-7-5.1c-5.1-2.6-10.2-4.4-15.4-7c1.8-0.7,3.3-1.8,5.1-2.6
		c-1.5-1.5-1.8-3.3-3.3-3.3c-10.2-3.3-20.5-5.9-30.7-8.4c-3.3-0.7-5.9-1.5-9.2-2.6C649.1,649.3,649.1,648.9,649.5,648.6z"/>
</g>
</svg>
