<?xml version="1.0" encoding="utf-8"?>
<!-- Generator: Adobe Illustrator 18.1.0, SVG Export Plug-In . SVG Version: 6.00 Build 0)  -->
<svg version="1.1" id="Layer_1" xmlns="http://www.w3.org/2000/svg" xmlns:xlink="http://www.w3.org/1999/xlink" x="0px" y="0px"
	 viewBox="170.7 0 617.5 560" enable-background="new 170.7 0 617.5 560" xml:space="preserve">
<g>
	<g>
		<defs>
			<rect id="SVGID_1_" x="120.9" y="-47.6" width="703.8" height="663.9"/>
		</defs>
		<clipPath id="SVGID_2_">
			<use xlink:href="#SVGID_1_"  overflow="visible"/>
		</clipPath>
		<g clip-path="url(#SVGID_2_)">
			<path fill="#7F7F7F" d="M306.3,175C306.2,81,379.5,1,478.7,0c94-1,173.9,72.7,174.9,172.3c1,94.3-72.8,174.3-172.9,175
				C385.6,347.9,308.1,272.9,306.3,175z M518.4,134.7c-24.9,0-49.5,0-74,0.1c-1.1,0-3,2.4-3.1,3.7c-1,11.9-2.2,23.7-2.1,35.6
				c0,12.6,1.2,25.2,2.1,38.3c25.5,0,50.1,0,74.6-0.1c1.1,0,2.9-2.4,3.1-3.9C521.8,184.2,521.7,159.9,518.4,134.7z M556,212.6
				c17.4,0,35.1,0.1,52.7-0.2c1.6,0,3.9-2.5,4.4-4.2c5.9-22.3,5.9-44.5,0.8-66.9c-1.2-5.6-3.5-7-8.8-6.8c-9.4,0.5-19,0.1-28.4,0.1
				c-7.1,0-14.4,0-20.7,0C556,161,556,186.3,556,212.6z M404.1,134.7c-17.4,0-35.2-0.1-52.8,0.1c-1.5,0-3.9,2.1-4.2,3.6
				c-6.2,23-6.2,46.1-0.5,69.2c1,4.1,2.9,5,6.7,5c14.6-0.1,29.4-0.1,44-0.1c2.5,0,5.1,0,6.9,0C404.1,186.3,404.1,161,404.1,134.7z
				 M512,96.1c-2.9-8.7-5.1-17.2-8.6-24.9c-4.2-9.6-8.9-18.9-14.5-27.7c-6-9.6-9.3-9.6-16.1-0.7c-4.2,5.6-8.3,11.5-11.1,17.9
				c-5.1,11.4-9.2,23.2-13.9,35.6C470,96.1,490.6,96.1,512,96.1z M448.6,251.2c5.4,19.7,11.7,38.6,24.7,54.3c5.8,7,7.9,7,13.5,0
				c12.8-15.7,19.1-34.6,24.7-54.3C490.3,251.2,469.8,251.2,448.6,251.2z M365.4,96.5c16.1,0,30.7,0.1,45.3-0.1
				c1.3,0,3.3-2.1,3.9-3.6c2.5-6.2,4.1-12.7,7-18.6c5.6-11.2,11.7-22.3,18-33.9C408.8,50.3,384.4,68.4,365.4,96.5z M593.9,96.5
				c-13.8-25.9-53-53-74.2-55.1C532.2,57.2,539.9,75,546,93.6c0.4,1.2,2.4,2.8,3.7,2.8C564.2,96.5,578.6,96.5,593.9,96.5z
				 M365.4,250.8c19.2,27.9,43.4,46.3,74.4,55.5c-2.4-4.6-5.8-8.5-7.9-12.9c-5.9-12.5-11.2-25.3-16.9-37.8c-0.8-1.8-2.8-4.6-4.2-4.6
				C396,250.7,381.5,250.8,365.4,250.8z M594.7,250.8c-15.2,0-28.9,0.1-42.6-0.1c-4.1-0.1-5.7,1.3-7.3,5.1
				c-5.2,12.8-10.9,25.4-16.9,37.8c-2.1,4.4-5.3,8.1-9.1,13.7C551.5,297.1,575.6,278.5,594.7,250.8z"/>
			<path fill="#7F7F7F" d="M648,456c11-12.2,21.3-23.5,31.4-34.9c16-18.1,32.9-35.7,47.3-54.9c16.4-21.8,19.8-46.2,6.8-71.5
				c-1.1-2.1-1.7-4.6-1.7-6.9c0.2-25.8,0.5-51.5,1.1-77.3c0.1-5.8,1.2-11.6,2.5-17.3c1.9-8.8,5.8-17.2,15.6-18.7
				c10.4-1.7,20.4,0.7,27.7,9.6c6.5,8,8.6,17.7,9.3,27.6c0.8,11.2,1.1,22.5,1.2,33.7c0.2,19.6-0.7,39.2,0.2,58.6
				c1.3,28.4-6.4,54.2-19.8,78.5c-18.4,33.6-40.8,64.5-69.7,89.7c-12.6,11-27.1,20.3-41.8,28.3c-16.7,8.9-24.2,22.1-24.9,40.3
				c-0.2,6.2-0.7,12.5-1.2,19c-44,0-87.8,0-132.2,0c0-13.1-0.4-26.1,0.1-39.1c0.7-18.5,1.2-37.1,3.4-55.4
				c1.7-14.3,4.2-28.8,8.9-42.3c9.7-27.6,31.1-42.7,58.6-49.6c7.6-1.9,15.5-2.3,23.1-4.1c3.4-0.8,7.3-2.7,9.6-5.2
				c16.3-18.1,32.3-36.5,48.2-54.9c6.9-8,15.2-13.7,25.4-16.4c25.2-7.1,46.1,12.2,41.4,38c-2.2,11.5-7.4,20.9-15.1,29.6
				c-16.4,18.5-33,37-48.2,56.5c-7.7,9.9-12,22.4-8.8,35.8C646.9,453.3,647.3,454.1,648,456z"/>
			<path fill="#7F7F7F" d="M460.2,560c-44.4,0-88,0-131.8,0c-1-9.7-1.7-19-2.8-28.3c-1.7-13.4-8.8-23.2-20.9-29
				c-34-16.6-60.1-42.1-82.6-71.8c-18.1-23.9-35.1-48.9-44.4-77.8c-3.7-11.7-6.2-24.3-6.5-36.5c-1-27.8-0.4-55.6-0.2-83.4
				c-0.1-14.3,0.1-28.8,6-42.1c6.4-14.4,17.7-17.8,30.5-16.7c10.6,0.8,15.5,9.6,16.9,18.7c2.2,13.9,3.3,27.9,3.7,42
				c0.6,17.3,0.1,34.7,0.1,52c0,2.3-0.2,5-1.2,7c-14.4,27.7-9.6,53.6,9.3,76.4c23.5,28.3,48.7,55.3,73.3,82.8
				c0.6,0.7,1.5,1.2,2.5,2.1c3.9-6.9,3-13.9,0.6-20.1c-3.6-9.1-7.6-18.4-13.5-25.9c-14.3-17.7-30.1-34.1-44.9-51.4
				c-11.9-13.8-17.4-29.7-10.8-47.5c6.5-17.5,25.3-24.2,44.4-15.6c7.3,3.3,14.3,8.5,19.7,14.4c16.3,17.5,31.9,35.8,47.4,54.1
				c3.7,4.5,8,5.9,13.4,6.7c18.5,2.3,36.4,6.5,52,17.7c20.9,14.8,30,36,34,60.3c5.8,36.2,5.6,72.6,6,109.1
				C460.5,557.7,460.2,558.7,460.2,560z"/>
			<path fill="#7F7F7F" d="M247,194.2c6.7,0.1,10.9,5,13.4,10.9c2.3,5.3,4.1,11.1,4.5,16.8c1.2,15.7,1.7,31.7,2.5,47.2
				c-7.1,1.8-13.1,3.4-20.4,5.3C247,247.5,247,221.2,247,194.2z"/>
			<path fill="#7F7F7F" d="M713,194c0,27.3,0,53.6,0,80.5c-7.4-1.9-13.3-3.5-19.8-5.2c0.1-19.5-1.1-39.2,4.2-58.3
				c1.5-5.2,5.6-9.9,9.2-14.3C708,194.9,711.1,194.7,713,194z"/>
		</g>
	</g>
</g>
</svg>
